<?xml version="1.0" encoding="UTF-8" standalone="no"?>
<svg
   width="410mm"
   height="590mm"
   viewBox="-10 -410 410 590.00001"
   version="1.1"
   id="svg140"
   sodipodi:docname="nest-manual.svg"
   inkscape:version="1.1 (1:1.1+202105261517+ce6663b3b7)"
   xmlns:inkscape="http://www.inkscape.org/namespaces/inkscape"
   xmlns:sodipodi="http://sodipodi.sourceforge.net/DTD/sodipodi-0.dtd"
   xmlns="http://www.w3.org/2000/svg"
   xmlns:svg="http://www.w3.org/2000/svg"
   xmlns:rdf="http://www.w3.org/1999/02/22-rdf-syntax-ns#"
   xmlns:cc="http://creativecommons.org/ns#"
   xmlns:dc="http://purl.org/dc/elements/1.1/">
  <metadata
     id="metadata146">
    <rdf:RDF>
      <cc:Work
         rdf:about="">
        <dc:format>image/svg+xml</dc:format>
        <dc:type
           rdf:resource="http://purl.org/dc/dcmitype/StillImage" />
      </cc:Work>
    </rdf:RDF>
  </metadata>
  <defs
     id="defs144" />
  <sodipodi:namedview
     inkscape:document-rotation="0"
     pagecolor="#ffffff"
     bordercolor="#666666"
     borderopacity="1"
     objecttolerance="10"
     gridtolerance="10"
     guidetolerance="10"
     inkscape:pageopacity="0"
     inkscape:pageshadow="2"
     inkscape:window-width="1920"
     inkscape:window-height="1030"
     id="namedview142"
     showgrid="false"
     inkscape:zoom="1.5820234"
     inkscape:cx="977.54557"
     inkscape:cy="305.30521"
     inkscape:window-x="0"
     inkscape:window-y="26"
     inkscape:window-maximized="1"
     inkscape:current-layer="svg140"
     inkscape:pagecheckerboard="0"
     inkscape:document-units="mm" />
  <g
     transform="rotate(-90,253.48118,60.033249)"
     id="Setup1"
     style="stroke:#ff0000;stroke-width:1;stroke-miterlimit:4;stroke-dasharray:none;stroke-opacity:1">
    <path
       id="op_2D_Profile56-229-0"
       fill="none"
       stroke="rgb(255,0,0)"
       stroke-width="0.1"
       d="m 572.773,-61.069 a 1.54,1.54 0 0 0 2.158,0.296 1.54,1.54 0 0 0 0.296,-2.158 1.54,1.54 0 0 0 -2.158,-0.296 1.54,1.54 0 0 0 -0.296,2.158 z m -7.113,10.129 v 0.88 h 2.68 v -9.88 h -2.68 z m -9.385,11.75 a 2.19,2.19 0 0 0 -2.19,2.19 2.19,2.19 0 0 0 2.19,2.19 2.19,2.19 0 0 0 2.19,-2.19 2.19,2.19 0 0 0 -2.19,-2.19 z m -9.735,-20.63 v -0.12 h -2.68 v 9.88 h 2.68 z m -2.8,-70 v -0.12 h -11.88 v 59.88 h 11.88 z m 2.8,-7.56 v -12.56 h -2.68 v 12.68 h 2.68 z m 9.735,-23.43 a 2.19,2.19 0 0 0 2.19,-2.19 2.19,2.19 0 0 0 -2.19,-2.19 2.19,2.19 0 0 0 -2.19,2.19 2.19,2.19 0 0 0 2.19,2.19 z m 11.945,10.87 h -2.56 v 12.68 h 2.68 v -12.68 z m 5.78,-2.52 a 1.54,1.54 0 0 0 1.54,-1.54 1.54,1.54 0 0 0 -1.54,-1.54 1.54,1.54 0 0 0 -1.54,1.54 1.54,1.54 0 0 0 1.54,1.54 z m 43.93,19.64 v 5.76 h 8.88 v -5.88 h -8.88 z M 666,-152.46 a 1.54,1.54 0 0 0 1.54,-1.54 1.54,1.54 0 0 0 -1.54,-1.54 1.54,1.54 0 0 0 -1.54,1.54 1.54,1.54 0 0 0 1.54,1.54 z m 5.66,2.64 v 12.56 h 2.68 v -12.68 h -2.68 z m 12.065,-10.99 a 2.19,2.19 0 0 0 2.19,-2.19 2.19,2.19 0 0 0 -2.19,-2.19 2.19,2.19 0 0 0 -2.19,2.19 2.19,2.19 0 0 0 2.19,2.19 z m 9.735,23.43 v 0.12 h 2.68 v -12.68 h -2.68 z m 2.8,67.2 v 0.12 h 11.88 v -59.88 h -11.88 z m -2.8,10.36 v 9.76 h 2.68 v -9.88 h -2.68 z m -9.735,20.63 a 2.19,2.19 0 0 0 -2.19,2.19 2.19,2.19 0 0 0 2.19,2.19 2.19,2.19 0 0 0 2.19,-2.19 2.19,2.19 0 0 0 -2.19,-2.19 z m -9.385,-11.87 v -8.88 h -2.68 v 9.88 h 2.68 z m -8.754,-9.457 a 1.54,1.54 0 0 0 1.897,-1.069 1.54,1.54 0 0 0 -1.069,-1.897 1.54,1.54 0 0 0 -1.897,1.069 1.54,1.54 0 0 0 1.069,1.897 z m -6.269,-0.606 a 1.49,1.49 0 0 0 0.24,-2.094 1.49,1.49 0 0 0 -2.094,-0.24 1.49,1.49 0 0 0 -0.24,2.094 1.49,1.49 0 0 0 2.094,0.24 z M 635.94,-37.94 H 580.06 V -17 a 5.94,5.94 0 0 0 5.94,5.94 h 68 a 5.94,5.94 0 0 0 5.94,-5.94 v -20.94 z m -23.833,-26.067 a 1.49,1.49 0 0 0 -2.094,-0.24 1.49,1.49 0 0 0 -0.24,2.094 1.49,1.49 0 0 0 2.094,0.24 1.49,1.49 0 0 0 0.24,-2.094 z m -2.334,-7.676 a 1.49,1.49 0 0 0 2.094,0.24 1.49,1.49 0 0 0 0.24,-2.094 1.49,1.49 0 0 0 -2.094,-0.24 1.49,1.49 0 0 0 -0.24,2.094 z m -7.196,-1.854 a 1.49,1.49 0 0 0 -2.094,-0.24 1.49,1.49 0 0 0 -0.24,2.094 1.49,1.49 0 0 0 2.094,0.24 1.49,1.49 0 0 0 0.24,-2.094 z m -0.23,-7.426 a 1.49,1.49 0 0 0 0.24,-2.094 1.49,1.49 0 0 0 -2.094,-0.24 1.49,1.49 0 0 0 -0.24,2.094 1.49,1.49 0 0 0 2.094,0.24 z m 8.255,0.274 a 1.49,1.49 0 0 0 1.789,-1.113 1.49,1.49 0 0 0 -1.113,-1.789 1.49,1.49 0 0 0 -1.789,1.113 1.49,1.49 0 0 0 1.113,1.789 z m 8.715,7.135 a 1.49,1.49 0 0 0 0.209,2.097 1.49,1.49 0 0 0 2.097,-0.209 1.49,1.49 0 0 0 -0.209,-2.097 1.49,1.49 0 0 0 -2.097,0.209 z m -1.9,73.581 a 100.06,100.06 0 0 1 -97.444,-102.61 100.06,100.06 0 0 1 102.61,-97.444 100.06,100.06 0 0 1 97.444,102.61 100.06,100.06 0 0 1 -102.61,97.444 z"
       style="stroke:#ff0000;stroke-width:1;stroke-miterlimit:4;stroke-dasharray:none;stroke-opacity:1" />
  </g>
  <g
     transform="rotate(90,463.93941,-469.88052)"
     id="Setup2"
     style="stroke:#ff0000;stroke-width:1;stroke-miterlimit:4;stroke-dasharray:none;stroke-opacity:1">
    <path
       id="op_2D_Profile2-231-1"
       fill="none"
       stroke="rgb(255,0,0)"
       stroke-width="0.1"
       d="m 889.683,-158.945 a 1.24,1.24 0 0 0 -1.753,0.037 1.24,1.24 0 0 0 0.037,1.753 1.24,1.24 0 0 0 1.753,-0.037 1.24,1.24 0 0 0 -0.037,-1.753 z m 3.867,-1.374 a 2.69,2.69 0 0 0 2.906,-2.456 2.69,2.69 0 0 0 -2.456,-2.906 2.69,2.69 0 0 0 -2.906,2.456 2.69,2.69 0 0 0 2.456,2.906 z m 3.935,2.269 a 1.24,1.24 0 0 0 1.24,1.24 1.24,1.24 0 0 0 1.24,-1.24 1.24,1.24 0 0 0 -1.24,-1.24 1.24,1.24 0 0 0 -1.24,1.24 z m 8.655,6.79 v -3.68 h -2.68 v 12.68 h 2.68 z m 7.144,5.803 4.235,8.793 2.415,-1.163 -4.287,-8.901 -2.415,1.162 z m -9.824,21.517 v 8.88 h 2.74 a 0.06,0.06 0 0 1 0.06,0.06 v 30 a 0.06,0.06 0 0 1 -0.06,0.06 h -2.74 v 9.88 h 2.74 a 0.06,0.06 0 0 1 0.06,0.06 v 4.94 h 11.88 V -75 a 0.06,0.06 0 0 1 0.06,-0.06 h 2.74 v -9.88 H 918.2 A 0.06,0.06 0 0 1 918.14,-85 v -30 a 0.06,0.06 0 0 1 0.06,-0.06 h 2.74 v -9.88 h -2.74 a 0.06,0.06 0 0 1 -0.06,-0.06 v -4.94 h -11.88 v 4.94 a 0.06,0.06 0 0 1 -0.06,0.06 h -2.74 z m -14.5,9.82 v 2.56 h 9.88 v -2.68 h -9.88 z M 787.6,-160.44 h -9.2 a 0.06,0.06 0 0 1 -0.06,-0.06 v -9.44 h -2.68 v 12.68 h 2.74 a 0.06,0.06 0 0 1 0.06,0.06 v 37.2 a 0.06,0.06 0 0 1 -0.06,0.06 h -2.74 v 9.88 h 2.74 a 0.06,0.06 0 0 1 0.06,0.06 v 20 a 0.06,0.06 0 0 1 -0.06,0.06 h -2.74 v 9.88 h 2.74 a 0.06,0.06 0 0 1 0.06,0.06 v 24.44 H 881.54 V -80 a 0.06,0.06 0 0 1 0.06,-0.06 h 2.74 v -9.88 H 881.6 A 0.06,0.06 0 0 1 881.54,-90 v -20 a 0.06,0.06 0 0 1 0.06,-0.06 h 2.74 v -9.88 h -2.74 a 0.06,0.06 0 0 1 -0.06,-0.06 v -37.2 a 0.06,0.06 0 0 1 0.06,-0.06 h 2.74 v -12.68 h -2.68 v 9.44 a 0.06,0.06 0 0 1 -0.06,0.06 z m -16.375,-6.27 a 1.24,1.24 0 0 0 1.24,-1.24 1.24,1.24 0 0 0 -1.24,-1.24 1.24,1.24 0 0 0 -1.24,1.24 1.24,1.24 0 0 0 1.24,1.24 z m -2.269,3.935 a 2.69,2.69 0 0 0 -2.456,-2.906 2.69,2.69 0 0 0 -2.906,2.456 2.69,2.69 0 0 0 2.456,2.906 2.69,2.69 0 0 0 2.906,-2.456 z m 1.374,3.867 a 1.24,1.24 0 0 0 0.037,1.753 1.24,1.24 0 0 0 1.753,-0.037 1.24,1.24 0 0 0 -0.037,-1.753 1.24,1.24 0 0 0 -1.753,0.037 z m -9.005,2.098 a 1.24,1.24 0 0 0 1.24,-1.24 1.24,1.24 0 0 0 -1.24,-1.24 1.24,1.24 0 0 0 -1.24,1.24 1.24,1.24 0 0 0 1.24,1.24 z m -7.465,5.87 v 8.68 h 2.68 v -12.68 h -2.68 z m -7.474,6.167 0.382,-0.793 -2.415,-1.162 -4.287,8.901 2.415,1.163 z m 10.154,20.713 v -0.88 h -2.74 a 0.06,0.06 0 0 1 -0.06,-0.06 v -4.94 h -11.88 v 4.94 a 0.06,0.06 0 0 1 -0.06,0.06 h -2.74 v 9.88 h 2.74 a 0.06,0.06 0 0 1 0.06,0.06 v 30 a 0.06,0.06 0 0 1 -0.06,0.06 h -2.74 v 9.88 h 2.74 a 0.06,0.06 0 0 1 0.06,0.06 v 4.94 h 11.88 V -75 a 0.06,0.06 0 0 1 0.06,-0.06 h 2.74 v -9.88 H 753.8 A 0.06,0.06 0 0 1 753.74,-85 v -30 a 0.06,0.06 0 0 1 0.06,-0.06 h 2.74 z m 4.62,12.38 v 0.12 h 9.88 v -2.68 h -9.88 z m -4.62,56.86 v -0.12 h -2.68 v 9.88 h 2.68 z m 5.643,11.975 a 1.24,1.24 0 0 0 -1.753,0.037 1.24,1.24 0 0 0 0.037,1.753 1.24,1.24 0 0 0 1.753,-0.037 1.24,1.24 0 0 0 -0.037,-1.753 z m 3.115,3.339 a 2.69,2.69 0 0 0 -1.529,3.483 2.69,2.69 0 0 0 3.483,1.529 2.69,2.69 0 0 0 1.529,-3.483 2.69,2.69 0 0 0 -3.483,-1.529 z m 6.785,6.561 a 1.24,1.24 0 0 0 -1.753,0.037 1.24,1.24 0 0 0 0.037,1.753 1.24,1.24 0 0 0 1.753,-0.037 1.24,1.24 0 0 0 -0.037,-1.753 z m 3.577,-3.995 v 6.88 h 2.68 v -9.88 h -2.68 z m -4.435,-3.77 a 1.24,1.24 0 0 0 1.24,-1.24 1.24,1.24 0 0 0 -1.24,-1.24 1.24,1.24 0 0 0 -1.24,1.24 1.24,1.24 0 0 0 1.24,1.24 z m -4.244,11.81 -1.596,2.002 7.724,6.16 1.671,-2.096 -7.724,-6.16 z m -4.798,-4.045 a 1.24,1.24 0 0 0 -1.753,0.037 1.24,1.24 0 0 0 0.037,1.753 1.24,1.24 0 0 0 1.753,-0.037 1.24,1.24 0 0 0 -0.037,-1.753 z m -15.467,-21.598 -4.235,-8.793 -2.415,1.163 4.287,8.901 2.415,-1.162 z M 735.24,-95.18 v -9.76 h -2.68 v 9.88 h 2.68 z m 26.98,-71.912 a 1.24,1.24 0 0 0 -0.037,-1.753 1.24,1.24 0 0 0 -1.753,0.037 1.24,1.24 0 0 0 0.037,1.753 1.24,1.24 0 0 0 1.753,-0.037 z m 4.93,-3.989 7.63,-6.085 -1.671,-2.096 -7.724,6.16 1.671,2.096 z m 25.997,-3.514 a 1.04,1.04 0 0 0 0.258,1.448 1.04,1.04 0 0 0 1.448,-0.258 1.04,1.04 0 0 0 -0.258,-1.448 1.04,1.04 0 0 0 -1.448,0.258 z m 11.631,-14.281 9.508,-2.17 -1.152,-5.05 -9.633,2.198 1.153,5.05 z m 19.162,18.736 h -3.88 v 4.88 h 19.88 v -4.88 z m 31.434,-18.832 1.125,-4.926 -9.633,-2.198 -1.152,5.05 9.632,2.198 z m 11.221,14.119 a 1.04,1.04 0 0 0 -1.448,0.258 1.04,1.04 0 0 0 0.258,1.448 1.04,1.04 0 0 0 1.448,-0.258 1.04,1.04 0 0 0 -0.258,-1.448 z m 20.97,-0.443 5.379,4.29 1.671,-2.096 -7.724,-6.16 -1.671,2.096 z m 2.118,6.451 a 1.24,1.24 0 0 0 -1.753,0.037 1.24,1.24 0 0 0 0.037,1.753 1.24,1.24 0 0 0 1.753,-0.037 1.24,1.24 0 0 0 -0.037,-1.753 z m 8.184,1.79 a 1.24,1.24 0 0 0 1.753,-0.037 1.24,1.24 0 0 0 -0.037,-1.753 1.24,1.24 0 0 0 -1.753,0.037 1.24,1.24 0 0 0 0.037,1.753 z m 26.893,71.875 v 0.12 h 2.68 v -9.88 h -2.68 z m -7.296,31.959 -4.232,8.787 2.415,1.162 4.287,-8.901 -2.415,-1.163 z M 906.14,-50.06 v -4.88 h -2.68 v 9.88 h 2.68 z m -8.273,9.005 a 1.24,1.24 0 0 0 1.753,-0.037 1.24,1.24 0 0 0 -0.037,-1.753 1.24,1.24 0 0 0 -1.753,0.037 1.24,1.24 0 0 0 0.037,1.753 z M 896.465,-37 a 2.69,2.69 0 0 0 -2.69,-2.69 2.69,2.69 0 0 0 -2.69,2.69 2.69,2.69 0 0 0 2.69,2.69 2.69,2.69 0 0 0 2.69,-2.69 z m 1.02,4.95 a 1.24,1.24 0 0 0 1.24,1.24 1.24,1.24 0 0 0 1.24,-1.24 1.24,1.24 0 0 0 -1.24,-1.24 1.24,1.24 0 0 0 -1.24,1.24 z m -4.635,3.131 -7.63,6.085 1.671,2.096 7.724,-6.16 -1.671,-2.096 z m -4.025,-1.891 a 1.24,1.24 0 0 0 1.24,-1.24 1.24,1.24 0 0 0 -1.24,-1.24 1.24,1.24 0 0 0 -1.24,1.24 1.24,1.24 0 0 0 1.24,1.24 z m -4.485,-5.25 v -3.88 h -2.68 v 9.88 h 2.68 z m 3.627,-4.995 a 1.24,1.24 0 0 0 1.753,-0.037 1.24,1.24 0 0 0 -0.037,-1.753 1.24,1.24 0 0 0 -1.753,0.037 1.24,1.24 0 0 0 0.037,1.753 z m -18.147,0.315 h -14.76 v 2.68 h 14.88 v -2.68 z m -24.897,-3.412 a 1.44,1.44 0 0 0 0.185,-2.028 1.44,1.44 0 0 0 -2.028,-0.185 1.44,1.44 0 0 0 -0.185,2.028 1.44,1.44 0 0 0 2.028,0.185 z m -5.54,12.64 A 7.44,7.44 0 0 0 835,-32.94 h -10 a 7.44,7.44 0 0 0 -7.44,7.44 7.44,7.44 0 0 0 7.44,7.44 h 10 a 7.44,7.44 0 0 0 7.44,-7.44 7.44,7.44 0 0 0 -3.057,-6.012 z m -8.163,18.437 h -2.56 v 4.88 h 2.68 v -4.88 z m 24.002,1.951 -9.508,2.17 1.152,5.05 9.633,-2.198 -1.153,-5.05 z m 14.838,-7.116 v 5.38 h 2.68 v -7.38 h -2.68 z m -54.061,-25.579 a 1.44,1.44 0 0 0 1.44,-1.439 1.44,1.44 0 0 0 -1.44,-1.44 1.44,1.44 0 0 0 -1.44,1.44 1.44,1.44 0 0 0 1.44,1.439 z m -11.059,5.639 v -2.56 h -14.88 v 2.68 h 14.88 z m -15.12,17.94 h -2.56 v 7.38 h 2.68 v -7.38 z m 14.806,9.212 -1.125,4.926 9.633,2.198 1.152,-5.05 -9.632,-2.198 z m -2.068,7.251 a 100.06,100.06 0 0 1 -68.781,-123.665 100.06,100.06 0 0 1 123.665,-68.781 100.06,100.06 0 0 1 68.781,123.665 100.06,100.06 0 0 1 -123.665,68.781 z"
       style="stroke:#ff0000;stroke-width:1;stroke-miterlimit:4;stroke-dasharray:none;stroke-opacity:1" />
  </g>
  <polyline
     points="0,0 500,0 500,-400 0,-400 0,0"
     stroke="rgb(0,0,0)"
     stroke-width="0.1"
     fill="none"
     id="polyline2"
     style="stroke:#000000;stroke-width:1;stroke-miterlimit:4;stroke-dasharray:none;stroke-opacity:1"
     transform="matrix(0,1.1776447,-1.0224439,0,-9.4887781,-409.41118)" />
  <g
     transform="rotate(90,766.92867,-529.00604)"
     id="Setup3"
     style="stroke:#ff0000;stroke-width:1;stroke-miterlimit:4;stroke-dasharray:none;stroke-opacity:1">
    <path
       id="op_2D_Profile3-233-2"
       fill="none"
       stroke="rgb(255,0,0)"
       stroke-width="0.1"
       d="m 965.82,-23.64 h -11.76 v 2.68 h 11.88 v -2.68 z m 4.36,-45.663 h 2.56 v -14.88 h -2.68 v 14.88 z m -6.24,-62.664 v -2.56 h -9.88 v 2.68 h 9.88 z m 0,1.54 H 940 a 0.06,0.06 0 0 1 -0.06,-0.06 v -25 a 0.06,0.06 0 0 1 0.06,-0.06 h 35.2 a 0.06,0.06 0 0 1 0.06,0.06 v 4.94 H 978 a 0.06,0.06 0 0 1 0.06,0.06 v 2.684 h 2.74 a 0.06,0.06 0 0 1 0.06,0.06 v 12.8 a 0.06,0.06 0 0 1 -0.06,0.06 h -2.74 v 37.08 h 2.74 a 0.06,0.06 0 0 1 0.06,0.06 v 10 a 0.06,0.06 0 0 1 -0.06,0.06 h -2.74 v 19.88 h 2.74 a 0.06,0.06 0 0 1 0.06,0.06 v 10 a 0.06,0.06 0 0 1 -0.06,0.06 h -2.74 v 39.88 h 2.74 a 0.06,0.06 0 0 1 0.06,0.06 v 10 a 0.06,0.06 0 0 1 -0.06,0.06 h -2.74 V -5 A 0.06,0.06 0 0 1 978,-4.94 h -2.74 V 0 A 0.06,0.06 0 0 1 975.2,0.06 H 940 A 0.06,0.06 0 0 1 939.94,0 v -15.743 a 0.06,0.06 0 0 1 0.06,-0.06 h 7.44 v -2.68 H 940 a 0.06,0.06 0 0 1 -0.06,-0.06 V -26 a 0.06,0.06 0 0 1 0.06,-0.06 h 28 a 1.94,1.94 0 0 0 1.94,-1.94 v -32.7 a 1.94,1.94 0 0 0 -1.94,-1.94 2.06,2.06 0 0 1 -2.06,-2.06 v -15.543 a 1.94,1.94 0 0 0 -1.94,-1.94 h -11 a 0.06,0.06 0 0 1 -0.06,-0.06 v -7 a 0.06,0.06 0 0 1 0.06,-0.06 h 9.94 v -2.68 H 953 a 0.06,0.06 0 0 1 -0.06,-0.06 v -6.2 a 0.06,0.06 0 0 1 0.06,-0.06 h 11 a 1.94,1.94 0 0 0 1.94,-1.94 v -28.244 a 1.94,1.94 0 0 0 -1.94,-1.94 z"
       style="stroke:#ff0000;stroke-width:1;stroke-miterlimit:4;stroke-dasharray:none;stroke-opacity:1" />
  </g>
  <g
     transform="rotate(-90,582.98854,188.32952)"
     id="Setup4"
     style="stroke:#ff0000;stroke-width:1;stroke-miterlimit:4;stroke-dasharray:none;stroke-opacity:1">
    <path
       id="op_2D_Profile4-235-3"
       fill="none"
       stroke="rgb(255,0,0)"
       stroke-width="0.1"
       d="m 1007.66,-114.786 v 0.12 h 9.88 v -2.68 h -9.88 z m -6.12,62.543 v -14.76 h -2.68 v 14.88 h 2.68 z m -0.12,25.24 h -2.56 v 9.88 h 2.68 v -9.88 z m 6.24,20.663 v 2.56 h 11.88 v -2.68 h -11.88 z m 0,6.4 H 993.6 A 0.06,0.06 0 0 1 993.54,0 v -5.503 h -2.74 a 0.06,0.06 0 0 1 -0.06,-0.06 v -10 a 0.06,0.06 0 0 1 0.06,-0.06 h 2.74 v -19.88 h -2.74 a 0.06,0.06 0 0 1 -0.06,-0.06 v -10 a 0.06,0.06 0 0 1 0.06,-0.06 h 2.74 v -29.88 h -2.74 a 0.06,0.06 0 0 1 -0.06,-0.06 v -10 a 0.06,0.06 0 0 1 0.06,-0.06 h 2.74 v -17.08 h -2.74 a 0.06,0.06 0 0 1 -0.06,-0.06 v -12.8 a 0.06,0.06 0 0 1 0.06,-0.06 h 2.74 v -5.503 a 0.06,0.06 0 0 1 0.06,-0.06 h 38 a 0.06,0.06 0 0 1 0.06,0.06 v 7.82 a 0.06,0.06 0 0 1 -0.06,0.06 h -24 a 1.94,1.94 0 0 0 -1.94,1.94 v 28.243 a 1.94,1.94 0 0 0 1.94,1.94 h 11 a 0.06,0.06 0 0 1 0.06,0.06 v 6.2 a 0.06,0.06 0 0 1 -0.06,0.06 h -9.94 v 2.68 h 9.94 a 0.06,0.06 0 0 1 0.06,0.06 v 7 a 0.06,0.06 0 0 1 -0.06,0.06 h -11 a 1.94,1.94 0 0 0 -1.94,1.94 v 38.243 a 1.94,1.94 0 0 0 1.94,1.94 h 11 a 0.06,0.06 0 0 1 0.06,0.06 v 11.963 l 3.954,1.977 h 8.986 a 0.06,0.06 0 0 1 0.06,0.06 v 7.457 a 0.06,0.06 0 0 1 -0.06,0.06 h -7.44 V 0 a 0.06,0.06 0 0 1 -0.06,0.06 z"
       style="stroke:#ff0000;stroke-width:1;stroke-miterlimit:4;stroke-dasharray:none;stroke-opacity:1" />
  </g>
  <g
     transform="translate(-840.16584,-247.54001)"
     id="Setup5"
     style="stroke:#ff0000;stroke-width:1;stroke-miterlimit:4;stroke-dasharray:none;stroke-opacity:1">
    <path
       id="op_2D_Profile6-238-4"
       fill="none"
       stroke="rgb(255,0,0)"
       stroke-width="0.1"
       d="m 1058.84,-68.523 v -2.56 h -9.88 v 2.68 h 9.88 z m 4.62,0 v 5.12 h 2.74 a 0.06,0.06 0 0 1 0.06,0.06 v 15 a 0.06,0.06 0 0 1 -0.06,0.06 h -2.74 V -2.8 a 0.06,0.06 0 0 1 -0.06,0.06 h -5.69 V 0 a 0.06,0.06 0 0 1 -0.06,0.06 h -7.5 A 0.06,0.06 0 0 1 1050.09,0 v -2.74 h -5.69 a 0.06,0.06 0 0 1 -0.06,-0.06 v -10.483 h -2.74 a 0.06,0.06 0 0 1 -0.06,-0.06 v -10 a 0.06,0.06 0 0 1 0.06,-0.06 h 2.74 v -24.88 h -2.74 a 0.06,0.06 0 0 1 -0.06,-0.06 v -15 a 0.06,0.06 0 0 1 0.06,-0.06 h 2.74 v -12.74 a 0.06,0.06 0 0 1 0.06,-0.06 h 19 a 0.06,0.06 0 0 1 0.06,0.06 z"
       style="stroke:#ff0000;stroke-width:1;stroke-miterlimit:4;stroke-dasharray:none;stroke-opacity:1" />
  </g>
  <g
     transform="rotate(-90,525.99941,222.20614)"
     id="Setup6"
     style="stroke:#ff0000;stroke-width:1;stroke-miterlimit:4;stroke-dasharray:none;stroke-opacity:1">
    <path
       id="op_2D_Profile7-240-5"
       fill="none"
       stroke="rgb(255,0,0)"
       stroke-width="0.1"
       d="m 1100.8,-17.74 h -2.74 v 6.94 a 0.06,0.06 0 0 1 -0.06,0.06 h -4.44 V 0 a 0.06,0.06 0 0 1 -0.06,0.06 h -10 A 0.06,0.06 0 0 1 1083.44,0 V -10.74 H 1079 a 0.06,0.06 0 0 1 -0.06,-0.06 v -6.94 h -2.74 a 0.06,0.06 0 0 1 -0.06,-0.06 v -15 a 0.06,0.06 0 0 1 0.06,-0.06 h 7.24 V -36 a 0.06,0.06 0 0 1 0.018,-0.042 l 2,-2 a 0.06,0.06 0 0 1 0.042,-0.018 h 6 a 0.06,0.06 0 0 1 0.042,0.018 l 2,2 a 0.06,0.06 0 0 1 0.018,0.042 v 3.14 h 7.24 a 0.06,0.06 0 0 1 0.06,0.06 v 15 a 0.06,0.06 0 0 1 -0.06,0.06 z"
       style="stroke:#ff0000;stroke-width:1;stroke-miterlimit:4;stroke-dasharray:none;stroke-opacity:1" />
  </g>
  <g
     transform="translate(-843.17623,-354.57594)"
     id="Setup7"
     style="stroke:#ff0000;stroke-width:1;stroke-miterlimit:4;stroke-dasharray:none;stroke-opacity:1">
    <path
       id="op_2D_Profile8-242-6"
       fill="none"
       stroke="rgb(255,0,0)"
       stroke-width="0.1"
       d="m 1125.1,-17.11 a 1.69,1.69 0 0 0 1.69,-1.69 1.69,1.69 0 0 0 -1.69,-1.69 h -4 a 1.69,1.69 0 0 0 -1.69,1.69 1.69,1.69 0 0 0 1.69,1.69 z m 7.68,3.37 h -0.12 V -2.6 a 0.06,0.06 0 0 1 -0.06,0.06 h -4.44 V 0 a 0.06,0.06 0 0 1 -0.06,0.06 h -10 A 0.06,0.06 0 0 1 1118.04,0 v -2.54 h -4.44 a 0.06,0.06 0 0 1 -0.06,-0.06 v -11.14 h -2.74 a 0.06,0.06 0 0 1 -0.06,-0.06 v -10 a 0.06,0.06 0 0 1 0.06,-0.06 h 2.74 V -35 a 0.06,0.06 0 0 1 0.06,-0.06 h 19 a 0.06,0.06 0 0 1 0.06,0.06 v 11.14 h 2.74 a 0.06,0.06 0 0 1 0.06,0.06 v 10 a 0.06,0.06 0 0 1 -0.06,0.06 z"
       style="stroke:#ff0000;stroke-width:1;stroke-miterlimit:4;stroke-dasharray:none;stroke-opacity:1" />
  </g>
  <g
     transform="translate(-796.918,-237.83742)"
     id="Setup8"
     style="stroke:#ff0000;stroke-width:1;stroke-miterlimit:4;stroke-dasharray:none;stroke-opacity:1">
    <path
       id="op_2D_Profile9-244-7"
       fill="none"
       stroke="rgb(255,0,0)"
       stroke-width="0.1"
       d="m 1156.01,-27.26 h 5.38 v -2.68 h -7.38 v 2.68 z m 0,9.37 h -0.31 a 1.69,1.69 0 0 0 -1.69,1.69 1.69,1.69 0 0 0 1.69,1.69 h 4 a 1.69,1.69 0 0 0 1.69,-1.69 1.69,1.69 0 0 0 -1.69,-1.69 z m -7.99,-3.37 h 0.12 V -32.4 a 0.06,0.06 0 0 1 0.06,-0.06 h 4.44 V -35 a 0.06,0.06 0 0 1 0.06,-0.06 h 10 a 0.06,0.06 0 0 1 0.06,0.06 v 2.54 h 4.44 a 0.06,0.06 0 0 1 0.06,0.06 v 9.14 h 2.74 a 0.06,0.06 0 0 1 0.06,0.06 v 12 a 0.06,0.06 0 0 1 -0.06,0.06 h -2.74 V 0 a 0.06,0.06 0 0 1 -0.06,0.06 h -19 A 0.06,0.06 0 0 1 1148.14,0 v -9.14 h -2.74 a 0.06,0.06 0 0 1 -0.06,-0.06 v -12 a 0.06,0.06 0 0 1 0.06,-0.06 z"
       style="stroke:#ff0000;stroke-width:1;stroke-miterlimit:4;stroke-dasharray:none;stroke-opacity:1" />
  </g>
  <g
     transform="translate(-945.51157,-72.661968)"
     id="Setup9"
     style="stroke:#ff0000;stroke-width:1;stroke-miterlimit:4;stroke-dasharray:none;stroke-opacity:1">
    <path
       id="op_2D_Profile10-246-8"
       fill="none"
       stroke="rgb(255,0,0)"
       stroke-width="0.1"
       d="m 1194.94,-12.38 v -2.56 h -9.88 v 2.68 h 9.88 z m 8.12,-2.44 v 2.56 h 9.88 v -2.68 h -9.88 z M 1201.69,-30 a 2.69,2.69 0 0 0 -2.69,-2.69 2.69,2.69 0 0 0 -2.69,2.69 2.69,2.69 0 0 0 2.69,2.69 2.69,2.69 0 0 0 2.69,-2.69 z m 1.37,-15.18 v 0.12 h 9.88 v -2.68 h -9.88 z m -8.12,0 v -2.56 h -9.88 v 2.68 h 9.88 z m 0,-14.88 H 1218 a 0.06,0.06 0 0 1 0.06,0.06 v 4.94 h 2.74 a 0.06,0.06 0 0 1 0.06,0.06 v 10 a 0.06,0.06 0 0 1 -0.06,0.06 h -2.74 v 29.88 h 2.74 a 0.06,0.06 0 0 1 0.06,0.06 v 10 a 0.06,0.06 0 0 1 -0.06,0.06 h -2.74 V 0 A 0.06,0.06 0 0 1 1218,0.06 h -38 A 0.06,0.06 0 0 1 1179.94,0 v -60 a 0.06,0.06 0 0 1 0.06,-0.06 z"
       style="stroke:#ff0000;stroke-width:1;stroke-miterlimit:4;stroke-dasharray:none;stroke-opacity:1" />
  </g>
  <g
     transform="rotate(90,637.25958,-597.96924)"
     id="Setup10"
     style="stroke:#ff0000;stroke-width:1;stroke-miterlimit:4;stroke-dasharray:none;stroke-opacity:1">
    <path
       id="op_2D_Profile11-248-9"
       fill="none"
       stroke="rgb(255,0,0)"
       stroke-width="0.1"
       d="m 1248.54,-36.68 v -2.56 h -9.88 v 2.68 h 9.88 z m 8.24,0.12 h 9.76 v -2.68 h -9.88 v 2.68 z m -4.405,17.741 a 2.69,2.69 0 0 0 2.906,-2.456 2.69,2.69 0 0 0 -2.456,-2.906 2.69,2.69 0 0 0 -2.906,2.456 2.69,2.69 0 0 0 2.456,2.906 z m -3.835,12.499 v -0.12 h -9.88 v 2.68 h 9.88 z m 8.12,0 v 2.56 h 9.88 v -2.68 h -9.88 z m 0,6.38 H 1233.6 A 0.06,0.06 0 0 1 1233.54,0 v -16.44 h -2.74 a 0.06,0.06 0 0 1 -0.06,-0.06 v -10 a 0.06,0.06 0 0 1 0.06,-0.06 h 2.74 V -43 a 0.06,0.06 0 0 1 0.06,-0.06 h 38 a 0.06,0.06 0 0 1 0.06,0.06 V 0 a 0.06,0.06 0 0 1 -0.06,0.06 z"
       style="stroke:#ff0000;stroke-width:1;stroke-miterlimit:4;stroke-dasharray:none;stroke-opacity:1" />
  </g>
  <g
     transform="translate(-1066.6117,-204.5681)"
     id="Setup11"
     style="stroke:#ff0000;stroke-width:1;stroke-miterlimit:4;stroke-dasharray:none;stroke-opacity:1">
    <path
       id="op_2D_Profile12-250-10"
       fill="none"
       stroke="rgb(255,0,0)"
       stroke-width="0.1"
       d="m 1290.96,-23 a 0.06,0.06 0 0 1 -0.06,0.06 h -2.74 v 7.88 h 2.74 a 0.06,0.06 0 0 1 0.06,0.06 v 10 a 0.06,0.06 0 0 1 -0.06,0.06 h -2.74 V 0 a 0.06,0.06 0 0 1 -0.06,0.06 h -3.7 A 0.06,0.06 0 0 1 1284.34,0 v -4.94 h -2.74 A 0.06,0.06 0 0 1 1281.54,-5 v -10 a 0.06,0.06 0 0 1 0.06,-0.06 h 2.74 v -7.88 h -2.74 a 0.06,0.06 0 0 1 -0.06,-0.06 v -10 a 0.06,0.06 0 0 1 0.06,-0.06 h 2.74 V -38 a 0.06,0.06 0 0 1 0.06,-0.06 h 3.7 a 0.06,0.06 0 0 1 0.06,0.06 v 4.94 h 2.74 a 0.06,0.06 0 0 1 0.06,0.06 z"
       style="stroke:#ff0000;stroke-width:1;stroke-miterlimit:4;stroke-dasharray:none;stroke-opacity:1" />
  </g>
  <g
     transform="rotate(-90,695.45763,326.1577)"
     id="Setup12"
     style="stroke:#ff0000;stroke-width:1;stroke-miterlimit:4;stroke-dasharray:none;stroke-opacity:1">
    <path
       id="op_2D_Profile13-252-11"
       fill="none"
       stroke="rgb(255,0,0)"
       stroke-width="0.1"
       d="m 1307.46,0 a 0.06,0.06 0 0 1 -0.06,0.06 h -3.7 A 0.06,0.06 0 0 1 1303.64,0 v -4.94 h -2.74 A 0.06,0.06 0 0 1 1300.84,-5 v -10 a 0.06,0.06 0 0 1 0.06,-0.06 h 2.74 v -7.88 h -2.74 a 0.06,0.06 0 0 1 -0.06,-0.06 v -10 a 0.06,0.06 0 0 1 0.06,-0.06 h 2.74 V -38 a 0.06,0.06 0 0 1 0.06,-0.06 h 3.7 a 0.06,0.06 0 0 1 0.06,0.06 v 4.94 h 2.74 a 0.06,0.06 0 0 1 0.06,0.06 v 10 a 0.06,0.06 0 0 1 -0.06,0.06 h -2.74 v 7.88 h 2.74 a 0.06,0.06 0 0 1 0.06,0.06 v 10 a 0.06,0.06 0 0 1 -0.06,0.06 h -2.74 z"
       style="stroke:#ff0000;stroke-width:1;stroke-miterlimit:4;stroke-dasharray:none;stroke-opacity:1" />
  </g>
  <g
     transform="translate(-1304.7323,-385.73657)"
     id="Setup13"
     style="stroke:#ff0000;stroke-width:1;stroke-miterlimit:4;stroke-dasharray:none;stroke-opacity:1">
    <path
       id="op_2D_Profile14-254-12"
       fill="none"
       stroke="rgb(255,0,0)"
       stroke-width="0.1"
       d="m 1332.4,-13.94 h -4.475 l -2.275,3.94 2.275,3.94 h 4.55 l 2.275,-3.94 -2.275,-3.94 z m 2.704,-4.844 a 10.06,10.06 0 0 1 3.88,13.688 10.06,10.06 0 0 1 -13.688,3.88 10.06,10.06 0 0 1 -5.156,-8.784 10.06,10.06 0 0 1 2.946,-7.114 10.06,10.06 0 0 1 7.114,-2.946 10.06,10.06 0 0 1 4.904,1.276 z"
       style="stroke:#ff0000;stroke-width:1;stroke-miterlimit:4;stroke-dasharray:none;stroke-opacity:1" />
  </g>
  <g
     transform="translate(-1357.8653,22.617084)"
     id="Setup14"
     style="stroke:#ff0000;stroke-width:1;stroke-miterlimit:4;stroke-dasharray:none;stroke-opacity:1">
    <path
       id="op_2D_Profile15-256-13"
       fill="none"
       stroke="rgb(255,0,0)"
       stroke-width="0.1"
       d="m 1367.44,-5.18 v -2.56 h -9.88 v 2.68 h 9.88 z m 4.62,0 V 0 A 0.06,0.06 0 0 1 1372,0.06 h -19 A 0.06,0.06 0 0 1 1352.94,0 v -12.74 h -2.74 a 0.06,0.06 0 0 1 -0.06,-0.06 v -15 a 0.06,0.06 0 0 1 0.06,-0.06 h 2.74 v -24.88 h -2.74 a 0.06,0.06 0 0 1 -0.06,-0.06 v -10 a 0.06,0.06 0 0 1 0.06,-0.06 h 21.8 a 0.06,0.06 0 0 1 0.06,0.06 v 34.94 h 2.74 a 0.06,0.06 0 0 1 0.06,0.06 v 15 a 0.06,0.06 0 0 1 -0.06,0.06 h -2.74 z"
       style="stroke:#ff0000;stroke-width:1;stroke-miterlimit:4;stroke-dasharray:none;stroke-opacity:1" />
  </g>
  <g
     transform="translate(-1096.3029,-112.8961)"
     id="Setup15"
     style="stroke:#ff0000;stroke-width:1;stroke-miterlimit:4;stroke-dasharray:none;stroke-opacity:1">
    <path
       id="op_2D_Profile16-258-14"
       fill="none"
       stroke="rgb(255,0,0)"
       stroke-width="0.1"
       d="m 1392.86,-58.063 v 14.76 h 2.68 v -14.88 h -2.68 z m -2.52,0 v -30.82 h -5.54 a 0.06,0.06 0 0 1 -0.06,-0.06 v -12.8 a 0.06,0.06 0 0 1 0.06,-0.06 h 2.74 v -2.684 a 0.06,0.06 0 0 1 0.06,-0.06 h 9 a 0.06,0.06 0 0 1 0.027,0.007 l 4,2 a 0.06,0.06 0 0 1 0.033,0.053 v 36.444 a 0.06,0.06 0 0 1 -0.06,0.06 h -4.94 v 2.68 h 4.94 a 0.06,0.06 0 0 1 0.06,0.06 v 24 a 2.06,2.06 0 0 1 -2.06,2.06 h -1 a 1.94,1.94 0 0 0 -1.94,1.94 V -1 a 0.06,0.06 0 0 1 -0.041,0.057 l -3,1 -0.01,0.002 -0.01,0.001 h -0.01 -5 A 0.06,0.06 0 0 1 1387.54,0 v -1.683 h -2.74 a 0.06,0.06 0 0 1 -0.06,-0.06 v -10 a 0.06,0.06 0 0 1 0.06,-0.06 h 5.54 z"
       style="stroke:#ff0000;stroke-width:1;stroke-miterlimit:4;stroke-dasharray:none;stroke-opacity:1" />
  </g>
  <g
     transform="rotate(180,874.66682,-109.30552)"
     id="Setup16"
     style="stroke:#ff0000;stroke-width:1;stroke-miterlimit:4;stroke-dasharray:none;stroke-opacity:1">
    <path
       id="op_2D_Profile18-262-15"
       fill="none"
       stroke="rgb(255,0,0)"
       stroke-width="0.1"
       d="m 1415.66,-43.423 v 0.12 h 2.68 v -14.88 h -2.68 z m 0,25.36 v 9.76 h 2.68 v -9.88 h -2.68 z m -5.12,0 v -45.18 a 0.06,0.06 0 0 1 0.06,-0.06 h 4.94 v -2.68 h -4.94 a 0.06,0.06 0 0 1 -0.06,-0.06 v -36.444 a 0.06,0.06 0 0 1 0.033,-0.053 l 4,-2 a 0.06,0.06 0 0 1 0.027,-0.007 h 9 a 0.06,0.06 0 0 1 0.06,0.06 v 2.684 h 2.74 a 0.06,0.06 0 0 1 0.06,0.06 v 12.8 a 0.06,0.06 0 0 1 -0.06,0.06 h -5.54 v 77.08 h 5.54 a 0.06,0.06 0 0 1 0.06,0.06 v 10 a 0.06,0.06 0 0 1 -0.06,0.06 h -2.74 V 0 a 0.06,0.06 0 0 1 -0.06,0.06 h -9 a 0.06,0.06 0 0 1 -0.027,-0.006 l -4,-2 A 0.06,0.06 0 0 1 1410.54,-2 Z"
       style="stroke:#ff0000;stroke-width:1;stroke-miterlimit:4;stroke-dasharray:none;stroke-opacity:1" />
  </g>
  <g
     transform="translate(-1065.5326,-60.63394)"
     id="Setup17"
     style="stroke:#ff0000;stroke-width:1;stroke-miterlimit:4;stroke-dasharray:none;stroke-opacity:1">
    <path
       id="op_2D_Profile17-261-16"
       fill="none"
       stroke="rgb(255,0,0)"
       stroke-width="0.1"
       d="m 1448.875,-138.553 a 2.19,2.19 0 0 0 2.19,-2.19 2.19,2.19 0 0 0 -2.19,-2.19 2.19,2.19 0 0 0 -2.19,2.19 2.19,2.19 0 0 0 2.19,2.19 z m 0,121.62 a 2.19,2.19 0 0 0 -2.19,2.19 2.19,2.19 0 0 0 2.19,2.19 2.19,2.19 0 0 0 2.19,-2.19 2.19,2.19 0 0 0 -2.19,-2.19 z m -4.667,5.852 -5.045,-4.024 a 0.06,0.06 0 0 1 -0.023,-0.047 v -22.531 h -2.74 a 0.06,0.06 0 0 1 -0.06,-0.06 v -77.2 a 0.06,0.06 0 0 1 0.06,-0.06 h 2.74 v -25.332 a 0.06,0.06 0 0 1 0.023,-0.047 l 19,-15.152 a 0.06,0.06 0 0 1 0.084,0.01 0.06,0.06 0 0 1 0.013,0.037 v 40.484 h 2.74 a 0.06,0.06 0 0 1 0.06,0.06 v 77.2 a 0.06,0.06 0 0 1 -0.06,0.06 h -2.74 V 0 a 0.06,0.06 0 0 1 -0.06,0.06 0.06,0.06 0 0 1 -0.037,-0.013 z"
       style="stroke:#ff0000;stroke-width:1;stroke-miterlimit:4;stroke-dasharray:none;stroke-opacity:1" />
  </g>
  <g
     transform="translate(-1320.3643,-376.23377)"
     id="Setup18"
     style="stroke:#ff0000;stroke-width:1;stroke-miterlimit:4;stroke-dasharray:none;stroke-opacity:1">
    <path
       id="op_2D_Profile19-264-17"
       fill="none"
       stroke="rgb(255,0,0)"
       stroke-width="0.1"
       d="m 1480.675,-19.666 a 2.69,2.69 0 0 0 -2.69,2.69 2.69,2.69 0 0 0 2.69,2.69 2.69,2.69 0 0 0 2.69,-2.69 2.69,2.69 0 0 0 -2.69,-2.69 z m 0,-3.527 h 4.765 v -2.68 h -9.88 v 2.68 z m 0,-7.8 H 1490 a 0.06,0.06 0 0 1 0.06,0.06 v 23.64 h 2.74 a 0.06,0.06 0 0 1 0.06,0.06 V 0 a 0.06,0.06 0 0 1 -0.06,0.06 0.06,0.06 0 0 1 -0.037,-0.013 l -21.8,-17.385 a 0.06,0.06 0 0 1 -0.023,-0.047 v -13.548 a 0.06,0.06 0 0 1 0.06,-0.06 z"
       style="stroke:#ff0000;stroke-width:1;stroke-miterlimit:4;stroke-dasharray:none;stroke-opacity:1" />
  </g>
  <g
     transform="translate(-1348.8556,-6.2346075)"
     id="Setup19"
     style="stroke:#ff0000;stroke-width:1;stroke-miterlimit:4;stroke-dasharray:none;stroke-opacity:1">
    <path
       id="op_2D_Profile20-266-18"
       fill="none"
       stroke="rgb(255,0,0)"
       stroke-width="0.1"
       d="m 1512.475,-11.267 a 2.69,2.69 0 0 0 2.69,-2.69 2.69,2.69 0 0 0 -2.69,-2.69 2.69,2.69 0 0 0 -2.69,2.69 2.69,2.69 0 0 0 2.69,2.69 z m 0,3.527 h -5.115 v 2.68 h 9.88 v -2.68 z m 0,7.8 H 1502.8 A 0.06,0.06 0 0 1 1502.74,0 v -13.548 a 0.06,0.06 0 0 1 0.023,-0.047 l 21.8,-17.385 a 0.06,0.06 0 0 1 0.084,0.01 0.06,0.06 0 0 1 0.013,0.037 v 7.233 a 0.06,0.06 0 0 1 -0.06,0.06 h -2.74 V 0 a 0.06,0.06 0 0 1 -0.06,0.06 z"
       style="stroke:#ff0000;stroke-width:1;stroke-miterlimit:4;stroke-dasharray:none;stroke-opacity:1" />
  </g>
  <g
     transform="translate(-1182.2376,81.192442)"
     id="Setup20"
     style="stroke:#ff0000;stroke-width:1;stroke-miterlimit:4;stroke-dasharray:none;stroke-opacity:1">
    <path
       id="op_2D_Profile22-269-19"
       fill="none"
       stroke="rgb(255,0,0)"
       stroke-width="0.1"
       d="m 1561.35,-40.86 a 0.06,0.06 0 0 1 0.06,0.06 v 2.74 h 16.69 a 0.06,0.06 0 0 1 0.06,0.06 V 0 a 0.06,0.06 0 0 1 -0.06,0.06 h -43.5 A 0.06,0.06 0 0 1 1534.54,0 v -38 a 0.06,0.06 0 0 1 0.06,-0.06 h 16.69 v -2.74 a 0.06,0.06 0 0 1 0.06,-0.06 z"
       style="stroke:#ff0000;stroke-width:1;stroke-miterlimit:4;stroke-dasharray:none;stroke-opacity:1" />
  </g>
  <g
     transform="translate(-1284.0217,81.042421)"
     id="Setup21"
     style="stroke:#ff0000;stroke-width:1;stroke-miterlimit:4;stroke-dasharray:none;stroke-opacity:1">
    <path
       id="op_2D_Profile23-271-20"
       fill="none"
       stroke="rgb(255,0,0)"
       stroke-width="0.1"
       d="m 1614.85,-40.86 a 0.06,0.06 0 0 1 0.06,0.06 v 2.74 h 16.69 a 0.06,0.06 0 0 1 0.06,0.06 V 0 a 0.06,0.06 0 0 1 -0.06,0.06 h -43.5 A 0.06,0.06 0 0 1 1588.04,0 v -38 a 0.06,0.06 0 0 1 0.06,-0.06 h 16.69 v -2.74 a 0.06,0.06 0 0 1 0.06,-0.06 z"
       style="stroke:#ff0000;stroke-width:1;stroke-miterlimit:4;stroke-dasharray:none;stroke-opacity:1" />
  </g>
  <g
     transform="translate(-1615.4966,81.23661)"
     id="Setup22"
     style="stroke:#ff0000;stroke-width:1;stroke-miterlimit:4;stroke-dasharray:none;stroke-opacity:1">
    <path
       id="op_2D_Profile24-273-21"
       fill="none"
       stroke="rgb(255,0,0)"
       stroke-width="0.1"
       d="m 1668.35,-40.86 a 0.06,0.06 0 0 1 0.06,0.06 v 2.74 h 16.69 a 0.06,0.06 0 0 1 0.06,0.06 V 0 a 0.06,0.06 0 0 1 -0.06,0.06 h -43.5 A 0.06,0.06 0 0 1 1641.54,0 v -38 a 0.06,0.06 0 0 1 0.06,-0.06 h 16.69 v -2.74 a 0.06,0.06 0 0 1 0.06,-0.06 z"
       style="stroke:#ff0000;stroke-width:1;stroke-miterlimit:4;stroke-dasharray:none;stroke-opacity:1" />
  </g>
  <g
     transform="rotate(180,974.97858,19.942413)"
     id="Setup23"
     style="stroke:#ff0000;stroke-width:1;stroke-miterlimit:4;stroke-dasharray:none;stroke-opacity:1">
    <path
       id="op_2D_Profile25-275-22"
       fill="none"
       stroke="rgb(255,0,0)"
       stroke-width="0.1"
       d="M 1711.85,0.06 A 0.06,0.06 0 0 1 1711.79,0 v -2.74 h -16.69 a 0.06,0.06 0 0 1 -0.06,-0.06 v -38 a 0.06,0.06 0 0 1 0.06,-0.06 h 43.5 a 0.06,0.06 0 0 1 0.06,0.06 v 38 a 0.06,0.06 0 0 1 -0.06,0.06 h -16.69 V 0 a 0.06,0.06 0 0 1 -0.06,0.06 z"
       style="stroke:#ff0000;stroke-width:1;stroke-miterlimit:4;stroke-dasharray:none;stroke-opacity:1" />
  </g>
  <g
     transform="rotate(180,1024.8171,19.77517)"
     id="Setup24"
     style="stroke:#ff0000;stroke-width:1;stroke-miterlimit:4;stroke-dasharray:none;stroke-opacity:1">
    <path
       id="op_2D_Profile26-277-23"
       fill="none"
       stroke="rgb(255,0,0)"
       stroke-width="0.1"
       d="M 1765.35,0.06 A 0.06,0.06 0 0 1 1765.29,0 v -2.74 h -16.69 a 0.06,0.06 0 0 1 -0.06,-0.06 v -38 a 0.06,0.06 0 0 1 0.06,-0.06 h 43.5 a 0.06,0.06 0 0 1 0.06,0.06 v 38 a 0.06,0.06 0 0 1 -0.06,0.06 h -16.69 V 0 a 0.06,0.06 0 0 1 -0.06,0.06 z"
       style="stroke:#ff0000;stroke-width:1;stroke-miterlimit:4;stroke-dasharray:none;stroke-opacity:1" />
  </g>
  <g
     transform="rotate(180,1099.3806,-23.951099)"
     id="Setup25"
     style="stroke:#ff0000;stroke-width:1;stroke-miterlimit:4;stroke-dasharray:none;stroke-opacity:1">
    <path
       id="op_2D_Profile27-279-24"
       fill="none"
       stroke="rgb(255,0,0)"
       stroke-width="0.1"
       d="M 1818.85,0.06 A 0.06,0.06 0 0 1 1818.79,0 v -2.74 h -16.69 a 0.06,0.06 0 0 1 -0.06,-0.06 v -38 a 0.06,0.06 0 0 1 0.06,-0.06 h 43.5 a 0.06,0.06 0 0 1 0.06,0.06 v 38 a 0.06,0.06 0 0 1 -0.06,0.06 h -16.69 V 0 a 0.06,0.06 0 0 1 -0.06,0.06 z"
       style="stroke:#ff0000;stroke-width:1;stroke-miterlimit:4;stroke-dasharray:none;stroke-opacity:1" />
  </g>
  <g
     transform="translate(-1671.8304,-153.43362)"
     id="Setup26"
     style="stroke:#ff0000;stroke-width:1;stroke-miterlimit:4;stroke-dasharray:none;stroke-opacity:1">
    <path
       id="op_2D_Profile28-281-25"
       fill="none"
       stroke="rgb(255,0,0)"
       stroke-width="0.1"
       d="m 1860.66,-9 a 4.94,4.94 0 0 0 4.94,4.94 4.94,4.94 0 0 0 3.94,-1.96 v -5.96 a 4.94,4.94 0 0 0 -6.92,-0.96 4.94,4.94 0 0 0 -1.96,3.94 z m -5.12,0 v -9 a 0.06,0.06 0 0 1 0.06,-0.06 h 20 a 0.06,0.06 0 0 1 0.06,0.06 V 0 a 0.06,0.06 0 0 1 -0.06,0.06 h -20 A 0.06,0.06 0 0 1 1855.54,0 Z"
       style="stroke:#ff0000;stroke-width:1;stroke-miterlimit:4;stroke-dasharray:none;stroke-opacity:1" />
  </g>
  <g
     transform="rotate(90,1263.7497,-1025.9926)"
     id="Setup27"
     style="stroke:#ff0000;stroke-width:1;stroke-miterlimit:4;stroke-dasharray:none;stroke-opacity:1">
    <path
       id="op_2D_Profile30-284-26"
       fill="none"
       stroke="rgb(255,0,0)"
       stroke-width="0.1"
       d="m 1902.46,-131.967 v 0.12 h 9.88 v -2.68 h -9.88 z m -6.12,62.544 v -14.76 h -2.68 v 14.88 h 2.68 z m 4.12,45.903 v 2.56 h 11.88 v -2.68 h -11.88 z m 0,-2.54 h 25.94 a 0.06,0.06 0 0 1 0.06,0.06 v 7.457 a 0.06,0.06 0 0 1 -0.06,0.06 h -7.44 v 2.68 h 7.44 a 0.06,0.06 0 0 1 0.06,0.06 V 0 a 0.06,0.06 0 0 1 -0.06,0.06 h -35.2 A 0.06,0.06 0 0 1 1891.14,0 v -4.94 h -2.74 A 0.06,0.06 0 0 1 1888.34,-5 v -2.683 h -2.74 a 0.06,0.06 0 0 1 -0.06,-0.06 v -10 a 0.06,0.06 0 0 1 0.06,-0.06 h 2.74 v -39.88 h -2.74 a 0.06,0.06 0 0 1 -0.06,-0.06 v -10 a 0.06,0.06 0 0 1 0.06,-0.06 h 2.74 v -19.88 h -2.74 a 0.06,0.06 0 0 1 -0.06,-0.06 v -10 a 0.06,0.06 0 0 1 0.06,-0.06 h 2.74 v -37.08 h -2.74 a 0.06,0.06 0 0 1 -0.06,-0.06 v -12.8 a 0.06,0.06 0 0 1 0.06,-0.06 h 2.74 v -2.684 a 0.06,0.06 0 0 1 0.06,-0.06 h 2.74 v -4.94 a 0.06,0.06 0 0 1 0.06,-0.06 h 35.2 a 0.06,0.06 0 0 1 0.06,0.06 v 25 a 0.06,0.06 0 0 1 -0.06,0.06 h -24 a 1.94,1.94 0 0 0 -1.94,1.94 v 28.244 a 1.94,1.94 0 0 0 1.94,1.94 h 11 a 0.06,0.06 0 0 1 0.06,0.06 v 6.2 a 0.06,0.06 0 0 1 -0.06,0.06 h -9.94 v 2.68 h 9.94 a 0.06,0.06 0 0 1 0.06,0.06 v 7 a 0.06,0.06 0 0 1 -0.06,0.06 h -11 a 1.94,1.94 0 0 0 -1.94,1.94 V -64.7 a 2.06,2.06 0 0 1 -2.06,2.06 1.94,1.94 0 0 0 -1.94,1.94 V -28 a 1.94,1.94 0 0 0 1.94,1.94 z"
       style="stroke:#ff0000;stroke-width:1;stroke-miterlimit:4;stroke-dasharray:none;stroke-opacity:1" />
  </g>
  <g
     transform="rotate(-90,1032.0505,637.97961)"
     id="Setup28"
     style="stroke:#ff0000;stroke-width:1;stroke-miterlimit:4;stroke-dasharray:none;stroke-opacity:1">
    <path
       id="op_2D_Profile31-286-27"
       fill="none"
       stroke="rgb(255,0,0)"
       stroke-width="0.1"
       d="m 1960.34,-114.786 v -2.56 h -9.88 v 2.68 h 9.88 z m 6.24,62.663 h 2.56 v -14.88 h -2.68 v 14.88 z m -0.12,25.24 v 9.76 h 2.68 v -9.88 h -2.68 z m -6.12,20.543 v -0.12 h -11.88 v 2.68 h 11.88 z m 0,6.4 H 1943.9 A 0.06,0.06 0 0 1 1943.84,0 v -1.303 h -7.44 a 0.06,0.06 0 0 1 -0.06,-0.06 V -8.82 a 0.06,0.06 0 0 1 0.06,-0.06 h 8.986 l 3.954,-1.977 V -22.82 a 0.06,0.06 0 0 1 0.06,-0.06 h 11 a 1.94,1.94 0 0 0 1.94,-1.94 v -38.243 a 1.94,1.94 0 0 0 -1.94,-1.94 h -11 a 0.06,0.06 0 0 1 -0.06,-0.06 v -7 a 0.06,0.06 0 0 1 0.06,-0.06 h 9.94 v -2.68 h -9.94 a 0.06,0.06 0 0 1 -0.06,-0.06 v -6.2 a 0.06,0.06 0 0 1 0.06,-0.06 h 11 a 1.94,1.94 0 0 0 1.94,-1.94 v -28.243 a 1.94,1.94 0 0 0 -1.94,-1.94 h -24 a 0.06,0.06 0 0 1 -0.06,-0.06 v -7.82 a 0.06,0.06 0 0 1 0.06,-0.06 h 38 a 0.06,0.06 0 0 1 0.06,0.06 v 5.503 h 2.74 a 0.06,0.06 0 0 1 0.06,0.06 v 12.8 a 0.06,0.06 0 0 1 -0.06,0.06 h -2.74 v 17.08 h 2.74 a 0.06,0.06 0 0 1 0.06,0.06 v 10 a 0.06,0.06 0 0 1 -0.06,0.06 h -2.74 v 29.88 h 2.74 a 0.06,0.06 0 0 1 0.06,0.06 v 10 a 0.06,0.06 0 0 1 -0.06,0.06 h -2.74 v 19.88 h 2.74 a 0.06,0.06 0 0 1 0.06,0.06 v 10 a 0.06,0.06 0 0 1 -0.06,0.06 h -2.74 V 0 a 0.06,0.06 0 0 1 -0.06,0.06 z"
       style="stroke:#ff0000;stroke-width:1;stroke-miterlimit:4;stroke-dasharray:none;stroke-opacity:1" />
  </g>
  <g
     transform="translate(-1780.8227,-50.116028)"
     id="Setup29"
     style="stroke:#ff0000;stroke-width:1;stroke-miterlimit:4;stroke-dasharray:none;stroke-opacity:1">
    <path
       id="op_2D_Profile32-288-28"
       fill="none"
       stroke="rgb(255,0,0)"
       stroke-width="0.1"
       d="m 1994.56,-7.62 v 2.56 h 9.88 v -2.68 h -9.88 z m -4.62,0 v -5.12 h -2.74 a 0.06,0.06 0 0 1 -0.06,-0.06 v -15 a 0.06,0.06 0 0 1 0.06,-0.06 h 2.74 v -45.483 a 0.06,0.06 0 0 1 0.06,-0.06 h 5.69 v -2.74 a 0.06,0.06 0 0 1 0.06,-0.06 h 7.5 a 0.06,0.06 0 0 1 0.06,0.06 v 2.74 h 5.69 a 0.06,0.06 0 0 1 0.06,0.06 v 10.483 h 2.74 a 0.06,0.06 0 0 1 0.06,0.06 v 10 a 0.06,0.06 0 0 1 -0.06,0.06 h -2.74 v 24.88 h 2.74 a 0.06,0.06 0 0 1 0.06,0.06 v 15 a 0.06,0.06 0 0 1 -0.06,0.06 h -2.74 V 0 A 0.06,0.06 0 0 1 2009,0.06 h -19 A 0.06,0.06 0 0 1 1989.94,0 Z"
       style="stroke:#ff0000;stroke-width:1;stroke-miterlimit:4;stroke-dasharray:none;stroke-opacity:1" />
  </g>
  <g
     transform="rotate(-90,1058.0887,710.52507)"
     id="Setup30"
     style="stroke:#ff0000;stroke-width:1;stroke-miterlimit:4;stroke-dasharray:none;stroke-opacity:1">
    <path
       id="op_2D_Profile33-290-29"
       fill="none"
       stroke="rgb(255,0,0)"
       stroke-width="0.1"
       d="m 2046.46,-17.8 a 0.06,0.06 0 0 1 -0.06,0.06 h -2.74 v 6.94 a 0.06,0.06 0 0 1 -0.06,0.06 h -4.44 V 0 a 0.06,0.06 0 0 1 -0.06,0.06 h -10 A 0.06,0.06 0 0 1 2029.04,0 v -10.74 h -4.44 a 0.06,0.06 0 0 1 -0.06,-0.06 v -6.94 h -2.74 a 0.06,0.06 0 0 1 -0.06,-0.06 v -15 a 0.06,0.06 0 0 1 0.06,-0.06 h 7.24 V -36 a 0.06,0.06 0 0 1 0.018,-0.042 l 2,-2 a 0.06,0.06 0 0 1 0.042,-0.018 h 6 a 0.06,0.06 0 0 1 0.042,0.018 l 2,2 a 0.06,0.06 0 0 1 0.018,0.042 v 3.14 h 7.24 a 0.06,0.06 0 0 1 0.06,0.06 z"
       style="stroke:#ff0000;stroke-width:1;stroke-miterlimit:4;stroke-dasharray:none;stroke-opacity:1" />
  </g>
  <g
     transform="matrix(-1.004265,0,0,-0.99661656,2340.4571,-379.75652)"
     id="Setup32"
     style="stroke:#ff0000;stroke-width:1;stroke-miterlimit:4;stroke-dasharray:none;stroke-opacity:1">
    <path
       id="op_2D_Profile35-294-30"
       fill="none"
       stroke="rgb(255,0,0)"
       stroke-width="0.1"
       d="m 2021.8787,-15.639935 a 1.69,1.69 0 0 0 -1.69,1.69 1.69,1.69 0 0 0 1.69,1.69 h 4 a 1.69,1.69 0 0 0 1.69,-1.69 1.69,1.69 0 0 0 -1.69,-1.69 z m -7.56,-3.49 v -11.02 a 0.06,0.06 0 0 1 0.06,-0.06 h 19 a 0.06,0.06 0 0 1 0.06,0.06 v 11.14 h 2.74 a 0.06,0.06 0 0 1 0.06,0.06 v 10.0000002 a 0.06,0.06 0 0 1 -0.06,0.06 h -2.74 v 11.14 a 0.06,0.06 0 0 1 -0.06,0.06 h -4.44 v 2.54 a 0.06,0.06 0 0 1 -0.06,0.06 h -10 a 0.06,0.06 0 0 1 -0.06,-0.06 v -2.54 h -4.44 a 0.06,0.06 0 0 1 -0.06,-0.06 v -11.14 h -2.74 a 0.06,0.06 0 0 1 -0.06,-0.06 V -18.949935 a 0.06,0.06 0 0 1 0.06,-0.06 h 2.74 z"
       style="stroke:#ff0000;stroke-width:1;stroke-miterlimit:4;stroke-dasharray:none;stroke-opacity:1" />
  </g>
  <g
     transform="matrix(-1.004265,0,0,-0.99661656,2284.6024,-287.77517)"
     id="Setup32-3"
     style="stroke:#ff0000;stroke-width:1;stroke-miterlimit:4;stroke-dasharray:none;stroke-opacity:1">
    <path
       id="op_2D_Profile35-294-30-6"
       fill="none"
       stroke="rgb(255,0,0)"
       stroke-width="0.1"
       d="m 2021.8787,-15.639935 a 1.69,1.69 0 0 0 -1.69,1.69 1.69,1.69 0 0 0 1.69,1.69 h 4 a 1.69,1.69 0 0 0 1.69,-1.69 1.69,1.69 0 0 0 -1.69,-1.69 z m -7.56,-3.49 v -11.02 a 0.06,0.06 0 0 1 0.06,-0.06 h 19 a 0.06,0.06 0 0 1 0.06,0.06 v 11.14 h 2.74 a 0.06,0.06 0 0 1 0.06,0.06 v 10.0000002 a 0.06,0.06 0 0 1 -0.06,0.06 h -2.74 v 11.14 a 0.06,0.06 0 0 1 -0.06,0.06 h -4.44 v 2.54 a 0.06,0.06 0 0 1 -0.06,0.06 h -10 a 0.06,0.06 0 0 1 -0.06,-0.06 v -2.54 h -4.44 a 0.06,0.06 0 0 1 -0.06,-0.06 v -11.14 h -2.74 a 0.06,0.06 0 0 1 -0.06,-0.06 V -18.949935 a 0.06,0.06 0 0 1 0.06,-0.06 h 2.74 z"
       style="stroke:#ff0000;stroke-width:1;stroke-miterlimit:4;stroke-dasharray:none;stroke-opacity:1" />
  </g>
  <g
     transform="translate(-1749.3908,-332.50731)"
     id="Setup33"
     style="stroke:#ff0000;stroke-width:1;stroke-miterlimit:4;stroke-dasharray:none;stroke-opacity:1">
    <path
       id="op_2D_Profile36-296-31"
       fill="none"
       stroke="rgb(255,0,0)"
       stroke-width="0.1"
       d="m 2101.61,-27.26 h 5.38 v -2.68 h -7.38 v 2.68 z m 0,9.37 h -0.31 a 1.69,1.69 0 0 0 -1.69,1.69 1.69,1.69 0 0 0 1.69,1.69 h 4 a 1.69,1.69 0 0 0 1.69,-1.69 1.69,1.69 0 0 0 -1.69,-1.69 z m -7.87,-5.49 v -9.02 a 0.06,0.06 0 0 1 0.06,-0.06 h 4.44 V -35 a 0.06,0.06 0 0 1 0.06,-0.06 h 10 a 0.06,0.06 0 0 1 0.06,0.06 v 2.54 h 4.44 a 0.06,0.06 0 0 1 0.06,0.06 v 11.14 h 2.74 a 0.06,0.06 0 0 1 0.06,0.06 v 12 a 0.06,0.06 0 0 1 -0.06,0.06 h -2.74 V 0 a 0.06,0.06 0 0 1 -0.06,0.06 h -19 A 0.06,0.06 0 0 1 2093.74,0 V -11.14 H 2091 a 0.06,0.06 0 0 1 -0.06,-0.06 v -12 a 0.06,0.06 0 0 1 0.06,-0.06 h 2.74 z"
       style="stroke:#ff0000;stroke-width:1;stroke-miterlimit:4;stroke-dasharray:none;stroke-opacity:1" />
  </g>
  <g
     transform="rotate(180,1200.0966,-35.001732)"
     id="Setup34"
     style="stroke:#ff0000;stroke-width:1;stroke-miterlimit:4;stroke-dasharray:none;stroke-opacity:1">
    <path
       id="op_2D_Profile37-299-32"
       fill="none"
       stroke="rgb(255,0,0)"
       stroke-width="0.1"
       d="m 2143.34,-46.06 v -1.68 h -9.88 v 2.68 h 9.88 z m 8.24,1 h 9.76 v -2.68 h -9.88 v 2.68 z m -1.49,15.06 a 2.69,2.69 0 0 0 -2.69,-2.69 2.69,2.69 0 0 0 -2.69,2.69 2.69,2.69 0 0 0 2.69,2.69 2.69,2.69 0 0 0 2.69,-2.69 z m 1.37,15.18 v 2.56 h 9.88 v -2.68 h -9.88 z m -8.12,0 v -0.12 h -9.88 v 2.68 h 9.88 z m 0,14.88 H 2128.4 A 0.06,0.06 0 0 1 2128.34,0 v -4.94 h -2.74 A 0.06,0.06 0 0 1 2125.54,-5 v -10 a 0.06,0.06 0 0 1 0.06,-0.06 h 2.74 v -29.88 h -2.74 a 0.06,0.06 0 0 1 -0.06,-0.06 v -10 a 0.06,0.06 0 0 1 0.06,-0.06 h 2.74 V -60 a 0.06,0.06 0 0 1 0.06,-0.06 h 38 a 0.06,0.06 0 0 1 0.06,0.06 V 0 a 0.06,0.06 0 0 1 -0.06,0.06 z"
       style="stroke:#ff0000;stroke-width:1;stroke-miterlimit:4;stroke-dasharray:none;stroke-opacity:1" />
  </g>
  <g
     transform="rotate(-90,1242.5409,967.19828)"
     id="Setup36"
     style="stroke:#ff0000;stroke-width:1;stroke-miterlimit:4;stroke-dasharray:none;stroke-opacity:1">
    <path
       id="op_2D_Profile38-301-33"
       fill="none"
       stroke="rgb(255,0,0)"
       stroke-width="0.1"
       d="m 2199.46,-39.12 v 2.56 h 9.88 v -2.68 h -9.88 z m -8.12,2.44 v -2.56 h -9.88 v 2.68 h 9.88 z m 5.037,17.686 a 2.69,2.69 0 0 0 1.529,-3.483 2.69,2.69 0 0 0 -3.483,-1.529 2.69,2.69 0 0 0 -1.529,3.483 2.69,2.69 0 0 0 3.483,1.529 z m 3.083,12.674 v 2.56 h 9.88 v -2.68 h -9.88 z m -8.12,0 v -0.12 h -9.88 v 2.68 h 9.88 z m 0,6.38 H 2176.4 A 0.06,0.06 0 0 1 2176.34,0 v -43 a 0.06,0.06 0 0 1 0.06,-0.06 h 38 a 0.06,0.06 0 0 1 0.06,0.06 v 16.44 h 2.74 a 0.06,0.06 0 0 1 0.06,0.06 v 10 a 0.06,0.06 0 0 1 -0.06,0.06 h -2.74 V 0 a 0.06,0.06 0 0 1 -0.06,0.06 z"
       style="stroke:#ff0000;stroke-width:1;stroke-miterlimit:4;stroke-dasharray:none;stroke-opacity:1" />
  </g>
  <g
     transform="translate(-2033.0261,-49.7884)"
     id="Setup38"
     style="stroke:#ff0000;stroke-width:1;stroke-miterlimit:4;stroke-dasharray:none;stroke-opacity:1">
    <path
       id="op_2D_Profile40-305-34"
       fill="none"
       stroke="rgb(255,0,0)"
       stroke-width="0.1"
       d="m 2227.14,-33 a 0.06,0.06 0 0 1 0.06,-0.06 h 2.74 V -38 a 0.06,0.06 0 0 1 0.06,-0.06 h 3.7 a 0.06,0.06 0 0 1 0.06,0.06 v 4.94 h 2.74 a 0.06,0.06 0 0 1 0.06,0.06 v 10 a 0.06,0.06 0 0 1 -0.06,0.06 h -2.74 v 7.88 h 2.74 a 0.06,0.06 0 0 1 0.06,0.06 v 10 a 0.06,0.06 0 0 1 -0.06,0.06 h -2.74 V 0 a 0.06,0.06 0 0 1 -0.06,0.06 H 2230 A 0.06,0.06 0 0 1 2229.94,0 v -4.94 h -2.74 A 0.06,0.06 0 0 1 2227.14,-5 v -10 a 0.06,0.06 0 0 1 0.06,-0.06 h 2.74 v -7.88 h -2.74 a 0.06,0.06 0 0 1 -0.06,-0.06 z"
       style="stroke:#ff0000;stroke-width:1;stroke-miterlimit:4;stroke-dasharray:none;stroke-opacity:1" />
  </g>
  <g
     transform="translate(-2254.3921,-231.03269)"
     id="Setup39"
     style="stroke:#ff0000;stroke-width:1;stroke-miterlimit:4;stroke-dasharray:none;stroke-opacity:1">
    <path
       id="op_2D_Profile41-307-35"
       fill="none"
       stroke="rgb(255,0,0)"
       stroke-width="0.1"
       d="m 2249.24,-38 a 0.06,0.06 0 0 1 0.06,-0.06 h 3.7 a 0.06,0.06 0 0 1 0.06,0.06 v 4.94 h 2.74 a 0.06,0.06 0 0 1 0.06,0.06 v 10 a 0.06,0.06 0 0 1 -0.06,0.06 h -2.74 v 7.88 h 2.74 a 0.06,0.06 0 0 1 0.06,0.06 v 10 a 0.06,0.06 0 0 1 -0.06,0.06 h -2.74 V 0 A 0.06,0.06 0 0 1 2253,0.06 h -3.7 A 0.06,0.06 0 0 1 2249.24,0 v -4.94 h -2.74 A 0.06,0.06 0 0 1 2246.44,-5 v -10 a 0.06,0.06 0 0 1 0.06,-0.06 h 2.74 v -7.88 h -2.74 a 0.06,0.06 0 0 1 -0.06,-0.06 v -10 a 0.06,0.06 0 0 1 0.06,-0.06 h 2.74 z"
       style="stroke:#ff0000;stroke-width:1;stroke-miterlimit:4;stroke-dasharray:none;stroke-opacity:1" />
  </g>
  <g
     transform="translate(-2093.9634,-385.14705)"
     id="Setup40"
     style="stroke:#ff0000;stroke-width:1;stroke-miterlimit:4;stroke-dasharray:none;stroke-opacity:1">
    <path
       id="op_2D_Profile42-309-36"
       fill="none"
       stroke="rgb(255,0,0)"
       stroke-width="0.1"
       d="m 2278,-13.94 h -4.475 l -2.275,3.94 2.275,3.94 h 4.55 l 2.275,-3.94 -2.275,-3.94 z m 2.704,-4.844 a 10.06,10.06 0 0 1 3.88,13.688 10.06,10.06 0 0 1 -13.688,3.88 10.06,10.06 0 0 1 -5.156,-8.784 10.06,10.06 0 0 1 2.946,-7.114 10.06,10.06 0 0 1 7.114,-2.946 10.06,10.06 0 0 1 4.904,1.276 z"
       style="stroke:#ff0000;stroke-width:1;stroke-miterlimit:4;stroke-dasharray:none;stroke-opacity:1" />
  </g>
  <g
     transform="translate(-2304.9712,-166.62541)"
     id="Setup41"
     style="stroke:#ff0000;stroke-width:1;stroke-miterlimit:4;stroke-dasharray:none;stroke-opacity:1">
    <path
       id="op_2D_Profile43-311-37"
       fill="none"
       stroke="rgb(255,0,0)"
       stroke-width="0.1"
       d="m 2313.04,-5.18 v -2.56 h -9.88 v 2.68 h 9.88 z m 4.62,0 V 0 a 0.06,0.06 0 0 1 -0.06,0.06 h -19 A 0.06,0.06 0 0 1 2298.54,0 v -12.74 h -2.74 a 0.06,0.06 0 0 1 -0.06,-0.06 v -15 a 0.06,0.06 0 0 1 0.06,-0.06 h 2.74 V -62.8 a 0.06,0.06 0 0 1 0.06,-0.06 h 21.8 a 0.06,0.06 0 0 1 0.06,0.06 v 10 a 0.06,0.06 0 0 1 -0.06,0.06 h -2.74 v 24.88 h 2.74 a 0.06,0.06 0 0 1 0.06,0.06 v 15 a 0.06,0.06 0 0 1 -0.06,0.06 h -2.74 z"
       style="stroke:#ff0000;stroke-width:1;stroke-miterlimit:4;stroke-dasharray:none;stroke-opacity:1" />
  </g>
  <g
     transform="translate(-2055.9578,-93.74408)"
     id="Setup42"
     style="stroke:#ff0000;stroke-width:1;stroke-miterlimit:4;stroke-dasharray:none;stroke-opacity:1">
    <path
       id="op_2D_Profile44-313-38"
       fill="none"
       stroke="rgb(255,0,0)"
       stroke-width="0.1"
       d="m 2335.46,-58.063 v 14.76 h 2.68 v -14.88 h -2.68 z m -5.12,0 v -5.18 a 0.06,0.06 0 0 1 0.06,-0.06 h 4.94 v -2.68 h -4.94 a 0.06,0.06 0 0 1 -0.06,-0.06 v -36.444 a 0.06,0.06 0 0 1 0.033,-0.053 l 4,-2 a 0.06,0.06 0 0 1 0.027,-0.007 h 9 a 0.06,0.06 0 0 1 0.06,0.06 v 2.684 h 2.74 a 0.06,0.06 0 0 1 0.06,0.06 v 12.8 a 0.06,0.06 0 0 1 -0.06,0.06 h -5.54 v 77.08 h 5.54 a 0.06,0.06 0 0 1 0.06,0.06 v 10 a 0.06,0.06 0 0 1 -0.06,0.06 h -2.74 V 0 a 0.06,0.06 0 0 1 -0.06,0.06 h -5 -0.01 l -0.01,-0.001 -0.01,-0.002 -3,-1 A 0.06,0.06 0 0 1 2335.34,-1 v -34.243 a 1.94,1.94 0 0 0 -1.94,-1.94 h -1 a 2.06,2.06 0 0 1 -2.06,-2.06 z"
       style="stroke:#ff0000;stroke-width:1;stroke-miterlimit:4;stroke-dasharray:none;stroke-opacity:1" />
  </g>
  <g
     transform="rotate(180,1340.2401,-102.00458)"
     id="Setup43"
     style="stroke:#ff0000;stroke-width:1;stroke-miterlimit:4;stroke-dasharray:none;stroke-opacity:1">
    <path
       id="op_2D_Profile46-316-39"
       fill="none"
       stroke="rgb(255,0,0)"
       stroke-width="0.1"
       d="m 2366.94,-43.423 v -14.76 h -2.68 v 14.88 h 2.68 z m 0,25.36 v -0.12 h -2.68 v 9.88 h 2.68 z m 5.12,0 V -2 a 0.06,0.06 0 0 1 -0.033,0.054 l -4,2 A 0.06,0.06 0 0 1 2368,0.06 h -9 A 0.06,0.06 0 0 1 2358.94,0 v -1.683 h -2.74 a 0.06,0.06 0 0 1 -0.06,-0.06 v -10 a 0.06,0.06 0 0 1 0.06,-0.06 h 5.54 v -77.08 h -5.54 a 0.06,0.06 0 0 1 -0.06,-0.06 v -12.8 a 0.06,0.06 0 0 1 0.06,-0.06 h 2.74 v -2.684 a 0.06,0.06 0 0 1 0.06,-0.06 h 9 a 0.06,0.06 0 0 1 0.027,0.007 l 4,2 a 0.06,0.06 0 0 1 0.033,0.053 v 36.444 a 0.06,0.06 0 0 1 -0.06,0.06 h -4.94 v 2.68 h 4.94 a 0.06,0.06 0 0 1 0.06,0.06 z"
       style="stroke:#ff0000;stroke-width:1;stroke-miterlimit:4;stroke-dasharray:none;stroke-opacity:1" />
  </g>
  <g
     transform="translate(-2039.0866,-60.632541)"
     id="Setup44"
     style="stroke:#ff0000;stroke-width:1;stroke-miterlimit:4;stroke-dasharray:none;stroke-opacity:1">
    <path
       id="op_2D_Profile47-318-40"
       fill="none"
       stroke="rgb(255,0,0)"
       stroke-width="0.1"
       d="m 2394.125,-138.553 a 2.19,2.19 0 0 0 2.19,-2.19 2.19,2.19 0 0 0 -2.19,-2.19 2.19,2.19 0 0 0 -2.19,2.19 2.19,2.19 0 0 0 2.19,2.19 z m 0,121.62 a 2.19,2.19 0 0 0 -2.19,2.19 2.19,2.19 0 0 0 2.19,2.19 2.19,2.19 0 0 0 2.19,-2.19 2.19,2.19 0 0 0 -2.19,-2.19 z m 4.667,5.852 -13.955,11.128 A 0.06,0.06 0 0 1 2384.753,0.037 0.06,0.06 0 0 1 2384.74,0 V -37.683 H 2382 a 0.06,0.06 0 0 1 -0.06,-0.06 v -77.2 a 0.06,0.06 0 0 1 0.06,-0.06 h 2.74 v -40.484 a 0.06,0.06 0 0 1 0.06,-0.06 0.06,0.06 0 0 1 0.037,0.013 l 19,15.152 a 0.06,0.06 0 0 1 0.023,0.047 v 25.332 h 2.74 a 0.06,0.06 0 0 1 0.06,0.06 v 77.2 a 0.06,0.06 0 0 1 -0.06,0.06 h -2.74 v 22.531 a 0.06,0.06 0 0 1 -0.023,0.047 z"
       style="stroke:#ff0000;stroke-width:1;stroke-miterlimit:4;stroke-dasharray:none;stroke-opacity:1" />
  </g>
  <g
     transform="translate(-2422.8064,-356.32264)"
     id="Setup45"
     style="stroke:#ff0000;stroke-width:1;stroke-miterlimit:4;stroke-dasharray:none;stroke-opacity:1">
    <path
       id="op_2D_Profile48-320-41"
       fill="none"
       stroke="rgb(255,0,0)"
       stroke-width="0.1"
       d="m 2428.775,-19.666 a 2.69,2.69 0 0 0 -2.69,2.69 2.69,2.69 0 0 0 2.69,2.69 2.69,2.69 0 0 0 2.69,-2.69 2.69,2.69 0 0 0 -2.69,-2.69 z m 0,-3.527 h 5.065 v -2.68 h -9.88 v 2.68 z m 0,-7.8 h 9.625 a 0.06,0.06 0 0 1 0.06,0.06 v 13.548 a 0.06,0.06 0 0 1 -0.023,0.047 l -21.8,17.385 A 0.06,0.06 0 0 1 2416.553,0.037 0.06,0.06 0 0 1 2416.54,0 v -7.233 a 0.06,0.06 0 0 1 0.06,-0.06 h 2.74 v -23.64 a 0.06,0.06 0 0 1 0.06,-0.06 z"
       style="stroke:#ff0000;stroke-width:1;stroke-miterlimit:4;stroke-dasharray:none;stroke-opacity:1" />
  </g>
  <g
     transform="translate(-2431.5774,-3.3347304)"
     id="Setup46"
     style="stroke:#ff0000;stroke-width:1;stroke-miterlimit:4;stroke-dasharray:none;stroke-opacity:1">
    <path
       id="op_2D_Profile49-322-42"
       fill="none"
       stroke="rgb(255,0,0)"
       stroke-width="0.1"
       d="m 2460.525,-11.767 a 2.19,2.19 0 0 0 2.19,-2.19 2.19,2.19 0 0 0 -2.19,-2.19 2.19,2.19 0 0 0 -2.19,2.19 2.19,2.19 0 0 0 2.19,2.19 z m 0,4.027 h -4.765 v 2.68 h 9.88 v -2.68 z m 0,7.8 H 2451.2 A 0.06,0.06 0 0 1 2451.14,0 v -23.64 h -2.74 a 0.06,0.06 0 0 1 -0.06,-0.06 v -7.233 a 0.06,0.06 0 0 1 0.06,-0.06 0.06,0.06 0 0 1 0.037,0.013 l 21.8,17.385 a 0.06,0.06 0 0 1 0.023,0.047 V 0 a 0.06,0.06 0 0 1 -0.06,0.06 z"
       style="stroke:#ff0000;stroke-width:1;stroke-miterlimit:4;stroke-dasharray:none;stroke-opacity:1" />
  </g>
  <g
     transform="translate(-2126.7326,37.537788)"
     id="Setup47"
     style="stroke:#ff0000;stroke-width:1;stroke-miterlimit:4;stroke-dasharray:none;stroke-opacity:1">
    <path
       id="op_2D_Profile50-324-43"
       fill="none"
       stroke="rgb(255,0,0)"
       stroke-width="0.1"
       d="m 2507.01,-40.8 v 2.74 h 16.69 a 0.06,0.06 0 0 1 0.06,0.06 V 0 a 0.06,0.06 0 0 1 -0.06,0.06 h -43.5 A 0.06,0.06 0 0 1 2480.14,0 v -38 a 0.06,0.06 0 0 1 0.06,-0.06 h 16.69 v -2.74 a 0.06,0.06 0 0 1 0.06,-0.06 h 10 a 0.06,0.06 0 0 1 0.06,0.06 z"
       style="stroke:#ff0000;stroke-width:1;stroke-miterlimit:4;stroke-dasharray:none;stroke-opacity:1" />
  </g>
  <g
     transform="translate(-2448.8141,39.285391)"
     id="Setup48"
     style="stroke:#ff0000;stroke-width:1;stroke-miterlimit:4;stroke-dasharray:none;stroke-opacity:1">
    <path
       id="op_2D_Profile51-326-44"
       fill="none"
       stroke="rgb(255,0,0)"
       stroke-width="0.1"
       d="m 2560.51,-40.8 v 2.74 h 16.69 a 0.06,0.06 0 0 1 0.06,0.06 V 0 a 0.06,0.06 0 0 1 -0.06,0.06 h -43.5 A 0.06,0.06 0 0 1 2533.64,0 v -38 a 0.06,0.06 0 0 1 0.06,-0.06 h 16.69 v -2.74 a 0.06,0.06 0 0 1 0.06,-0.06 h 10 a 0.06,0.06 0 0 1 0.06,0.06 z"
       style="stroke:#ff0000;stroke-width:1;stroke-miterlimit:4;stroke-dasharray:none;stroke-opacity:1" />
  </g>
  <g
     transform="translate(-2514.9935,81.315576)"
     id="Setup49"
     style="stroke:#ff0000;stroke-width:1;stroke-miterlimit:4;stroke-dasharray:none;stroke-opacity:1">
    <path
       id="op_2D_Profile52-328-45"
       fill="none"
       stroke="rgb(255,0,0)"
       stroke-width="0.1"
       d="m 2614.01,-40.8 v 2.74 h 16.69 a 0.06,0.06 0 0 1 0.06,0.06 V 0 a 0.06,0.06 0 0 1 -0.06,0.06 h -43.5 A 0.06,0.06 0 0 1 2587.14,0 v -38 a 0.06,0.06 0 0 1 0.06,-0.06 h 16.69 v -2.74 a 0.06,0.06 0 0 1 0.06,-0.06 h 10 a 0.06,0.06 0 0 1 0.06,0.06 z"
       style="stroke:#ff0000;stroke-width:1;stroke-miterlimit:4;stroke-dasharray:none;stroke-opacity:1" />
  </g>
  <g
     transform="rotate(180,1401.0711,20.004441)"
     id="Setup50"
     style="stroke:#ff0000;stroke-width:1;stroke-miterlimit:4;stroke-dasharray:none;stroke-opacity:1">
    <path
       id="op_2D_Profile53-330-46"
       fill="none"
       stroke="rgb(255,0,0)"
       stroke-width="0.1"
       d="m 2657.39,0 v -2.74 h -16.69 a 0.06,0.06 0 0 1 -0.06,-0.06 v -38 a 0.06,0.06 0 0 1 0.06,-0.06 h 43.5 a 0.06,0.06 0 0 1 0.06,0.06 v 38 a 0.06,0.06 0 0 1 -0.06,0.06 h -16.69 V 0 a 0.06,0.06 0 0 1 -0.06,0.06 h -10 A 0.06,0.06 0 0 1 2657.39,0 Z"
       style="stroke:#ff0000;stroke-width:1;stroke-miterlimit:4;stroke-dasharray:none;stroke-opacity:1" />
  </g>
  <g
     transform="rotate(180,1433.8843,-1.9047127)"
     id="Setup51"
     style="stroke:#ff0000;stroke-width:1;stroke-miterlimit:4;stroke-dasharray:none;stroke-opacity:1">
    <path
       id="op_2D_Profile54-333-47"
       fill="none"
       stroke="rgb(255,0,0)"
       stroke-width="0.1"
       d="m 2710.89,0 v -2.74 h -16.69 a 0.06,0.06 0 0 1 -0.06,-0.06 v -38 a 0.06,0.06 0 0 1 0.06,-0.06 h 43.5 a 0.06,0.06 0 0 1 0.06,0.06 v 38 a 0.06,0.06 0 0 1 -0.06,0.06 h -16.69 V 0 a 0.06,0.06 0 0 1 -0.06,0.06 h -10 A 0.06,0.06 0 0 1 2710.89,0 Z"
       style="stroke:#ff0000;stroke-width:1;stroke-miterlimit:4;stroke-dasharray:none;stroke-opacity:1" />
  </g>
  <g
     transform="rotate(180,1478.2177,19.945012)"
     id="Setup52"
     style="stroke:#ff0000;stroke-width:1;stroke-miterlimit:4;stroke-dasharray:none;stroke-opacity:1">
    <path
       id="op_2D_Profile55-334-48"
       fill="none"
       stroke="rgb(255,0,0)"
       stroke-width="0.1"
       d="m 2764.39,0 v -2.74 h -16.69 a 0.06,0.06 0 0 1 -0.06,-0.06 v -38 a 0.06,0.06 0 0 1 0.06,-0.06 h 43.5 a 0.06,0.06 0 0 1 0.06,0.06 v 38 a 0.06,0.06 0 0 1 -0.06,0.06 h -16.69 V 0 a 0.06,0.06 0 0 1 -0.06,0.06 h -10 A 0.06,0.06 0 0 1 2764.39,0 Z"
       style="stroke:#ff0000;stroke-width:1;stroke-miterlimit:4;stroke-dasharray:none;stroke-opacity:1" />
  </g>
  <g
     transform="translate(-2458.4408,-369.29313)"
     id="Setup53"
     style="stroke:#ff0000;stroke-width:1;stroke-miterlimit:4;stroke-dasharray:none;stroke-opacity:1">
    <path
       id="op_2D_Profile57-336-49"
       fill="none"
       stroke="rgb(255,0,0)"
       stroke-width="0.1"
       d="m 2816.14,-9 a 4.94,4.94 0 0 0 -4.94,-4.94 4.94,4.94 0 0 0 -3.94,1.96 v 5.96 a 4.94,4.94 0 0 0 6.92,0.96 4.94,4.94 0 0 0 1.96,-3.94 z m 5.12,0 v 9 a 0.06,0.06 0 0 1 -0.06,0.06 h -20 A 0.06,0.06 0 0 1 2801.14,0 v -18 a 0.06,0.06 0 0 1 0.06,-0.06 h 20 a 0.06,0.06 0 0 1 0.06,0.06 z"
       style="stroke:#ff0000;stroke-width:1;stroke-miterlimit:4;stroke-dasharray:none;stroke-opacity:1" />
  </g>
  <g
     transform="rotate(-90,1447.7379,1178.4898)"
     id="Setup54"
     style="stroke:#ff0000;stroke-width:1;stroke-miterlimit:4;stroke-dasharray:none;stroke-opacity:1">
    <path
       id="op_2D_Profile58-339-50"
       fill="none"
       stroke="rgb(255,0,0)"
       stroke-width="0.1"
       d="M 2903.54,-36.58 V -38 a 0.06,0.06 0 0 1 0.06,-0.06 h 6.94 v -2.74 a 0.06,0.06 0 0 1 0.06,-0.06 h 15 a 0.06,0.06 0 0 1 0.06,0.06 v 2.74 h 11.54 a 0.06,0.06 0 0 1 0.06,0.06 v 30.44 h 2.74 a 0.06,0.06 0 0 1 0.06,0.06 V 0 A 0.06,0.06 0 0 1 2940,0.06 h -11.6 A 0.06,0.06 0 0 1 2928.34,0 v -9.94 h -2.68 V 0 a 0.06,0.06 0 0 1 -0.06,0.06 h -80 A 0.06,0.06 0 0 1 2845.54,0 v -9.94 h -2.68 V 0 a 0.06,0.06 0 0 1 -0.06,0.06 h -11.6 A 0.06,0.06 0 0 1 2831.14,0 v -7.5 a 0.06,0.06 0 0 1 0.06,-0.06 h 2.74 V -38 a 0.06,0.06 0 0 1 0.06,-0.06 h 11.54 v -2.74 a 0.06,0.06 0 0 1 0.06,-0.06 h 15 a 0.06,0.06 0 0 1 0.06,0.06 v 2.74 h 6.94 a 0.06,0.06 0 0 1 0.06,0.06 v 1.54 h 35.88 z"
       style="stroke:#ff0000;stroke-width:1;stroke-miterlimit:4;stroke-dasharray:none;stroke-opacity:1" />
  </g>
  <g
     transform="rotate(90,1761.2845,-1478.4933)"
     id="Setup56"
     style="stroke:#ff0000;stroke-width:1;stroke-miterlimit:4;stroke-dasharray:none;stroke-opacity:1">
    <path
       id="op_2D_Profile59-341-51"
       fill="none"
       stroke="rgb(255,0,0)"
       stroke-width="0.1"
       d="m 2990.86,0 a 0.06,0.06 0 0 1 -0.06,0.06 H 2950 A 0.06,0.06 0 0 1 2949.94,0 v -7.5 a 0.06,0.06 0 0 1 0.06,-0.06 h 2.74 V -25.2 a 0.06,0.06 0 0 1 0.06,-0.06 h 27.94 V -28 a 0.06,0.06 0 0 1 0.06,-0.06 h 10 a 0.06,0.06 0 0 1 0.06,0.06 z"
       style="stroke:#ff0000;stroke-width:1;stroke-miterlimit:4;stroke-dasharray:none;stroke-opacity:1" />
  </g>
  <g
     transform="rotate(-90,1552.0771,1529.7064)"
     id="Setup57"
     style="stroke:#ff0000;stroke-width:1;stroke-miterlimit:4;stroke-dasharray:none;stroke-opacity:1">
    <path
       id="op_2D_Profile60-343-52"
       fill="none"
       stroke="rgb(255,0,0)"
       stroke-width="0.1"
       d="m 3000.74,-28 a 0.06,0.06 0 0 1 0.06,-0.06 h 10 a 0.06,0.06 0 0 1 0.06,0.06 v 2.74 h 27.94 a 0.06,0.06 0 0 1 0.06,0.06 v 17.64 h 2.74 a 0.06,0.06 0 0 1 0.06,0.06 V 0 a 0.06,0.06 0 0 1 -0.06,0.06 h -40.8 A 0.06,0.06 0 0 1 3000.74,0 Z"
       style="stroke:#ff0000;stroke-width:1;stroke-miterlimit:4;stroke-dasharray:none;stroke-opacity:1" />
  </g>
  <g
     transform="rotate(-90,1449.3364,1416.4974)"
     id="Setup58"
     style="stroke:#ff0000;stroke-width:1;stroke-miterlimit:4;stroke-dasharray:none;stroke-opacity:1">
    <path
       id="op_2D_Profile61-345-53"
       fill="none"
       stroke="rgb(255,0,0)"
       stroke-width="0.1"
       d="m 3089.66,0 a 0.06,0.06 0 0 1 -0.06,0.06 h -38 A 0.06,0.06 0 0 1 3051.54,0 v -10 a 0.06,0.06 0 0 1 0.06,-0.06 h 40.8 a 0.06,0.06 0 0 1 0.06,0.06 v 5 a 0.06,0.06 0 0 1 -0.06,0.06 h -2.74 z"
       style="stroke:#ff0000;stroke-width:1;stroke-miterlimit:4;stroke-dasharray:none;stroke-opacity:1" />
  </g>
  <g
     transform="translate(-2924.2541,-238.49451)"
     id="Setup59"
     style="stroke:#ff0000;stroke-width:1;stroke-miterlimit:4;stroke-dasharray:none;stroke-opacity:1">
    <path
       id="op_2D_Profile62-347-54"
       fill="none"
       stroke="rgb(255,0,0)"
       stroke-width="0.1"
       d="m 3134.4,-6.06 a 0.06,0.06 0 0 1 0.06,0.06 v 6 a 0.06,0.06 0 0 1 -0.06,0.06 h -32 A 0.06,0.06 0 0 1 3102.34,0 v -6 a 0.06,0.06 0 0 1 0.06,-0.06 h 9.94 V -21 a 0.06,0.06 0 0 1 0.06,-0.06 h 12 a 0.06,0.06 0 0 1 0.06,0.06 v 14.94 z"
       style="stroke:#ff0000;stroke-width:1;stroke-miterlimit:4;stroke-dasharray:none;stroke-opacity:1" />
  </g>
  <g
     transform="rotate(-90,1737.7399,1388.0719)"
     id="Setup60"
     style="stroke:#ff0000;stroke-width:1;stroke-miterlimit:4;stroke-dasharray:none;stroke-opacity:1">
    <path
       id="op_2D_Profile63-349-55"
       fill="none"
       stroke="rgb(255,0,0)"
       stroke-width="0.1"
       d="m 3176.4,-6.06 a 0.06,0.06 0 0 1 0.06,0.06 v 6 a 0.06,0.06 0 0 1 -0.06,0.06 h -32 A 0.06,0.06 0 0 1 3144.34,0 v -6 a 0.06,0.06 0 0 1 0.06,-0.06 h 9.94 V -21 a 0.06,0.06 0 0 1 0.06,-0.06 h 12 a 0.06,0.06 0 0 1 0.06,0.06 v 14.94 z"
       style="stroke:#ff0000;stroke-width:1;stroke-miterlimit:4;stroke-dasharray:none;stroke-opacity:1" />
  </g>
  <g
     transform="translate(-2834.3141,-50.847163)"
     id="Setup61"
     style="stroke:#ff0000;stroke-width:1;stroke-miterlimit:4;stroke-dasharray:none;stroke-opacity:1">
    <path
       id="op_2D_Profile64-351-56"
       fill="none"
       stroke="rgb(255,0,0)"
       stroke-width="0.1"
       d="m 3218.4,-6.06 a 0.06,0.06 0 0 1 0.06,0.06 v 6 a 0.06,0.06 0 0 1 -0.06,0.06 h -32 A 0.06,0.06 0 0 1 3186.34,0 v -6 a 0.06,0.06 0 0 1 0.06,-0.06 h 9.94 V -21 a 0.06,0.06 0 0 1 0.06,-0.06 h 12 a 0.06,0.06 0 0 1 0.06,0.06 v 14.94 z"
       style="stroke:#ff0000;stroke-width:1;stroke-miterlimit:4;stroke-dasharray:none;stroke-opacity:1" />
  </g>
  <g
     transform="rotate(90,1787.9371,-1591.72)"
     id="Setup62"
     style="stroke:#ff0000;stroke-width:1;stroke-miterlimit:4;stroke-dasharray:none;stroke-opacity:1">
    <path
       id="op_2D_Profile65-353-57"
       fill="none"
       stroke="rgb(255,0,0)"
       stroke-width="0.1"
       d="m 3260.4,-6.06 a 0.06,0.06 0 0 1 0.06,0.06 v 6 a 0.06,0.06 0 0 1 -0.06,0.06 h -32 A 0.06,0.06 0 0 1 3228.34,0 v -6 a 0.06,0.06 0 0 1 0.06,-0.06 h 9.94 V -21 a 0.06,0.06 0 0 1 0.06,-0.06 h 12 a 0.06,0.06 0 0 1 0.06,0.06 v 14.94 z"
       style="stroke:#ff0000;stroke-width:1;stroke-miterlimit:4;stroke-dasharray:none;stroke-opacity:1" />
  </g>
  <g
     transform="rotate(-90,1588.6295,1354.9587)"
     id="Setup63"
     style="stroke:#ff0000;stroke-width:1;stroke-miterlimit:4;stroke-dasharray:none;stroke-opacity:1">
    <path
       id="op_2D_Profile66-355-58"
       fill="none"
       stroke="rgb(255,0,0)"
       stroke-width="0.1"
       d="m 3272.7,-28.71 a 0.44,0.44 0 0 0 0.44,-0.44 v -1 a 0.44,0.44 0 0 0 -0.44,-0.44 0.44,0.44 0 0 0 -0.44,0.44 v 1 a 0.44,0.44 0 0 0 0.44,0.44 z m 0.44,17.81 a 0.44,0.44 0 0 0 -0.44,-0.44 0.44,0.44 0 0 0 -0.44,0.44 v 1 a 0.44,0.44 0 0 0 0.44,0.44 0.44,0.44 0 0 0 0.44,-0.44 z m 56.26,0.96 h -40 a 2.44,2.44 0 0 0 -2.44,2.44 2.44,2.44 0 0 0 2.44,2.44 h 40 a 2.44,2.44 0 0 0 2.44,-2.44 2.44,2.44 0 0 0 -2.44,-2.44 z m 16.26,-0.96 v 1 a 0.44,0.44 0 0 0 0.44,0.44 0.44,0.44 0 0 0 0.44,-0.44 v -1 a 0.44,0.44 0 0 0 -0.44,-0.44 0.44,0.44 0 0 0 -0.44,0.44 z m 0.429,-17.81 a 0.44,0.44 0 0 0 0.318,-0.125 0.44,0.44 0 0 0 0.133,-0.315 v -1 a 0.44,0.44 0 0 0 -0.44,-0.44 0.44,0.44 0 0 0 -0.44,0.44 v 1 a 0.44,0.44 0 0 0 0.429,0.44 z m 2.371,0 V -1 a 1.06,1.06 0 0 1 -1.06,1.06 h -76 A 1.06,1.06 0 0 1 3270.34,-1 v -38 a 1.06,1.06 0 0 1 1.06,-1.06 h 25.7 a 0.06,0.06 0 0 1 0.06,0.06 v 15.74 h 4.48 V -40 a 0.06,0.06 0 0 1 0.06,-0.06 h 2.4 a 0.06,0.06 0 0 1 0.06,0.06 v 15.74 h 4.48 V -40 a 0.06,0.06 0 0 1 0.06,-0.06 h 1.4 a 0.06,0.06 0 0 1 0.06,0.06 v 15.74 h 4.48 V -40 a 0.06,0.06 0 0 1 0.06,-0.06 h 2.4 a 0.06,0.06 0 0 1 0.06,0.06 v 15.74 h 4.48 V -40 a 0.06,0.06 0 0 1 0.06,-0.06 h 25.7 a 1.06,1.06 0 0 1 1.06,1.06 z"
       style="stroke:#ff0000;stroke-width:1;stroke-miterlimit:4;stroke-dasharray:none;stroke-opacity:1" />
  </g>
  <g
     transform="translate(-3150.1668,-138.19279)"
     id="Setup64"
     style="stroke:#ff0000;stroke-width:1;stroke-miterlimit:4;stroke-dasharray:none;stroke-opacity:1">
    <path
       id="op_2D_Profile67-358-59"
       fill="none"
       stroke="rgb(255,0,0)"
       stroke-width="0.1"
       d="m 3387.488,-28.41 h 5.569 a 4.44,4.44 0 0 0 0.633,-6.247 4.44,4.44 0 0 0 -0.633,-0.633 h -5.614 a 4.44,4.44 0 0 0 -0.633,6.247 4.44,4.44 0 0 0 0.633,0.633 z m -17.217,21.441 a 31.91,31.91 0 0 1 -4.902,-44.86 31.91,31.91 0 0 1 44.86,-4.902 31.91,31.91 0 0 1 4.902,44.86 31.91,31.91 0 0 1 -44.86,4.902 z"
       style="stroke:#ff0000;stroke-width:1;stroke-miterlimit:4;stroke-dasharray:none;stroke-opacity:1" />
  </g>
  <g
     transform="translate(-3282.2002,-172.77607)"
     id="Setup66"
     style="stroke:#ff0000;stroke-width:1;stroke-miterlimit:4;stroke-dasharray:none;stroke-opacity:1">
    <path
       id="op_2D_Profile68-360-60"
       fill="none"
       stroke="rgb(255,0,0)"
       stroke-width="0.1"
       d="m 3483.395,-20.666 a 0.94,0.94 0 0 0 0.365,1.278 0.94,0.94 0 0 0 1.278,-0.366 0.94,0.94 0 0 0 -0.365,-1.278 0.94,0.94 0 0 0 -1.278,0.366 z m -15.005,-11.249 a 4.44,4.44 0 0 0 -1.633,-3.375 h -5.614 a 4.44,4.44 0 0 0 -0.633,6.247 4.44,4.44 0 0 0 0.633,0.633 h 5.614 a 4.44,4.44 0 0 0 1.633,-3.505 z m 14.834,-11.666 a 0.94,0.94 0 0 0 0.94,0.939 0.94,0.94 0 0 0 0.94,-0.939 0.94,0.94 0 0 0 -0.94,-0.94 0.94,0.94 0 0 0 -0.94,0.94 z m -19.327,-10.7 a 0.94,0.94 0 0 0 0.94,-0.94 0.94,0.94 0 0 0 -0.94,-0.94 0.94,0.94 0 0 0 -0.94,0.94 0.94,0.94 0 0 0 0.94,0.94 z m -19.392,11.247 a 0.94,0.94 0 0 0 -0.365,-1.278 0.94,0.94 0 0 0 -1.278,0.366 0.94,0.94 0 0 0 0.365,1.278 0.94,0.94 0 0 0 1.278,-0.366 z m 0.171,22.915 a 0.94,0.94 0 0 0 -0.94,-0.939 0.94,0.94 0 0 0 -0.94,0.939 0.94,0.94 0 0 0 0.94,0.94 0.94,0.94 0 0 0 0.94,-0.94 z m 18.522,11.155 a 0.94,0.94 0 0 0 0.32,1.291 0.94,0.94 0 0 0 1.29,-0.321 0.94,0.94 0 0 0 -0.32,-1.29 0.94,0.94 0 0 0 -1.29,0.32 z m -0.296,9.007 a 31.91,31.91 0 0 1 -30.845,-32.941 31.91,31.91 0 0 1 32.941,-30.845 31.91,31.91 0 0 1 30.845,32.941 31.91,31.91 0 0 1 -32.941,30.845 z"
       style="stroke:#ff0000;stroke-width:1;stroke-miterlimit:4;stroke-dasharray:none;stroke-opacity:1" />
  </g>
  <g
     transform="translate(-3227.6633,31.408665)"
     id="Setup67"
     style="stroke:#ff0000;stroke-width:1;stroke-miterlimit:4;stroke-dasharray:none;stroke-opacity:1">
    <path
       id="op_2D_Profile75-374-61"
       fill="none"
       stroke="rgb(255,0,0)"
       stroke-width="0.1"
       d="m 3534.888,-28.41 h 5.569 a 4.44,4.44 0 0 0 0.633,-6.247 4.44,4.44 0 0 0 -0.633,-0.633 h -5.614 a 4.44,4.44 0 0 0 -0.633,6.247 4.44,4.44 0 0 0 0.633,0.633 z m -17.217,21.441 a 31.91,31.91 0 0 1 -4.902,-44.86 31.91,31.91 0 0 1 44.86,-4.902 31.91,31.91 0 0 1 4.902,44.86 31.91,31.91 0 0 1 -44.86,4.902 z"
       style="stroke:#ff0000;stroke-width:1;stroke-miterlimit:4;stroke-dasharray:none;stroke-opacity:1" />
  </g>
  <g
     transform="translate(-3302.8329,-34.196815)"
     id="Setup68"
     style="stroke:#ff0000;stroke-width:1;stroke-miterlimit:4;stroke-dasharray:none;stroke-opacity:1">
    <path
       id="op_2D_Profile69-363-62"
       fill="none"
       stroke="rgb(255,0,0)"
       stroke-width="0.1"
       d="m 3591.905,-43.034 a 0.94,0.94 0 0 0 -0.365,-1.278 0.94,0.94 0 0 0 -1.278,0.366 0.94,0.94 0 0 0 0.365,1.278 0.94,0.94 0 0 0 1.278,-0.366 z m 15.005,11.249 a 4.44,4.44 0 0 0 1.633,3.375 h 5.614 a 4.44,4.44 0 0 0 0.633,-6.247 4.44,4.44 0 0 0 -0.633,-0.633 h -5.614 a 4.44,4.44 0 0 0 -1.633,3.505 z m -14.834,11.666 a 0.94,0.94 0 0 0 -0.94,-0.939 0.94,0.94 0 0 0 -0.94,0.939 0.94,0.94 0 0 0 0.94,0.94 0.94,0.94 0 0 0 0.94,-0.94 z m 19.327,10.7 a 0.94,0.94 0 0 0 -0.94,0.94 0.94,0.94 0 0 0 0.94,0.94 0.94,0.94 0 0 0 0.94,-0.94 0.94,0.94 0 0 0 -0.94,-0.94 z m 19.392,-11.247 a 0.94,0.94 0 0 0 0.365,1.278 0.94,0.94 0 0 0 1.278,-0.366 0.94,0.94 0 0 0 -0.365,-1.278 0.94,0.94 0 0 0 -1.278,0.366 z m -0.171,-22.915 a 0.94,0.94 0 0 0 0.94,0.939 0.94,0.94 0 0 0 0.94,-0.94 0.94,0.94 0 0 0 -0.94,-0.939 0.94,0.94 0 0 0 -0.94,0.94 z m -18.522,-11.155 a 0.94,0.94 0 0 0 -0.32,-1.291 0.94,0.94 0 0 0 -1.29,0.321 0.94,0.94 0 0 0 0.32,1.29 0.94,0.94 0 0 0 1.29,-0.32 z m 0.296,-9.007 a 31.91,31.91 0 0 1 30.845,32.941 31.91,31.91 0 0 1 -32.941,30.845 31.91,31.91 0 0 1 -30.845,-32.941 31.91,31.91 0 0 1 32.941,-30.845 z"
       style="stroke:#ff0000;stroke-width:1;stroke-miterlimit:4;stroke-dasharray:none;stroke-opacity:1" />
  </g>
  <g
     transform="translate(-3477.3837,-2.6581021)"
     id="Setup69"
     style="stroke:#ff0000;stroke-width:1;stroke-miterlimit:4;stroke-dasharray:none;stroke-opacity:1">
    <path
       id="op_2D_Profile70-365-63"
       fill="none"
       stroke="rgb(255,0,0)"
       stroke-width="0.1"
       d="m 3676.067,-3.938 a 0.94,0.94 0 0 0 0.365,1.278 0.94,0.94 0 0 0 0.457,0.119 h 7.622 a 0.94,0.94 0 0 0 0.94,-0.94 0.94,0.94 0 0 0 -0.94,-0.94 h -7.622 a 0.94,0.94 0 0 0 -0.822,0.483 z m -0.051,-7.805 a 8.44,8.44 0 0 0 -8.179,-8.693 8.44,8.44 0 0 0 -8.693,8.179 8.44,8.44 0 0 0 8.179,8.693 8.44,8.44 0 0 0 8.693,-8.179 z m 7.884,-4.753 a 2.84,2.84 0 0 0 2.84,-2.84 v -0.1 a 2.84,2.84 0 0 0 -2.84,-2.84 h -6.4 a 2.84,2.84 0 0 0 -2.84,2.84 v 0.1 a 2.84,2.84 0 0 0 2.84,2.84 z m 2.101,1.319 a 8.44,8.44 0 0 0 4.642,10.996 8.44,8.44 0 0 0 10.996,-4.642 8.44,8.44 0 0 0 -4.642,-10.996 8.44,8.44 0 0 0 -10.996,4.642 z m 16.124,11.187 a 0.69,0.69 0 0 0 -0.69,0.69 0.69,0.69 0 0 0 0.69,0.69 0.69,0.69 0 0 0 0.69,-0.69 0.69,0.69 0 0 0 -0.69,-0.69 z m -0.084,-16.025 a 0.69,0.69 0 0 0 0.769,-0.601 0.69,0.69 0 0 0 -0.601,-0.769 0.69,0.69 0 0 0 -0.769,0.601 0.69,0.69 0 0 0 0.601,0.769 z m -42.081,-0.601 a 0.69,0.69 0 0 0 -0.601,-0.769 0.69,0.69 0 0 0 -0.769,0.601 0.69,0.69 0 0 0 0.601,0.769 0.69,0.69 0 0 0 0.769,-0.601 z m -0.658,16.627 a 0.69,0.69 0 0 0 -0.716,0.662 0.69,0.69 0 0 0 0.662,0.716 0.69,0.69 0 0 0 0.716,-0.662 0.69,0.69 0 0 0 -0.662,-0.716 z m 0,4.049 H 3659.2 A 6.06,6.06 0 0 1 3653.14,-6 v -18 a 0.06,0.06 0 0 1 0.06,-0.06 h 2.94 V -44 a 0.06,0.06 0 0 1 0.06,-0.06 h 8.667 a 0.06,0.06 0 0 1 0.06,0.06 v 2.94 h 9.88 V -44 a 0.06,0.06 0 0 1 0.06,-0.06 h 11.666 a 0.06,0.06 0 0 1 0.06,0.06 v 2.94 h 9.88 V -44 a 0.06,0.06 0 0 1 0.06,-0.06 h 8.667 a 0.06,0.06 0 0 1 0.06,0.06 v 19.94 h 2.94 a 0.06,0.06 0 0 1 0.06,0.06 v 18 a 6.06,6.06 0 0 1 -6.06,6.06 z"
       style="stroke:#ff0000;stroke-width:1;stroke-miterlimit:4;stroke-dasharray:none;stroke-opacity:1" />
  </g>
  <g
     transform="translate(-3543.0498,38.318717)"
     id="Setup70"
     style="stroke:#ff0000;stroke-width:1;stroke-miterlimit:4;stroke-dasharray:none;stroke-opacity:1">
    <path
       id="op_2D_Profile71-367-64"
       fill="none"
       stroke="rgb(255,0,0)"
       stroke-width="0.1"
       d="m 3745.473,-14.613 h -5.546 v 2.88 h 11.546 v -2.88 z m 0.187,-6.621 a 1.44,1.44 0 0 0 1.479,-1.399 1.44,1.44 0 0 0 -1.399,-1.48 1.44,1.44 0 0 0 -1.479,1.399 1.44,1.44 0 0 0 1.399,1.48 z m -0.017,-17.172 a 60.06,60.06 0 0 1 27.585,6.679 0.06,0.06 0 0 1 0.025,0.081 0.06,0.06 0 0 1 -0.053,0.033 h -2.94 v 4.88 h 2.94 a 0.06,0.06 0 0 1 0.06,0.06 v 10 a 0.06,0.06 0 0 1 -0.06,0.06 h -2.94 v 1.94 a 0.06,0.06 0 0 1 -0.06,0.06 h -8.607 v 2.88 h 11.607 a 0.06,0.06 0 0 1 0.06,0.06 v 5 a 0.06,0.06 0 0 1 -0.032,0.053 60.06,60.06 0 0 1 -55.056,0 0.06,0.06 0 0 1 -0.032,-0.053 v -5 a 0.06,0.06 0 0 1 0.06,-0.06 h 11.607 v -2.88 h -8.607 a 0.06,0.06 0 0 1 -0.06,-0.06 v -1.94 h -2.94 a 0.06,0.06 0 0 1 -0.06,-0.06 v -10 a 0.06,0.06 0 0 1 0.06,-0.06 h 2.94 v -4.88 h -2.94 a 0.06,0.06 0 0 1 -0.06,-0.06 0.06,0.06 0 0 1 0.032,-0.054 60.06,60.06 0 0 1 27.471,-6.679 z"
       style="stroke:#ff0000;stroke-width:1;stroke-miterlimit:4;stroke-dasharray:none;stroke-opacity:1" />
  </g>
  <g
     transform="translate(-3451.7418,40.629058)"
     id="Setup71"
     style="stroke:#ff0000;stroke-width:1;stroke-miterlimit:4;stroke-dasharray:none;stroke-opacity:1">
    <path
       id="op_2D_Profile72-369-65"
       fill="none"
       stroke="rgb(255,0,0)"
       stroke-width="0.1"
       d="M 3784.191,-0.412 A 2.06,2.06 0 0 1 3783.485,-1.588 17.06,17.06 0 0 1 3783.14,-5 v -3 a 17.06,17.06 0 0 1 17.06,-17.06 h 3 a 0.06,0.06 0 0 1 0.06,0.06 v 5 a 0.06,0.06 0 0 1 -0.06,0.06 h -2.94 v 9.88 h 2.94 a 0.06,0.06 0 0 1 0.06,0.06 v 5 a 0.06,0.06 0 0 1 -0.06,0.06 h -2.94 V 0 a 0.06,0.06 0 0 1 -0.06,0.06 h -14.697 a 2.06,2.06 0 0 1 -1.312,-0.472 z"
       style="stroke:#ff0000;stroke-width:1;stroke-miterlimit:4;stroke-dasharray:none;stroke-opacity:1" />
  </g>
  <g
     transform="translate(-3796.5935,37.20984)"
     id="Setup72"
     style="stroke:#ff0000;stroke-width:1;stroke-miterlimit:4;stroke-dasharray:none;stroke-opacity:1">
    <path
       id="op_2D_Profile73-371-66"
       fill="none"
       stroke="rgb(255,0,0)"
       stroke-width="0.1"
       d="M 3816.2,0.06 A 0.06,0.06 0 0 1 3816.14,0 v -4.94 h -2.94 A 0.06,0.06 0 0 1 3813.14,-5 v -5 a 0.06,0.06 0 0 1 0.06,-0.06 h 2.94 v -9.88 h -2.94 a 0.06,0.06 0 0 1 -0.06,-0.06 v -5 a 0.06,0.06 0 0 1 0.06,-0.06 h 3 A 17.06,17.06 0 0 1 3833.26,-8 v 3 a 17.06,17.06 0 0 1 -0.345,3.412 2.06,2.06 0 0 1 -2.018,1.648 z"
       style="stroke:#ff0000;stroke-width:1;stroke-miterlimit:4;stroke-dasharray:none;stroke-opacity:1" />
  </g>
  <g
     transform="translate(-3701.8607,161.60905)"
     id="Setup73"
     style="stroke:#ff0000;stroke-width:1;stroke-miterlimit:4;stroke-dasharray:none;stroke-opacity:1">
    <path
       id="op_2D_Profile74-373-67"
       fill="none"
       stroke="rgb(255,0,0)"
       stroke-width="0.1"
       d="m 3900.437,-32 v -1.94 h -17.88 V -32 a 1.06,1.06 0 0 1 -1.06,1.06 h -26 a 4.94,4.94 0 0 0 -4.94,4.94 4.94,4.94 0 0 0 1.974,3.95 76.602,76.602 0 0 0 77.933,0 4.94,4.94 0 0 0 0.983,-6.917 4.94,4.94 0 0 0 -3.95,-1.973 h -26 a 1.06,1.06 0 0 1 -1.06,-1.06 z m 0,-7.058 30.994,0.004 a 8.333,8.333 0 0 1 8.289,7.493 25.521,25.521 0 0 1 -15.777,26.214 v 0.001 a 100.06,100.06 0 0 1 -64.82,0.023 v -10e-4 a 25.521,25.521 0 0 1 -15.847,-26.248 8.333,8.333 0 0 1 8.291,-7.492 z"
       style="stroke:#ff0000;stroke-width:1;stroke-miterlimit:4;stroke-dasharray:none;stroke-opacity:1" />
  </g>
</svg>
