<?xml version="1.0" encoding="UTF-8" standalone="no"?>
<svg
   inkscape:version="1.1 (1:1.1+202105261517+ce6663b3b7)"
   sodipodi:docname="raw.svg"
   id="svg140"
   version="1.1"
   viewBox="-10 -410 3969.721424336057 481.19550167206853"
   height="481.19550167206853mm"
   width="3969.721424336057mm"
   xmlns:inkscape="http://www.inkscape.org/namespaces/inkscape"
   xmlns:sodipodi="http://sodipodi.sourceforge.net/DTD/sodipodi-0.dtd"
   xmlns="http://www.w3.org/2000/svg"
   xmlns:svg="http://www.w3.org/2000/svg"
   xmlns:rdf="http://www.w3.org/1999/02/22-rdf-syntax-ns#"
   xmlns:cc="http://creativecommons.org/ns#"
   xmlns:dc="http://purl.org/dc/elements/1.1/">
  <metadata
     id="metadata146">
    <rdf:RDF>
      <cc:Work
         rdf:about="">
        <dc:format>image/svg+xml</dc:format>
        <dc:type
           rdf:resource="http://purl.org/dc/dcmitype/StillImage" />
      </cc:Work>
    </rdf:RDF>
  </metadata>
  <defs
     id="defs144" />
  <sodipodi:namedview
     inkscape:current-layer="svg140"
     inkscape:window-maximized="1"
     inkscape:window-y="26"
     inkscape:window-x="1920"
     inkscape:cy="1511.9877"
     inkscape:cx="7647.1686"
     inkscape:zoom="0.39550586"
     showgrid="false"
     id="namedview142"
     inkscape:window-height="1390"
     inkscape:window-width="2560"
     inkscape:pageshadow="2"
     inkscape:pageopacity="0"
     guidetolerance="10"
     gridtolerance="10"
     objecttolerance="10"
     borderopacity="1"
     bordercolor="#666666"
     pagecolor="#ffffff"
     inkscape:pagecheckerboard="0"
     inkscape:document-units="mm" />
  <polyline
     transform="matrix(1.1776447,0,0,1.0224439,-110.12081,-11.28714)"
     style="stroke:#000000;stroke-width:1;stroke-miterlimit:4;stroke-dasharray:none;stroke-opacity:1"
     id="polyline2"
     fill="none"
     stroke-width="0.1"
     stroke="rgb(0,0,0)"
     points="0,0 500,0 500,-400 0,-400 0,0" />
  <g
     style="stroke-width:0.99999999;stroke-miterlimit:4;stroke-dasharray:none;stroke:#ff0000;stroke-opacity:1"
     id="Setup1">
    <path
       style="stroke-width:0.99999999;stroke-miterlimit:4;stroke-dasharray:none;stroke:#ff0000;stroke-opacity:1"
       d=" M572.773 -61.069A 1.54 1.54 0 0 0 574.931 -60.773A 1.54 1.54 0 0 0 575.227 -62.931A 1.54 1.54 0 0 0 573.069 -63.227A 1.54 1.54 0 0 0 572.773 -61.069 z M565.66 -50.94 L565.66 -50.06 L568.34 -50.06 L568.34 -59.94 L565.66 -59.94 L565.66 -50.94 z M556.275 -39.19A 2.19 2.19 0 0 0 554.085 -37A 2.19 2.19 0 0 0 556.275 -34.81A 2.19 2.19 0 0 0 558.465 -37A 2.19 2.19 0 0 0 556.275 -39.19 z M546.54 -59.82 L546.54 -59.94 L543.86 -59.94 L543.86 -50.06 L546.54 -50.06 L546.54 -59.82 z M543.74 -129.82 L543.74 -129.94 L531.86 -129.94 L531.86 -70.06 L543.74 -70.06 L543.74 -129.82 z M546.54 -137.38 L546.54 -149.94 L543.86 -149.94 L543.86 -137.26 L546.54 -137.26 L546.54 -137.38 z M556.275 -160.81A 2.19 2.19 0 0 0 558.465 -163A 2.19 2.19 0 0 0 556.275 -165.19A 2.19 2.19 0 0 0 554.085 -163A 2.19 2.19 0 0 0 556.275 -160.81 z M568.22 -149.94 L565.66 -149.94 L565.66 -137.26 L568.34 -137.26 L568.34 -149.94 L568.22 -149.94 z M574 -152.46A 1.54 1.54 0 0 0 575.54 -154A 1.54 1.54 0 0 0 574 -155.54A 1.54 1.54 0 0 0 572.46 -154A 1.54 1.54 0 0 0 574 -152.46 z M617.93 -132.82 L617.93 -127.06 L626.81 -127.06 L626.81 -132.94 L617.93 -132.94 L617.93 -132.82 z M666 -152.46A 1.54 1.54 0 0 0 667.54 -154A 1.54 1.54 0 0 0 666 -155.54A 1.54 1.54 0 0 0 664.46 -154A 1.54 1.54 0 0 0 666 -152.46 z M671.66 -149.82 L671.66 -137.26 L674.34 -137.26 L674.34 -149.94 L671.66 -149.94 L671.66 -149.82 z M683.725 -160.81A 2.19 2.19 0 0 0 685.915 -163A 2.19 2.19 0 0 0 683.725 -165.19A 2.19 2.19 0 0 0 681.535 -163A 2.19 2.19 0 0 0 683.725 -160.81 z M693.46 -137.38 L693.46 -137.26 L696.14 -137.26 L696.14 -149.94 L693.46 -149.94 L693.46 -137.38 z M696.26 -70.18 L696.26 -70.06 L708.14 -70.06 L708.14 -129.94 L696.26 -129.94 L696.26 -70.18 z M693.46 -59.82 L693.46 -50.06 L696.14 -50.06 L696.14 -59.94 L693.46 -59.94 L693.46 -59.82 z M683.725 -39.19A 2.19 2.19 0 0 0 681.535 -37A 2.19 2.19 0 0 0 683.725 -34.81A 2.19 2.19 0 0 0 685.915 -37A 2.19 2.19 0 0 0 683.725 -39.19 z M674.34 -51.06 L674.34 -59.94 L671.66 -59.94 L671.66 -50.06 L674.34 -50.06 L674.34 -51.06 z M665.586 -60.517A 1.54 1.54 0 0 0 667.483 -61.586A 1.54 1.54 0 0 0 666.414 -63.483A 1.54 1.54 0 0 0 664.517 -62.414A 1.54 1.54 0 0 0 665.586 -60.517 z M659.317 -61.123A 1.49 1.49 0 0 0 659.557 -63.217A 1.49 1.49 0 0 0 657.463 -63.457A 1.49 1.49 0 0 0 657.223 -61.363A 1.49 1.49 0 0 0 659.317 -61.123 z M635.94 -37.94 L580.06 -37.94 L580.06 -17A 5.94 5.94 0 0 0 586 -11.06 L654 -11.06A 5.94 5.94 0 0 0 659.94 -17 L659.94 -37.94 L635.94 -37.94 z M612.107 -64.007A 1.49 1.49 0 0 0 610.013 -64.247A 1.49 1.49 0 0 0 609.773 -62.153A 1.49 1.49 0 0 0 611.867 -61.913A 1.49 1.49 0 0 0 612.107 -64.007 z M609.773 -71.683A 1.49 1.49 0 0 0 611.867 -71.443A 1.49 1.49 0 0 0 612.107 -73.537A 1.49 1.49 0 0 0 610.013 -73.777A 1.49 1.49 0 0 0 609.773 -71.683 z M602.577 -73.537A 1.49 1.49 0 0 0 600.483 -73.777A 1.49 1.49 0 0 0 600.243 -71.683A 1.49 1.49 0 0 0 602.337 -71.443A 1.49 1.49 0 0 0 602.577 -73.537 z M602.347 -80.963A 1.49 1.49 0 0 0 602.587 -83.057A 1.49 1.49 0 0 0 600.493 -83.297A 1.49 1.49 0 0 0 600.253 -81.203A 1.49 1.49 0 0 0 602.347 -80.963 z M610.602 -80.689A 1.49 1.49 0 0 0 612.391 -81.802A 1.49 1.49 0 0 0 611.278 -83.591A 1.49 1.49 0 0 0 609.489 -82.478A 1.49 1.49 0 0 0 610.602 -80.689 z M619.317 -73.554A 1.49 1.49 0 0 0 619.526 -71.457A 1.49 1.49 0 0 0 621.623 -71.666A 1.49 1.49 0 0 0 621.414 -73.763A 1.49 1.49 0 0 0 619.317 -73.554 z M617.417 0.027A 100.06 100.06 0 0 1 519.973 -102.583A 100.06 100.06 0 0 1 622.583 -200.027A 100.06 100.06 0 0 1 720.027 -97.417A 100.06 100.06 0 0 1 617.417 0.027 z"
       stroke-width="0.1"
       stroke="rgb(255,0,0)"
       fill="none"
       id="op_2D_Profile56-229-0" />
  </g>
  <g
     style="stroke-width:0.99999999;stroke-miterlimit:4;stroke-dasharray:none;stroke:#ff0000;stroke-opacity:1"
     id="Setup2">
    <path
       style="stroke-width:0.99999999;stroke-miterlimit:4;stroke-dasharray:none;stroke:#ff0000;stroke-opacity:1"
       d=" M889.683 -158.945A 1.24 1.24 0 0 0 887.93 -158.908A 1.24 1.24 0 0 0 887.967 -157.155A 1.24 1.24 0 0 0 889.72 -157.192A 1.24 1.24 0 0 0 889.683 -158.945 z M893.55 -160.319A 2.69 2.69 0 0 0 896.456 -162.775A 2.69 2.69 0 0 0 894 -165.681A 2.69 2.69 0 0 0 891.094 -163.225A 2.69 2.69 0 0 0 893.55 -160.319 z M897.485 -158.05A 1.24 1.24 0 0 0 898.725 -156.81A 1.24 1.24 0 0 0 899.965 -158.05A 1.24 1.24 0 0 0 898.725 -159.29A 1.24 1.24 0 0 0 897.485 -158.05 z M906.14 -151.26 L906.14 -154.94 L903.46 -154.94 L903.46 -142.26 L906.14 -142.26 L906.14 -151.26 z M913.284 -145.457 L917.519 -136.664 L919.934 -137.827 L915.647 -146.728 L913.232 -145.566 L913.284 -145.457 z M903.46 -123.94 L903.46 -115.06 L906.2 -115.06A 0.06 0.06 0 0 1 906.26 -115 L906.26 -85A 0.06 0.06 0 0 1 906.2 -84.94 L903.46 -84.94 L903.46 -75.06 L906.2 -75.06A 0.06 0.06 0 0 1 906.26 -75 L906.26 -70.06 L918.14 -70.06 L918.14 -75A 0.06 0.06 0 0 1 918.2 -75.06 L920.94 -75.06 L920.94 -84.94 L918.2 -84.94A 0.06 0.06 0 0 1 918.14 -85 L918.14 -115A 0.06 0.06 0 0 1 918.2 -115.06 L920.94 -115.06 L920.94 -124.94 L918.2 -124.94A 0.06 0.06 0 0 1 918.14 -125 L918.14 -129.94 L906.26 -129.94 L906.26 -125A 0.06 0.06 0 0 1 906.2 -124.94 L903.46 -124.94 L903.46 -123.94 z M888.96 -114.12 L888.96 -111.56 L898.84 -111.56 L898.84 -114.24 L888.96 -114.24 L888.96 -114.12 z M787.6 -160.44 L778.4 -160.44A 0.06 0.06 0 0 1 778.34 -160.5 L778.34 -169.94 L775.66 -169.94 L775.66 -157.26 L778.4 -157.26A 0.06 0.06 0 0 1 778.46 -157.2 L778.46 -120A 0.06 0.06 0 0 1 778.4 -119.94 L775.66 -119.94 L775.66 -110.06 L778.4 -110.06A 0.06 0.06 0 0 1 778.46 -110 L778.46 -90A 0.06 0.06 0 0 1 778.4 -89.94 L775.66 -89.94 L775.66 -80.06 L778.4 -80.06A 0.06 0.06 0 0 1 778.46 -80 L778.46 -55.56 L881.54 -55.56 L881.54 -80A 0.06 0.06 0 0 1 881.6 -80.06 L884.34 -80.06 L884.34 -89.94 L881.6 -89.94A 0.06 0.06 0 0 1 881.54 -90 L881.54 -110A 0.06 0.06 0 0 1 881.6 -110.06 L884.34 -110.06 L884.34 -119.94 L881.6 -119.94A 0.06 0.06 0 0 1 881.54 -120 L881.54 -157.2A 0.06 0.06 0 0 1 881.6 -157.26 L884.34 -157.26 L884.34 -169.94 L881.66 -169.94 L881.66 -160.5A 0.06 0.06 0 0 1 881.6 -160.44 L787.6 -160.44 z M771.225 -166.71A 1.24 1.24 0 0 0 772.465 -167.95A 1.24 1.24 0 0 0 771.225 -169.19A 1.24 1.24 0 0 0 769.985 -167.95A 1.24 1.24 0 0 0 771.225 -166.71 z M768.956 -162.775A 2.69 2.69 0 0 0 766.5 -165.681A 2.69 2.69 0 0 0 763.594 -163.225A 2.69 2.69 0 0 0 766.05 -160.319A 2.69 2.69 0 0 0 768.956 -162.775 z M770.33 -158.908A 1.24 1.24 0 0 0 770.367 -157.155A 1.24 1.24 0 0 0 772.12 -157.192A 1.24 1.24 0 0 0 772.083 -158.945A 1.24 1.24 0 0 0 770.33 -158.908 z M761.325 -156.81A 1.24 1.24 0 0 0 762.565 -158.05A 1.24 1.24 0 0 0 761.325 -159.29A 1.24 1.24 0 0 0 760.085 -158.05A 1.24 1.24 0 0 0 761.325 -156.81 z M753.86 -150.94 L753.86 -142.26 L756.54 -142.26 L756.54 -154.94 L753.86 -154.94 L753.86 -150.94 z M746.386 -144.773 L746.768 -145.566 L744.353 -146.728 L740.066 -137.827 L742.481 -136.664 L746.386 -144.773 z M756.54 -124.06 L756.54 -124.94 L753.8 -124.94A 0.06 0.06 0 0 1 753.74 -125 L753.74 -129.94 L741.86 -129.94 L741.86 -125A 0.06 0.06 0 0 1 741.8 -124.94 L739.06 -124.94 L739.06 -115.06 L741.8 -115.06A 0.06 0.06 0 0 1 741.86 -115 L741.86 -85A 0.06 0.06 0 0 1 741.8 -84.94 L739.06 -84.94 L739.06 -75.06 L741.8 -75.06A 0.06 0.06 0 0 1 741.86 -75 L741.86 -70.06 L753.74 -70.06 L753.74 -75A 0.06 0.06 0 0 1 753.8 -75.06 L756.54 -75.06 L756.54 -84.94 L753.8 -84.94A 0.06 0.06 0 0 1 753.74 -85 L753.74 -115A 0.06 0.06 0 0 1 753.8 -115.06 L756.54 -115.06 L756.54 -124.06 z M761.16 -111.68 L761.16 -111.56 L771.04 -111.56 L771.04 -114.24 L761.16 -114.24 L761.16 -111.68 z M756.54 -54.82 L756.54 -54.94 L753.86 -54.94 L753.86 -45.06 L756.54 -45.06 L756.54 -54.82 z M762.183 -42.845A 1.24 1.24 0 0 0 760.43 -42.808A 1.24 1.24 0 0 0 760.467 -41.055A 1.24 1.24 0 0 0 762.22 -41.092A 1.24 1.24 0 0 0 762.183 -42.845 z M765.298 -39.506A 2.69 2.69 0 0 0 763.769 -36.023A 2.69 2.69 0 0 0 767.252 -34.494A 2.69 2.69 0 0 0 768.781 -37.977A 2.69 2.69 0 0 0 765.298 -39.506 z M772.083 -32.945A 1.24 1.24 0 0 0 770.33 -32.908A 1.24 1.24 0 0 0 770.367 -31.155A 1.24 1.24 0 0 0 772.12 -31.192A 1.24 1.24 0 0 0 772.083 -32.945 z M775.66 -36.94 L775.66 -30.06 L778.34 -30.06 L778.34 -39.94 L775.66 -39.94 L775.66 -36.94 z M771.225 -40.71A 1.24 1.24 0 0 0 772.465 -41.95A 1.24 1.24 0 0 0 771.225 -43.19A 1.24 1.24 0 0 0 769.985 -41.95A 1.24 1.24 0 0 0 771.225 -40.71 z M766.981 -28.9 L765.385 -26.898 L773.109 -20.738 L774.78 -22.834 L767.056 -28.994 L766.981 -28.9 z M762.183 -32.945A 1.24 1.24 0 0 0 760.43 -32.908A 1.24 1.24 0 0 0 760.467 -31.155A 1.24 1.24 0 0 0 762.22 -31.192A 1.24 1.24 0 0 0 762.183 -32.945 z M746.716 -54.543 L742.481 -63.336 L740.066 -62.173 L744.353 -53.272 L746.768 -54.434 L746.716 -54.543 z M735.24 -95.18 L735.24 -104.94 L732.56 -104.94 L732.56 -95.06 L735.24 -95.06 L735.24 -95.18 z M762.22 -167.092A 1.24 1.24 0 0 0 762.183 -168.845A 1.24 1.24 0 0 0 760.43 -168.808A 1.24 1.24 0 0 0 760.467 -167.055A 1.24 1.24 0 0 0 762.22 -167.092 z M767.15 -171.081 L774.78 -177.166 L773.109 -179.262 L765.385 -173.102 L767.056 -171.006 L767.15 -171.081 z M793.147 -174.595A 1.04 1.04 0 0 0 793.405 -173.147A 1.04 1.04 0 0 0 794.853 -173.405A 1.04 1.04 0 0 0 794.595 -174.853A 1.04 1.04 0 0 0 793.147 -174.595 z M804.778 -188.876 L814.286 -191.046 L813.134 -196.096 L803.501 -193.898 L804.654 -188.848 L804.778 -188.876 z M823.94 -170.14 L820.06 -170.14 L820.06 -165.26 L839.94 -165.26 L839.94 -170.14 L823.94 -170.14 z M855.374 -188.972 L856.499 -193.898 L846.866 -196.096 L845.714 -191.046 L855.346 -188.848 L855.374 -188.972 z M866.595 -174.853A 1.04 1.04 0 0 0 865.147 -174.595A 1.04 1.04 0 0 0 865.405 -173.147A 1.04 1.04 0 0 0 866.853 -173.405A 1.04 1.04 0 0 0 866.595 -174.853 z M887.565 -175.296 L892.944 -171.006 L894.615 -173.102 L886.891 -179.262 L885.22 -177.166 L887.565 -175.296 z M889.683 -168.845A 1.24 1.24 0 0 0 887.93 -168.808A 1.24 1.24 0 0 0 887.967 -167.055A 1.24 1.24 0 0 0 889.72 -167.092A 1.24 1.24 0 0 0 889.683 -168.845 z M897.867 -167.055A 1.24 1.24 0 0 0 899.62 -167.092A 1.24 1.24 0 0 0 899.583 -168.845A 1.24 1.24 0 0 0 897.83 -168.808A 1.24 1.24 0 0 0 897.867 -167.055 z M924.76 -95.18 L924.76 -95.06 L927.44 -95.06 L927.44 -104.94 L924.76 -104.94 L924.76 -95.18 z M917.464 -63.221 L913.232 -54.434 L915.647 -53.272 L919.934 -62.173 L917.519 -63.336 L917.464 -63.221 z M906.14 -50.06 L906.14 -54.94 L903.46 -54.94 L903.46 -45.06 L906.14 -45.06 L906.14 -50.06 z M897.867 -41.055A 1.24 1.24 0 0 0 899.62 -41.092A 1.24 1.24 0 0 0 899.583 -42.845A 1.24 1.24 0 0 0 897.83 -42.808A 1.24 1.24 0 0 0 897.867 -41.055 z M896.465 -37A 2.69 2.69 0 0 0 893.775 -39.69A 2.69 2.69 0 0 0 891.085 -37A 2.69 2.69 0 0 0 893.775 -34.31A 2.69 2.69 0 0 0 896.465 -37 z M897.485 -32.05A 1.24 1.24 0 0 0 898.725 -30.81A 1.24 1.24 0 0 0 899.965 -32.05A 1.24 1.24 0 0 0 898.725 -33.29A 1.24 1.24 0 0 0 897.485 -32.05 z M892.85 -28.919 L885.22 -22.834 L886.891 -20.738 L894.615 -26.898 L892.944 -28.994 L892.85 -28.919 z M888.825 -30.81A 1.24 1.24 0 0 0 890.065 -32.05A 1.24 1.24 0 0 0 888.825 -33.29A 1.24 1.24 0 0 0 887.585 -32.05A 1.24 1.24 0 0 0 888.825 -30.81 z M884.34 -36.06 L884.34 -39.94 L881.66 -39.94 L881.66 -30.06 L884.34 -30.06 L884.34 -36.06 z M887.967 -41.055A 1.24 1.24 0 0 0 889.72 -41.092A 1.24 1.24 0 0 0 889.683 -42.845A 1.24 1.24 0 0 0 887.93 -42.808A 1.24 1.24 0 0 0 887.967 -41.055 z M869.82 -40.74 L855.06 -40.74 L855.06 -38.06 L869.94 -38.06 L869.94 -40.74 L869.82 -40.74 z M844.923 -44.152A 1.44 1.44 0 0 0 845.108 -46.18A 1.44 1.44 0 0 0 843.08 -46.365A 1.44 1.44 0 0 0 842.895 -44.337A 1.44 1.44 0 0 0 844.923 -44.152 z M839.383 -31.512A 7.44 7.44 0 0 0 835 -32.94 L825 -32.94A 7.44 7.44 0 0 0 817.56 -25.5A 7.44 7.44 0 0 0 825 -18.06 L835 -18.06A 7.44 7.44 0 0 0 842.44 -25.5A 7.44 7.44 0 0 0 839.383 -31.512 z M831.22 -13.075 L828.66 -13.075 L828.66 -8.195 L831.34 -8.195 L831.34 -13.075 L831.22 -13.075 z M855.222 -11.124 L845.714 -8.954 L846.866 -3.904 L856.499 -6.102 L855.346 -11.152 L855.222 -11.124 z M870.06 -18.24 L870.06 -12.86 L872.74 -12.86 L872.74 -20.24 L870.06 -20.24 L870.06 -18.24 z M815.999 -43.819A 1.44 1.44 0 0 0 817.439 -45.258A 1.44 1.44 0 0 0 815.999 -46.698A 1.44 1.44 0 0 0 814.559 -45.258A 1.44 1.44 0 0 0 815.999 -43.819 z M804.94 -38.18 L804.94 -40.74 L790.06 -40.74 L790.06 -38.06 L804.94 -38.06 L804.94 -38.18 z M789.82 -20.24 L787.26 -20.24 L787.26 -12.86 L789.94 -12.86 L789.94 -20.24 L789.82 -20.24 z M804.626 -11.028 L803.501 -6.102 L813.134 -3.904 L814.286 -8.954 L804.654 -11.152 L804.626 -11.028 z M802.558 -3.777A 100.06 100.06 0 0 1 733.777 -127.442A 100.06 100.06 0 0 1 857.442 -196.223A 100.06 100.06 0 0 1 926.223 -72.558A 100.06 100.06 0 0 1 802.558 -3.777 z"
       stroke-width="0.1"
       stroke="rgb(255,0,0)"
       fill="none"
       id="op_2D_Profile2-231-1" />
  </g>
  <g
     style="stroke-width:0.99999999;stroke-miterlimit:4;stroke-dasharray:none;stroke:#ff0000;stroke-opacity:1"
     id="Setup3">
    <path
       style="stroke-width:0.99999999;stroke-miterlimit:4;stroke-dasharray:none;stroke:#ff0000;stroke-opacity:1"
       d=" M965.82 -23.64 L954.06 -23.64 L954.06 -20.96 L965.94 -20.96 L965.94 -23.64 L965.82 -23.64 z M970.18 -69.303 L972.74 -69.303 L972.74 -84.183 L970.06 -84.183 L970.06 -69.303 L970.18 -69.303 z M963.94 -131.967 L963.94 -134.527 L954.06 -134.527 L954.06 -131.847 L963.94 -131.847 L963.94 -131.967 z M963.94 -130.427 L940 -130.427A 0.06 0.06 0 0 1 939.94 -130.487 L939.94 -155.487A 0.06 0.06 0 0 1 940 -155.547 L975.2 -155.547A 0.06 0.06 0 0 1 975.26 -155.487 L975.26 -150.547 L978 -150.547A 0.06 0.06 0 0 1 978.06 -150.487 L978.06 -147.803 L980.8 -147.803A 0.06 0.06 0 0 1 980.86 -147.743 L980.86 -134.943A 0.06 0.06 0 0 1 980.8 -134.883 L978.06 -134.883 L978.06 -97.803 L980.8 -97.803A 0.06 0.06 0 0 1 980.86 -97.743 L980.86 -87.743A 0.06 0.06 0 0 1 980.8 -87.683 L978.06 -87.683 L978.06 -67.803 L980.8 -67.803A 0.06 0.06 0 0 1 980.86 -67.743 L980.86 -57.743A 0.06 0.06 0 0 1 980.8 -57.683 L978.06 -57.683 L978.06 -17.803 L980.8 -17.803A 0.06 0.06 0 0 1 980.86 -17.743 L980.86 -7.743A 0.06 0.06 0 0 1 980.8 -7.683 L978.06 -7.683 L978.06 -5A 0.06 0.06 0 0 1 978 -4.94 L975.26 -4.94 L975.26 0A 0.06 0.06 0 0 1 975.2 0.06 L940 0.06A 0.06 0.06 0 0 1 939.94 0 L939.94 -15.743A 0.06 0.06 0 0 1 940 -15.803 L947.44 -15.803 L947.44 -18.483 L940 -18.483A 0.06 0.06 0 0 1 939.94 -18.543 L939.94 -26A 0.06 0.06 0 0 1 940 -26.06 L968 -26.06A 1.94 1.94 0 0 0 969.94 -28 L969.94 -60.7A 1.94 1.94 0 0 0 968 -62.64A 2.06 2.06 0 0 1 965.94 -64.7 L965.94 -80.243A 1.94 1.94 0 0 0 964 -82.183 L953 -82.183A 0.06 0.06 0 0 1 952.94 -82.243 L952.94 -89.243A 0.06 0.06 0 0 1 953 -89.303 L962.94 -89.303 L962.94 -91.983 L953 -91.983A 0.06 0.06 0 0 1 952.94 -92.043 L952.94 -98.243A 0.06 0.06 0 0 1 953 -98.303 L964 -98.303A 1.94 1.94 0 0 0 965.94 -100.243 L965.94 -128.487A 1.94 1.94 0 0 0 964 -130.427 L963.94 -130.427 z"
       stroke-width="0.1"
       stroke="rgb(255,0,0)"
       fill="none"
       id="op_2D_Profile3-233-2" />
  </g>
  <g
     style="stroke-width:0.99999999;stroke-miterlimit:4;stroke-dasharray:none;stroke:#ff0000;stroke-opacity:1"
     id="Setup4">
    <path
       style="stroke-width:0.99999999;stroke-miterlimit:4;stroke-dasharray:none;stroke:#ff0000;stroke-opacity:1"
       d=" M1007.66 -114.786 L1007.66 -114.666 L1017.54 -114.666 L1017.54 -117.346 L1007.66 -117.346 L1007.66 -114.786 z M1001.54 -52.243 L1001.54 -67.003 L998.86 -67.003 L998.86 -52.123 L1001.54 -52.123 L1001.54 -52.243 z M1001.42 -27.003 L998.86 -27.003 L998.86 -17.123 L1001.54 -17.123 L1001.54 -27.003 L1001.42 -27.003 z M1007.66 -6.34 L1007.66 -3.78 L1019.54 -3.78 L1019.54 -6.46 L1007.66 -6.46 L1007.66 -6.34 z M1007.66 0.06 L993.6 0.06A 0.06 0.06 0 0 1 993.54 0 L993.54 -5.503 L990.8 -5.503A 0.06 0.06 0 0 1 990.74 -5.563 L990.74 -15.563A 0.06 0.06 0 0 1 990.8 -15.623 L993.54 -15.623 L993.54 -35.503 L990.8 -35.503A 0.06 0.06 0 0 1 990.74 -35.563 L990.74 -45.563A 0.06 0.06 0 0 1 990.8 -45.623 L993.54 -45.623 L993.54 -75.503 L990.8 -75.503A 0.06 0.06 0 0 1 990.74 -75.563 L990.74 -85.563A 0.06 0.06 0 0 1 990.8 -85.623 L993.54 -85.623 L993.54 -102.703 L990.8 -102.703A 0.06 0.06 0 0 1 990.74 -102.763 L990.74 -115.563A 0.06 0.06 0 0 1 990.8 -115.623 L993.54 -115.623 L993.54 -121.126A 0.06 0.06 0 0 1 993.6 -121.186 L1031.6 -121.186A 0.06 0.06 0 0 1 1031.66 -121.126 L1031.66 -113.306A 0.06 0.06 0 0 1 1031.6 -113.246 L1007.6 -113.246A 1.94 1.94 0 0 0 1005.66 -111.306 L1005.66 -83.063A 1.94 1.94 0 0 0 1007.6 -81.123 L1018.6 -81.123A 0.06 0.06 0 0 1 1018.66 -81.063 L1018.66 -74.863A 0.06 0.06 0 0 1 1018.6 -74.803 L1008.66 -74.803 L1008.66 -72.123 L1018.6 -72.123A 0.06 0.06 0 0 1 1018.66 -72.063 L1018.66 -65.063A 0.06 0.06 0 0 1 1018.6 -65.003 L1007.6 -65.003A 1.94 1.94 0 0 0 1005.66 -63.063 L1005.66 -24.82A 1.94 1.94 0 0 0 1007.6 -22.88 L1018.6 -22.88A 0.06 0.06 0 0 1 1018.66 -22.82 L1018.66 -10.857 L1022.614 -8.88 L1031.6 -8.88A 0.06 0.06 0 0 1 1031.66 -8.82 L1031.66 -1.363A 0.06 0.06 0 0 1 1031.6 -1.303 L1024.16 -1.303 L1024.16 0A 0.06 0.06 0 0 1 1024.1 0.06 L1007.66 0.06 z"
       stroke-width="0.1"
       stroke="rgb(255,0,0)"
       fill="none"
       id="op_2D_Profile4-235-3" />
  </g>
  <g
     style="stroke-width:0.99999999;stroke-miterlimit:4;stroke-dasharray:none;stroke:#ff0000;stroke-opacity:1"
     id="Setup5">
    <path
       style="stroke-width:0.99999999;stroke-miterlimit:4;stroke-dasharray:none;stroke:#ff0000;stroke-opacity:1"
       d=" M1058.84 -68.523 L1058.84 -71.083 L1048.96 -71.083 L1048.96 -68.403 L1058.84 -68.403 L1058.84 -68.523 z M1063.46 -68.523 L1063.46 -63.403 L1066.2 -63.403A 0.06 0.06 0 0 1 1066.26 -63.343 L1066.26 -48.343A 0.06 0.06 0 0 1 1066.2 -48.283 L1063.46 -48.283 L1063.46 -2.8A 0.06 0.06 0 0 1 1063.4 -2.74 L1057.71 -2.74 L1057.71 0A 0.06 0.06 0 0 1 1057.65 0.06 L1050.15 0.06A 0.06 0.06 0 0 1 1050.09 0 L1050.09 -2.74 L1044.4 -2.74A 0.06 0.06 0 0 1 1044.34 -2.8 L1044.34 -13.283 L1041.6 -13.283A 0.06 0.06 0 0 1 1041.54 -13.343 L1041.54 -23.343A 0.06 0.06 0 0 1 1041.6 -23.403 L1044.34 -23.403 L1044.34 -48.283 L1041.6 -48.283A 0.06 0.06 0 0 1 1041.54 -48.343 L1041.54 -63.343A 0.06 0.06 0 0 1 1041.6 -63.403 L1044.34 -63.403 L1044.34 -76.143A 0.06 0.06 0 0 1 1044.4 -76.203 L1063.4 -76.203A 0.06 0.06 0 0 1 1063.46 -76.143 L1063.46 -68.523 z"
       stroke-width="0.1"
       stroke="rgb(255,0,0)"
       fill="none"
       id="op_2D_Profile6-238-4" />
  </g>
  <g
     style="stroke-width:0.99999999;stroke-miterlimit:4;stroke-dasharray:none;stroke:#ff0000;stroke-opacity:1"
     id="Setup6">
    <path
       style="stroke-width:0.99999999;stroke-miterlimit:4;stroke-dasharray:none;stroke:#ff0000;stroke-opacity:1"
       d=" M1100.8 -17.74 L1098.06 -17.74 L1098.06 -10.8A 0.06 0.06 0 0 1 1098 -10.74 L1093.56 -10.74 L1093.56 0A 0.06 0.06 0 0 1 1093.5 0.06 L1083.5 0.06A 0.06 0.06 0 0 1 1083.44 0 L1083.44 -10.74 L1079 -10.74A 0.06 0.06 0 0 1 1078.94 -10.8 L1078.94 -17.74 L1076.2 -17.74A 0.06 0.06 0 0 1 1076.14 -17.8 L1076.14 -32.8A 0.06 0.06 0 0 1 1076.2 -32.86 L1083.44 -32.86 L1083.44 -36A 0.06 0.06 0 0 1 1083.458 -36.042 L1085.458 -38.042A 0.06 0.06 0 0 1 1085.5 -38.06 L1091.5 -38.06A 0.06 0.06 0 0 1 1091.542 -38.042 L1093.542 -36.042A 0.06 0.06 0 0 1 1093.56 -36 L1093.56 -32.86 L1100.8 -32.86A 0.06 0.06 0 0 1 1100.86 -32.8 L1100.86 -17.8A 0.06 0.06 0 0 1 1100.8 -17.74 z"
       stroke-width="0.1"
       stroke="rgb(255,0,0)"
       fill="none"
       id="op_2D_Profile7-240-5" />
  </g>
  <g
     style="stroke-width:0.99999999;stroke-miterlimit:4;stroke-dasharray:none;stroke:#ff0000;stroke-opacity:1"
     id="Setup7">
    <path
       style="stroke-width:0.99999999;stroke-miterlimit:4;stroke-dasharray:none;stroke:#ff0000;stroke-opacity:1"
       d=" M1125.1 -17.11A 1.69 1.69 0 0 0 1126.79 -18.8A 1.69 1.69 0 0 0 1125.1 -20.49 L1121.1 -20.49A 1.69 1.69 0 0 0 1119.41 -18.8A 1.69 1.69 0 0 0 1121.1 -17.11 L1125.1 -17.11 z M1132.78 -13.74 L1132.66 -13.74 L1132.66 -2.6A 0.06 0.06 0 0 1 1132.6 -2.54 L1128.16 -2.54 L1128.16 0A 0.06 0.06 0 0 1 1128.1 0.06 L1118.1 0.06A 0.06 0.06 0 0 1 1118.04 0 L1118.04 -2.54 L1113.6 -2.54A 0.06 0.06 0 0 1 1113.54 -2.6 L1113.54 -13.74 L1110.8 -13.74A 0.06 0.06 0 0 1 1110.74 -13.8 L1110.74 -23.8A 0.06 0.06 0 0 1 1110.8 -23.86 L1113.54 -23.86 L1113.54 -35A 0.06 0.06 0 0 1 1113.6 -35.06 L1132.6 -35.06A 0.06 0.06 0 0 1 1132.66 -35 L1132.66 -23.86 L1135.4 -23.86A 0.06 0.06 0 0 1 1135.46 -23.8 L1135.46 -13.8A 0.06 0.06 0 0 1 1135.4 -13.74 L1132.78 -13.74 z"
       stroke-width="0.1"
       stroke="rgb(255,0,0)"
       fill="none"
       id="op_2D_Profile8-242-6" />
  </g>
  <g
     style="stroke-width:0.99999999;stroke-miterlimit:4;stroke-dasharray:none;stroke:#ff0000;stroke-opacity:1"
     id="Setup8">
    <path
       style="stroke-width:0.99999999;stroke-miterlimit:4;stroke-dasharray:none;stroke:#ff0000;stroke-opacity:1"
       d=" M1156.01 -27.26 L1161.39 -27.26 L1161.39 -29.94 L1154.01 -29.94 L1154.01 -27.26 L1156.01 -27.26 z M1156.01 -17.89 L1155.7 -17.89A 1.69 1.69 0 0 0 1154.01 -16.2A 1.69 1.69 0 0 0 1155.7 -14.51 L1159.7 -14.51A 1.69 1.69 0 0 0 1161.39 -16.2A 1.69 1.69 0 0 0 1159.7 -17.89 L1156.01 -17.89 z M1148.02 -21.26 L1148.14 -21.26 L1148.14 -32.4A 0.06 0.06 0 0 1 1148.2 -32.46 L1152.64 -32.46 L1152.64 -35A 0.06 0.06 0 0 1 1152.7 -35.06 L1162.7 -35.06A 0.06 0.06 0 0 1 1162.76 -35 L1162.76 -32.46 L1167.2 -32.46A 0.06 0.06 0 0 1 1167.26 -32.4 L1167.26 -23.26 L1170 -23.26A 0.06 0.06 0 0 1 1170.06 -23.2 L1170.06 -11.2A 0.06 0.06 0 0 1 1170 -11.14 L1167.26 -11.14 L1167.26 0A 0.06 0.06 0 0 1 1167.2 0.06 L1148.2 0.06A 0.06 0.06 0 0 1 1148.14 0 L1148.14 -9.14 L1145.4 -9.14A 0.06 0.06 0 0 1 1145.34 -9.2 L1145.34 -21.2A 0.06 0.06 0 0 1 1145.4 -21.26 L1148.02 -21.26 z"
       stroke-width="0.1"
       stroke="rgb(255,0,0)"
       fill="none"
       id="op_2D_Profile9-244-7" />
  </g>
  <g
     style="stroke-width:0.99999999;stroke-miterlimit:4;stroke-dasharray:none;stroke:#ff0000;stroke-opacity:1"
     id="Setup9">
    <path
       style="stroke-width:0.99999999;stroke-miterlimit:4;stroke-dasharray:none;stroke:#ff0000;stroke-opacity:1"
       d=" M1194.94 -12.38 L1194.94 -14.94 L1185.06 -14.94 L1185.06 -12.26 L1194.94 -12.26 L1194.94 -12.38 z M1203.06 -14.82 L1203.06 -12.26 L1212.94 -12.26 L1212.94 -14.94 L1203.06 -14.94 L1203.06 -14.82 z M1201.69 -30A 2.69 2.69 0 0 0 1199 -32.69A 2.69 2.69 0 0 0 1196.31 -30A 2.69 2.69 0 0 0 1199 -27.31A 2.69 2.69 0 0 0 1201.69 -30 z M1203.06 -45.18 L1203.06 -45.06 L1212.94 -45.06 L1212.94 -47.74 L1203.06 -47.74 L1203.06 -45.18 z M1194.94 -45.18 L1194.94 -47.74 L1185.06 -47.74 L1185.06 -45.06 L1194.94 -45.06 L1194.94 -45.18 z M1194.94 -60.06 L1218 -60.06A 0.06 0.06 0 0 1 1218.06 -60 L1218.06 -55.06 L1220.8 -55.06A 0.06 0.06 0 0 1 1220.86 -55 L1220.86 -45A 0.06 0.06 0 0 1 1220.8 -44.94 L1218.06 -44.94 L1218.06 -15.06 L1220.8 -15.06A 0.06 0.06 0 0 1 1220.86 -15 L1220.86 -5A 0.06 0.06 0 0 1 1220.8 -4.94 L1218.06 -4.94 L1218.06 0A 0.06 0.06 0 0 1 1218 0.06 L1180 0.06A 0.06 0.06 0 0 1 1179.94 0 L1179.94 -60A 0.06 0.06 0 0 1 1180 -60.06 L1194.94 -60.06 z"
       stroke-width="0.1"
       stroke="rgb(255,0,0)"
       fill="none"
       id="op_2D_Profile10-246-8" />
  </g>
  <g
     style="stroke-width:0.99999999;stroke-miterlimit:4;stroke-dasharray:none;stroke:#ff0000;stroke-opacity:1"
     id="Setup10">
    <path
       style="stroke-width:0.99999999;stroke-miterlimit:4;stroke-dasharray:none;stroke:#ff0000;stroke-opacity:1"
       d=" M1248.54 -36.68 L1248.54 -39.24 L1238.66 -39.24 L1238.66 -36.56 L1248.54 -36.56 L1248.54 -36.68 z M1256.78 -36.56 L1266.54 -36.56 L1266.54 -39.24 L1256.66 -39.24 L1256.66 -36.56 L1256.78 -36.56 z M1252.375 -18.819A 2.69 2.69 0 0 0 1255.281 -21.275A 2.69 2.69 0 0 0 1252.825 -24.181A 2.69 2.69 0 0 0 1249.919 -21.725A 2.69 2.69 0 0 0 1252.375 -18.819 z M1248.54 -6.32 L1248.54 -6.44 L1238.66 -6.44 L1238.66 -3.76 L1248.54 -3.76 L1248.54 -6.32 z M1256.66 -6.32 L1256.66 -3.76 L1266.54 -3.76 L1266.54 -6.44 L1256.66 -6.44 L1256.66 -6.32 z M1256.66 0.06 L1233.6 0.06A 0.06 0.06 0 0 1 1233.54 0 L1233.54 -16.44 L1230.8 -16.44A 0.06 0.06 0 0 1 1230.74 -16.5 L1230.74 -26.5A 0.06 0.06 0 0 1 1230.8 -26.56 L1233.54 -26.56 L1233.54 -43A 0.06 0.06 0 0 1 1233.6 -43.06 L1271.6 -43.06A 0.06 0.06 0 0 1 1271.66 -43 L1271.66 0A 0.06 0.06 0 0 1 1271.6 0.06 L1256.66 0.06 z"
       stroke-width="0.1"
       stroke="rgb(255,0,0)"
       fill="none"
       id="op_2D_Profile11-248-9" />
  </g>
  <g
     style="stroke-width:0.99999999;stroke-miterlimit:4;stroke-dasharray:none;stroke:#ff0000;stroke-opacity:1"
     id="Setup11">
    <path
       style="stroke-width:0.99999999;stroke-miterlimit:4;stroke-dasharray:none;stroke:#ff0000;stroke-opacity:1"
       d=" M1290.96 -23A 0.06 0.06 0 0 1 1290.9 -22.94 L1288.16 -22.94 L1288.16 -15.06 L1290.9 -15.06A 0.06 0.06 0 0 1 1290.96 -15 L1290.96 -5A 0.06 0.06 0 0 1 1290.9 -4.94 L1288.16 -4.94 L1288.16 0A 0.06 0.06 0 0 1 1288.1 0.06 L1284.4 0.06A 0.06 0.06 0 0 1 1284.34 0 L1284.34 -4.94 L1281.6 -4.94A 0.06 0.06 0 0 1 1281.54 -5 L1281.54 -15A 0.06 0.06 0 0 1 1281.6 -15.06 L1284.34 -15.06 L1284.34 -22.94 L1281.6 -22.94A 0.06 0.06 0 0 1 1281.54 -23 L1281.54 -33A 0.06 0.06 0 0 1 1281.6 -33.06 L1284.34 -33.06 L1284.34 -38A 0.06 0.06 0 0 1 1284.4 -38.06 L1288.1 -38.06A 0.06 0.06 0 0 1 1288.16 -38 L1288.16 -33.06 L1290.9 -33.06A 0.06 0.06 0 0 1 1290.96 -33 L1290.96 -23 z"
       stroke-width="0.1"
       stroke="rgb(255,0,0)"
       fill="none"
       id="op_2D_Profile12-250-10" />
  </g>
  <g
     style="stroke-width:0.99999999;stroke-miterlimit:4;stroke-dasharray:none;stroke:#ff0000;stroke-opacity:1"
     id="Setup12">
    <path
       style="stroke-width:0.99999999;stroke-miterlimit:4;stroke-dasharray:none;stroke:#ff0000;stroke-opacity:1"
       d=" M1307.46 0A 0.06 0.06 0 0 1 1307.4 0.06 L1303.7 0.06A 0.06 0.06 0 0 1 1303.64 0 L1303.64 -4.94 L1300.9 -4.94A 0.06 0.06 0 0 1 1300.84 -5 L1300.84 -15A 0.06 0.06 0 0 1 1300.9 -15.06 L1303.64 -15.06 L1303.64 -22.94 L1300.9 -22.94A 0.06 0.06 0 0 1 1300.84 -23 L1300.84 -33A 0.06 0.06 0 0 1 1300.9 -33.06 L1303.64 -33.06 L1303.64 -38A 0.06 0.06 0 0 1 1303.7 -38.06 L1307.4 -38.06A 0.06 0.06 0 0 1 1307.46 -38 L1307.46 -33.06 L1310.2 -33.06A 0.06 0.06 0 0 1 1310.26 -33 L1310.26 -23A 0.06 0.06 0 0 1 1310.2 -22.94 L1307.46 -22.94 L1307.46 -15.06 L1310.2 -15.06A 0.06 0.06 0 0 1 1310.26 -15 L1310.26 -5A 0.06 0.06 0 0 1 1310.2 -4.94 L1307.46 -4.94 L1307.46 0 z"
       stroke-width="0.1"
       stroke="rgb(255,0,0)"
       fill="none"
       id="op_2D_Profile13-252-11" />
  </g>
  <g
     style="stroke-width:0.99999999;stroke-miterlimit:4;stroke-dasharray:none;stroke:#ff0000;stroke-opacity:1"
     id="Setup13">
    <path
       style="stroke-width:0.99999999;stroke-miterlimit:4;stroke-dasharray:none;stroke:#ff0000;stroke-opacity:1"
       d=" M1332.4 -13.94 L1327.925 -13.94 L1325.65 -10 L1327.925 -6.06 L1332.475 -6.06 L1334.75 -10 L1332.475 -13.94 L1332.4 -13.94 z M1335.104 -18.784A 10.06 10.06 0 0 1 1338.984 -5.096A 10.06 10.06 0 0 1 1325.296 -1.216A 10.06 10.06 0 0 1 1320.14 -10A 10.06 10.06 0 0 1 1323.086 -17.114A 10.06 10.06 0 0 1 1330.2 -20.06A 10.06 10.06 0 0 1 1335.104 -18.784 z"
       stroke-width="0.1"
       stroke="rgb(255,0,0)"
       fill="none"
       id="op_2D_Profile14-254-12" />
  </g>
  <g
     style="stroke-width:0.99999999;stroke-miterlimit:4;stroke-dasharray:none;stroke:#ff0000;stroke-opacity:1"
     id="Setup14">
    <path
       style="stroke-width:0.99999999;stroke-miterlimit:4;stroke-dasharray:none;stroke:#ff0000;stroke-opacity:1"
       d=" M1367.44 -5.18 L1367.44 -7.74 L1357.56 -7.74 L1357.56 -5.06 L1367.44 -5.06 L1367.44 -5.18 z M1372.06 -5.18 L1372.06 0A 0.06 0.06 0 0 1 1372 0.06 L1353 0.06A 0.06 0.06 0 0 1 1352.94 0 L1352.94 -12.74 L1350.2 -12.74A 0.06 0.06 0 0 1 1350.14 -12.8 L1350.14 -27.8A 0.06 0.06 0 0 1 1350.2 -27.86 L1352.94 -27.86 L1352.94 -52.74 L1350.2 -52.74A 0.06 0.06 0 0 1 1350.14 -52.8 L1350.14 -62.8A 0.06 0.06 0 0 1 1350.2 -62.86 L1372 -62.86A 0.06 0.06 0 0 1 1372.06 -62.8 L1372.06 -27.86 L1374.8 -27.86A 0.06 0.06 0 0 1 1374.86 -27.8 L1374.86 -12.8A 0.06 0.06 0 0 1 1374.8 -12.74 L1372.06 -12.74 L1372.06 -5.18 z"
       stroke-width="0.1"
       stroke="rgb(255,0,0)"
       fill="none"
       id="op_2D_Profile15-256-13" />
  </g>
  <g
     style="stroke-width:0.99999999;stroke-miterlimit:4;stroke-dasharray:none;stroke:#ff0000;stroke-opacity:1"
     id="Setup15">
    <path
       style="stroke-width:0.99999999;stroke-miterlimit:4;stroke-dasharray:none;stroke:#ff0000;stroke-opacity:1"
       d=" M1392.86 -58.063 L1392.86 -43.303 L1395.54 -43.303 L1395.54 -58.183 L1392.86 -58.183 L1392.86 -58.063 z M1390.34 -58.063 L1390.34 -88.883 L1384.8 -88.883A 0.06 0.06 0 0 1 1384.74 -88.943 L1384.74 -101.743A 0.06 0.06 0 0 1 1384.8 -101.803 L1387.54 -101.803 L1387.54 -104.487A 0.06 0.06 0 0 1 1387.6 -104.547 L1396.6 -104.547A 0.06 0.06 0 0 1 1396.627 -104.54 L1400.627 -102.54A 0.06 0.06 0 0 1 1400.66 -102.487 L1400.66 -66.043A 0.06 0.06 0 0 1 1400.6 -65.983 L1395.66 -65.983 L1395.66 -63.303 L1400.6 -63.303A 0.06 0.06 0 0 1 1400.66 -63.243 L1400.66 -39.243A 2.06 2.06 0 0 1 1398.6 -37.183 L1397.6 -37.183A 1.94 1.94 0 0 0 1395.66 -35.243 L1395.66 -1A 0.06 0.06 0 0 1 1395.619 -0.943 L1392.619 0.057 L1392.613 0.059 L1392.606 0.06 L1392.6 0.06 L1387.6 0.06A 0.06 0.06 0 0 1 1387.54 0 L1387.54 -1.683 L1384.8 -1.683A 0.06 0.06 0 0 1 1384.74 -1.743 L1384.74 -11.743A 0.06 0.06 0 0 1 1384.8 -11.803 L1390.34 -11.803 L1390.34 -58.063 z"
       stroke-width="0.1"
       stroke="rgb(255,0,0)"
       fill="none"
       id="op_2D_Profile16-258-14" />
  </g>
  <g
     style="stroke-width:0.99999999;stroke-miterlimit:4;stroke-dasharray:none;stroke:#ff0000;stroke-opacity:1"
     id="Setup16">
    <path
       style="stroke-width:0.99999999;stroke-miterlimit:4;stroke-dasharray:none;stroke:#ff0000;stroke-opacity:1"
       d=" M1415.66 -43.423 L1415.66 -43.303 L1418.34 -43.303 L1418.34 -58.183 L1415.66 -58.183 L1415.66 -43.423 z M1415.66 -18.063 L1415.66 -8.303 L1418.34 -8.303 L1418.34 -18.183 L1415.66 -18.183 L1415.66 -18.063 z M1410.54 -18.063 L1410.54 -63.243A 0.06 0.06 0 0 1 1410.6 -63.303 L1415.54 -63.303 L1415.54 -65.983 L1410.6 -65.983A 0.06 0.06 0 0 1 1410.54 -66.043 L1410.54 -102.487A 0.06 0.06 0 0 1 1410.573 -102.54 L1414.573 -104.54A 0.06 0.06 0 0 1 1414.6 -104.547 L1423.6 -104.547A 0.06 0.06 0 0 1 1423.66 -104.487 L1423.66 -101.803 L1426.4 -101.803A 0.06 0.06 0 0 1 1426.46 -101.743 L1426.46 -88.943A 0.06 0.06 0 0 1 1426.4 -88.883 L1420.86 -88.883 L1420.86 -11.803 L1426.4 -11.803A 0.06 0.06 0 0 1 1426.46 -11.743 L1426.46 -1.743A 0.06 0.06 0 0 1 1426.4 -1.683 L1423.66 -1.683 L1423.66 0A 0.06 0.06 0 0 1 1423.6 0.06 L1414.6 0.06A 0.06 0.06 0 0 1 1414.573 0.054 L1410.573 -1.946A 0.06 0.06 0 0 1 1410.54 -2 L1410.54 -18.063 z"
       stroke-width="0.1"
       stroke="rgb(255,0,0)"
       fill="none"
       id="op_2D_Profile18-262-15" />
  </g>
  <g
     style="stroke-width:0.99999999;stroke-miterlimit:4;stroke-dasharray:none;stroke:#ff0000;stroke-opacity:1"
     id="Setup17">
    <path
       style="stroke-width:0.99999999;stroke-miterlimit:4;stroke-dasharray:none;stroke:#ff0000;stroke-opacity:1"
       d=" M1448.875 -138.553A 2.19 2.19 0 0 0 1451.065 -140.743A 2.19 2.19 0 0 0 1448.875 -142.933A 2.19 2.19 0 0 0 1446.685 -140.743A 2.19 2.19 0 0 0 1448.875 -138.553 z M1448.875 -16.933A 2.19 2.19 0 0 0 1446.685 -14.743A 2.19 2.19 0 0 0 1448.875 -12.553A 2.19 2.19 0 0 0 1451.065 -14.743A 2.19 2.19 0 0 0 1448.875 -16.933 z M1444.208 -11.081 L1439.163 -15.105A 0.06 0.06 0 0 1 1439.14 -15.152 L1439.14 -37.683 L1436.4 -37.683A 0.06 0.06 0 0 1 1436.34 -37.743 L1436.34 -114.943A 0.06 0.06 0 0 1 1436.4 -115.003 L1439.14 -115.003 L1439.14 -140.335A 0.06 0.06 0 0 1 1439.163 -140.382 L1458.163 -155.534A 0.06 0.06 0 0 1 1458.247 -155.524A 0.06 0.06 0 0 1 1458.26 -155.487 L1458.26 -115.003 L1461 -115.003A 0.06 0.06 0 0 1 1461.06 -114.943 L1461.06 -37.743A 0.06 0.06 0 0 1 1461 -37.683 L1458.26 -37.683 L1458.26 0A 0.06 0.06 0 0 1 1458.2 0.06A 0.06 0.06 0 0 1 1458.163 0.047 L1444.208 -11.081 z"
       stroke-width="0.1"
       stroke="rgb(255,0,0)"
       fill="none"
       id="op_2D_Profile17-261-16" />
  </g>
  <g
     style="stroke-width:0.99999999;stroke-miterlimit:4;stroke-dasharray:none;stroke:#ff0000;stroke-opacity:1"
     id="Setup18">
    <path
       style="stroke-width:0.99999999;stroke-miterlimit:4;stroke-dasharray:none;stroke:#ff0000;stroke-opacity:1"
       d=" M1480.675 -19.666A 2.69 2.69 0 0 0 1477.985 -16.976A 2.69 2.69 0 0 0 1480.675 -14.286A 2.69 2.69 0 0 0 1483.365 -16.976A 2.69 2.69 0 0 0 1480.675 -19.666 z M1480.675 -23.193 L1485.44 -23.193 L1485.44 -25.873 L1475.56 -25.873 L1475.56 -23.193 L1480.675 -23.193 z M1480.675 -30.993 L1490 -30.993A 0.06 0.06 0 0 1 1490.06 -30.933 L1490.06 -7.293 L1492.8 -7.293A 0.06 0.06 0 0 1 1492.86 -7.233 L1492.86 0A 0.06 0.06 0 0 1 1492.8 0.06A 0.06 0.06 0 0 1 1492.763 0.047 L1470.963 -17.338A 0.06 0.06 0 0 1 1470.94 -17.385 L1470.94 -30.933A 0.06 0.06 0 0 1 1471 -30.993 L1480.675 -30.993 z"
       stroke-width="0.1"
       stroke="rgb(255,0,0)"
       fill="none"
       id="op_2D_Profile19-264-17" />
  </g>
  <g
     style="stroke-width:0.99999999;stroke-miterlimit:4;stroke-dasharray:none;stroke:#ff0000;stroke-opacity:1"
     id="Setup19">
    <path
       style="stroke-width:0.99999999;stroke-miterlimit:4;stroke-dasharray:none;stroke:#ff0000;stroke-opacity:1"
       d=" M1512.475 -11.267A 2.69 2.69 0 0 0 1515.165 -13.957A 2.69 2.69 0 0 0 1512.475 -16.647A 2.69 2.69 0 0 0 1509.785 -13.957A 2.69 2.69 0 0 0 1512.475 -11.267 z M1512.475 -7.74 L1507.36 -7.74 L1507.36 -5.06 L1517.24 -5.06 L1517.24 -7.74 L1512.475 -7.74 z M1512.475 0.06 L1502.8 0.06A 0.06 0.06 0 0 1 1502.74 0 L1502.74 -13.548A 0.06 0.06 0 0 1 1502.763 -13.595 L1524.563 -30.98A 0.06 0.06 0 0 1 1524.647 -30.97A 0.06 0.06 0 0 1 1524.66 -30.933 L1524.66 -23.7A 0.06 0.06 0 0 1 1524.6 -23.64 L1521.86 -23.64 L1521.86 0A 0.06 0.06 0 0 1 1521.8 0.06 L1512.475 0.06 z"
       stroke-width="0.1"
       stroke="rgb(255,0,0)"
       fill="none"
       id="op_2D_Profile20-266-18" />
  </g>
  <g
     style="stroke-width:0.99999999;stroke-miterlimit:4;stroke-dasharray:none;stroke:#ff0000;stroke-opacity:1"
     id="Setup20">
    <path
       style="stroke-width:0.99999999;stroke-miterlimit:4;stroke-dasharray:none;stroke:#ff0000;stroke-opacity:1"
       d=" M1561.35 -40.86A 0.06 0.06 0 0 1 1561.41 -40.8 L1561.41 -38.06 L1578.1 -38.06A 0.06 0.06 0 0 1 1578.16 -38 L1578.16 0A 0.06 0.06 0 0 1 1578.1 0.06 L1534.6 0.06A 0.06 0.06 0 0 1 1534.54 0 L1534.54 -38A 0.06 0.06 0 0 1 1534.6 -38.06 L1551.29 -38.06 L1551.29 -40.8A 0.06 0.06 0 0 1 1551.35 -40.86 L1561.35 -40.86 z"
       stroke-width="0.1"
       stroke="rgb(255,0,0)"
       fill="none"
       id="op_2D_Profile22-269-19" />
  </g>
  <g
     style="stroke-width:0.99999999;stroke-miterlimit:4;stroke-dasharray:none;stroke:#ff0000;stroke-opacity:1"
     id="Setup21">
    <path
       style="stroke-width:0.99999999;stroke-miterlimit:4;stroke-dasharray:none;stroke:#ff0000;stroke-opacity:1"
       d=" M1614.85 -40.86A 0.06 0.06 0 0 1 1614.91 -40.8 L1614.91 -38.06 L1631.6 -38.06A 0.06 0.06 0 0 1 1631.66 -38 L1631.66 0A 0.06 0.06 0 0 1 1631.6 0.06 L1588.1 0.06A 0.06 0.06 0 0 1 1588.04 0 L1588.04 -38A 0.06 0.06 0 0 1 1588.1 -38.06 L1604.79 -38.06 L1604.79 -40.8A 0.06 0.06 0 0 1 1604.85 -40.86 L1614.85 -40.86 z"
       stroke-width="0.1"
       stroke="rgb(255,0,0)"
       fill="none"
       id="op_2D_Profile23-271-20" />
  </g>
  <g
     style="stroke-width:0.99999999;stroke-miterlimit:4;stroke-dasharray:none;stroke:#ff0000;stroke-opacity:1"
     id="Setup22">
    <path
       style="stroke-width:0.99999999;stroke-miterlimit:4;stroke-dasharray:none;stroke:#ff0000;stroke-opacity:1"
       d=" M1668.35 -40.86A 0.06 0.06 0 0 1 1668.41 -40.8 L1668.41 -38.06 L1685.1 -38.06A 0.06 0.06 0 0 1 1685.16 -38 L1685.16 0A 0.06 0.06 0 0 1 1685.1 0.06 L1641.6 0.06A 0.06 0.06 0 0 1 1641.54 0 L1641.54 -38A 0.06 0.06 0 0 1 1641.6 -38.06 L1658.29 -38.06 L1658.29 -40.8A 0.06 0.06 0 0 1 1658.35 -40.86 L1668.35 -40.86 z"
       stroke-width="0.1"
       stroke="rgb(255,0,0)"
       fill="none"
       id="op_2D_Profile24-273-21" />
  </g>
  <g
     style="stroke-width:0.99999999;stroke-miterlimit:4;stroke-dasharray:none;stroke:#ff0000;stroke-opacity:1"
     id="Setup23">
    <path
       style="stroke-width:0.99999999;stroke-miterlimit:4;stroke-dasharray:none;stroke:#ff0000;stroke-opacity:1"
       d=" M1711.85 0.06A 0.06 0.06 0 0 1 1711.79 0 L1711.79 -2.74 L1695.1 -2.74A 0.06 0.06 0 0 1 1695.04 -2.8 L1695.04 -40.8A 0.06 0.06 0 0 1 1695.1 -40.86 L1738.6 -40.86A 0.06 0.06 0 0 1 1738.66 -40.8 L1738.66 -2.8A 0.06 0.06 0 0 1 1738.6 -2.74 L1721.91 -2.74 L1721.91 0A 0.06 0.06 0 0 1 1721.85 0.06 L1711.85 0.06 z"
       stroke-width="0.1"
       stroke="rgb(255,0,0)"
       fill="none"
       id="op_2D_Profile25-275-22" />
  </g>
  <g
     style="stroke-width:0.99999999;stroke-miterlimit:4;stroke-dasharray:none;stroke:#ff0000;stroke-opacity:1"
     id="Setup24">
    <path
       style="stroke-width:0.99999999;stroke-miterlimit:4;stroke-dasharray:none;stroke:#ff0000;stroke-opacity:1"
       d=" M1765.35 0.06A 0.06 0.06 0 0 1 1765.29 0 L1765.29 -2.74 L1748.6 -2.74A 0.06 0.06 0 0 1 1748.54 -2.8 L1748.54 -40.8A 0.06 0.06 0 0 1 1748.6 -40.86 L1792.1 -40.86A 0.06 0.06 0 0 1 1792.16 -40.8 L1792.16 -2.8A 0.06 0.06 0 0 1 1792.1 -2.74 L1775.41 -2.74 L1775.41 0A 0.06 0.06 0 0 1 1775.35 0.06 L1765.35 0.06 z"
       stroke-width="0.1"
       stroke="rgb(255,0,0)"
       fill="none"
       id="op_2D_Profile26-277-23" />
  </g>
  <g
     style="stroke-width:0.99999999;stroke-miterlimit:4;stroke-dasharray:none;stroke:#ff0000;stroke-opacity:1"
     id="Setup25">
    <path
       style="stroke-width:0.99999999;stroke-miterlimit:4;stroke-dasharray:none;stroke:#ff0000;stroke-opacity:1"
       d=" M1818.85 0.06A 0.06 0.06 0 0 1 1818.79 0 L1818.79 -2.74 L1802.1 -2.74A 0.06 0.06 0 0 1 1802.04 -2.8 L1802.04 -40.8A 0.06 0.06 0 0 1 1802.1 -40.86 L1845.6 -40.86A 0.06 0.06 0 0 1 1845.66 -40.8 L1845.66 -2.8A 0.06 0.06 0 0 1 1845.6 -2.74 L1828.91 -2.74 L1828.91 0A 0.06 0.06 0 0 1 1828.85 0.06 L1818.85 0.06 z"
       stroke-width="0.1"
       stroke="rgb(255,0,0)"
       fill="none"
       id="op_2D_Profile27-279-24" />
  </g>
  <g
     style="stroke-width:0.99999999;stroke-miterlimit:4;stroke-dasharray:none;stroke:#ff0000;stroke-opacity:1"
     id="Setup26">
    <path
       style="stroke-width:0.99999999;stroke-miterlimit:4;stroke-dasharray:none;stroke:#ff0000;stroke-opacity:1"
       d=" M1860.66 -9A 4.94 4.94 0 0 0 1865.6 -4.06A 4.94 4.94 0 0 0 1869.54 -6.02 L1869.54 -11.98A 4.94 4.94 0 0 0 1862.62 -12.94A 4.94 4.94 0 0 0 1860.66 -9 z M1855.54 -9 L1855.54 -18A 0.06 0.06 0 0 1 1855.6 -18.06 L1875.6 -18.06A 0.06 0.06 0 0 1 1875.66 -18 L1875.66 0A 0.06 0.06 0 0 1 1875.6 0.06 L1855.6 0.06A 0.06 0.06 0 0 1 1855.54 0 L1855.54 -9 z"
       stroke-width="0.1"
       stroke="rgb(255,0,0)"
       fill="none"
       id="op_2D_Profile28-281-25" />
  </g>
  <g
     style="stroke-width:0.99999999;stroke-miterlimit:4;stroke-dasharray:none;stroke:#ff0000;stroke-opacity:1"
     id="Setup27">
    <path
       style="stroke-width:0.99999999;stroke-miterlimit:4;stroke-dasharray:none;stroke:#ff0000;stroke-opacity:1"
       d=" M1902.46 -131.967 L1902.46 -131.847 L1912.34 -131.847 L1912.34 -134.527 L1902.46 -134.527 L1902.46 -131.967 z M1896.34 -69.423 L1896.34 -84.183 L1893.66 -84.183 L1893.66 -69.303 L1896.34 -69.303 L1896.34 -69.423 z M1900.46 -23.52 L1900.46 -20.96 L1912.34 -20.96 L1912.34 -23.64 L1900.46 -23.64 L1900.46 -23.52 z M1900.46 -26.06 L1926.4 -26.06A 0.06 0.06 0 0 1 1926.46 -26 L1926.46 -18.543A 0.06 0.06 0 0 1 1926.4 -18.483 L1918.96 -18.483 L1918.96 -15.803 L1926.4 -15.803A 0.06 0.06 0 0 1 1926.46 -15.743 L1926.46 0A 0.06 0.06 0 0 1 1926.4 0.06 L1891.2 0.06A 0.06 0.06 0 0 1 1891.14 0 L1891.14 -4.94 L1888.4 -4.94A 0.06 0.06 0 0 1 1888.34 -5 L1888.34 -7.683 L1885.6 -7.683A 0.06 0.06 0 0 1 1885.54 -7.743 L1885.54 -17.743A 0.06 0.06 0 0 1 1885.6 -17.803 L1888.34 -17.803 L1888.34 -57.683 L1885.6 -57.683A 0.06 0.06 0 0 1 1885.54 -57.743 L1885.54 -67.743A 0.06 0.06 0 0 1 1885.6 -67.803 L1888.34 -67.803 L1888.34 -87.683 L1885.6 -87.683A 0.06 0.06 0 0 1 1885.54 -87.743 L1885.54 -97.743A 0.06 0.06 0 0 1 1885.6 -97.803 L1888.34 -97.803 L1888.34 -134.883 L1885.6 -134.883A 0.06 0.06 0 0 1 1885.54 -134.943 L1885.54 -147.743A 0.06 0.06 0 0 1 1885.6 -147.803 L1888.34 -147.803 L1888.34 -150.487A 0.06 0.06 0 0 1 1888.4 -150.547 L1891.14 -150.547 L1891.14 -155.487A 0.06 0.06 0 0 1 1891.2 -155.547 L1926.4 -155.547A 0.06 0.06 0 0 1 1926.46 -155.487 L1926.46 -130.487A 0.06 0.06 0 0 1 1926.4 -130.427 L1902.4 -130.427A 1.94 1.94 0 0 0 1900.46 -128.487 L1900.46 -100.243A 1.94 1.94 0 0 0 1902.4 -98.303 L1913.4 -98.303A 0.06 0.06 0 0 1 1913.46 -98.243 L1913.46 -92.043A 0.06 0.06 0 0 1 1913.4 -91.983 L1903.46 -91.983 L1903.46 -89.303 L1913.4 -89.303A 0.06 0.06 0 0 1 1913.46 -89.243 L1913.46 -82.243A 0.06 0.06 0 0 1 1913.4 -82.183 L1902.4 -82.183A 1.94 1.94 0 0 0 1900.46 -80.243 L1900.46 -64.7A 2.06 2.06 0 0 1 1898.4 -62.64A 1.94 1.94 0 0 0 1896.46 -60.7 L1896.46 -28A 1.94 1.94 0 0 0 1898.4 -26.06 L1900.46 -26.06 z"
       stroke-width="0.1"
       stroke="rgb(255,0,0)"
       fill="none"
       id="op_2D_Profile30-284-26" />
  </g>
  <g
     style="stroke-width:0.99999999;stroke-miterlimit:4;stroke-dasharray:none;stroke:#ff0000;stroke-opacity:1"
     id="Setup28">
    <path
       style="stroke-width:0.99999999;stroke-miterlimit:4;stroke-dasharray:none;stroke:#ff0000;stroke-opacity:1"
       d=" M1960.34 -114.786 L1960.34 -117.346 L1950.46 -117.346 L1950.46 -114.666 L1960.34 -114.666 L1960.34 -114.786 z M1966.58 -52.123 L1969.14 -52.123 L1969.14 -67.003 L1966.46 -67.003 L1966.46 -52.123 L1966.58 -52.123 z M1966.46 -26.883 L1966.46 -17.123 L1969.14 -17.123 L1969.14 -27.003 L1966.46 -27.003 L1966.46 -26.883 z M1960.34 -6.34 L1960.34 -6.46 L1948.46 -6.46 L1948.46 -3.78 L1960.34 -3.78 L1960.34 -6.34 z M1960.34 0.06 L1943.9 0.06A 0.06 0.06 0 0 1 1943.84 0 L1943.84 -1.303 L1936.4 -1.303A 0.06 0.06 0 0 1 1936.34 -1.363 L1936.34 -8.82A 0.06 0.06 0 0 1 1936.4 -8.88 L1945.386 -8.88 L1949.34 -10.857 L1949.34 -22.82A 0.06 0.06 0 0 1 1949.4 -22.88 L1960.4 -22.88A 1.94 1.94 0 0 0 1962.34 -24.82 L1962.34 -63.063A 1.94 1.94 0 0 0 1960.4 -65.003 L1949.4 -65.003A 0.06 0.06 0 0 1 1949.34 -65.063 L1949.34 -72.063A 0.06 0.06 0 0 1 1949.4 -72.123 L1959.34 -72.123 L1959.34 -74.803 L1949.4 -74.803A 0.06 0.06 0 0 1 1949.34 -74.863 L1949.34 -81.063A 0.06 0.06 0 0 1 1949.4 -81.123 L1960.4 -81.123A 1.94 1.94 0 0 0 1962.34 -83.063 L1962.34 -111.306A 1.94 1.94 0 0 0 1960.4 -113.246 L1936.4 -113.246A 0.06 0.06 0 0 1 1936.34 -113.306 L1936.34 -121.126A 0.06 0.06 0 0 1 1936.4 -121.186 L1974.4 -121.186A 0.06 0.06 0 0 1 1974.46 -121.126 L1974.46 -115.623 L1977.2 -115.623A 0.06 0.06 0 0 1 1977.26 -115.563 L1977.26 -102.763A 0.06 0.06 0 0 1 1977.2 -102.703 L1974.46 -102.703 L1974.46 -85.623 L1977.2 -85.623A 0.06 0.06 0 0 1 1977.26 -85.563 L1977.26 -75.563A 0.06 0.06 0 0 1 1977.2 -75.503 L1974.46 -75.503 L1974.46 -45.623 L1977.2 -45.623A 0.06 0.06 0 0 1 1977.26 -45.563 L1977.26 -35.563A 0.06 0.06 0 0 1 1977.2 -35.503 L1974.46 -35.503 L1974.46 -15.623 L1977.2 -15.623A 0.06 0.06 0 0 1 1977.26 -15.563 L1977.26 -5.563A 0.06 0.06 0 0 1 1977.2 -5.503 L1974.46 -5.503 L1974.46 0A 0.06 0.06 0 0 1 1974.4 0.06 L1960.34 0.06 z"
       stroke-width="0.1"
       stroke="rgb(255,0,0)"
       fill="none"
       id="op_2D_Profile31-286-27" />
  </g>
  <g
     style="stroke-width:0.99999999;stroke-miterlimit:4;stroke-dasharray:none;stroke:#ff0000;stroke-opacity:1"
     id="Setup29">
    <path
       style="stroke-width:0.99999999;stroke-miterlimit:4;stroke-dasharray:none;stroke:#ff0000;stroke-opacity:1"
       d=" M1994.56 -7.62 L1994.56 -5.06 L2004.44 -5.06 L2004.44 -7.74 L1994.56 -7.74 L1994.56 -7.62 z M1989.94 -7.62 L1989.94 -12.74 L1987.2 -12.74A 0.06 0.06 0 0 1 1987.14 -12.8 L1987.14 -27.8A 0.06 0.06 0 0 1 1987.2 -27.86 L1989.94 -27.86 L1989.94 -73.343A 0.06 0.06 0 0 1 1990 -73.403 L1995.69 -73.403 L1995.69 -76.143A 0.06 0.06 0 0 1 1995.75 -76.203 L2003.25 -76.203A 0.06 0.06 0 0 1 2003.31 -76.143 L2003.31 -73.403 L2009 -73.403A 0.06 0.06 0 0 1 2009.06 -73.343 L2009.06 -62.86 L2011.8 -62.86A 0.06 0.06 0 0 1 2011.86 -62.8 L2011.86 -52.8A 0.06 0.06 0 0 1 2011.8 -52.74 L2009.06 -52.74 L2009.06 -27.86 L2011.8 -27.86A 0.06 0.06 0 0 1 2011.86 -27.8 L2011.86 -12.8A 0.06 0.06 0 0 1 2011.8 -12.74 L2009.06 -12.74 L2009.06 0A 0.06 0.06 0 0 1 2009 0.06 L1990 0.06A 0.06 0.06 0 0 1 1989.94 0 L1989.94 -7.62 z"
       stroke-width="0.1"
       stroke="rgb(255,0,0)"
       fill="none"
       id="op_2D_Profile32-288-28" />
  </g>
  <g
     style="stroke-width:0.99999999;stroke-miterlimit:4;stroke-dasharray:none;stroke:#ff0000;stroke-opacity:1"
     id="Setup30">
    <path
       style="stroke-width:0.99999999;stroke-miterlimit:4;stroke-dasharray:none;stroke:#ff0000;stroke-opacity:1"
       d=" M2046.46 -17.8A 0.06 0.06 0 0 1 2046.4 -17.74 L2043.66 -17.74 L2043.66 -10.8A 0.06 0.06 0 0 1 2043.6 -10.74 L2039.16 -10.74 L2039.16 0A 0.06 0.06 0 0 1 2039.1 0.06 L2029.1 0.06A 0.06 0.06 0 0 1 2029.04 0 L2029.04 -10.74 L2024.6 -10.74A 0.06 0.06 0 0 1 2024.54 -10.8 L2024.54 -17.74 L2021.8 -17.74A 0.06 0.06 0 0 1 2021.74 -17.8 L2021.74 -32.8A 0.06 0.06 0 0 1 2021.8 -32.86 L2029.04 -32.86 L2029.04 -36A 0.06 0.06 0 0 1 2029.058 -36.042 L2031.058 -38.042A 0.06 0.06 0 0 1 2031.1 -38.06 L2037.1 -38.06A 0.06 0.06 0 0 1 2037.142 -38.042 L2039.142 -36.042A 0.06 0.06 0 0 1 2039.16 -36 L2039.16 -32.86 L2046.4 -32.86A 0.06 0.06 0 0 1 2046.46 -32.8 L2046.46 -17.8 z"
       stroke-width="0.1"
       stroke="rgb(255,0,0)"
       fill="none"
       id="op_2D_Profile33-290-29" />
  </g>
  <g
     style="stroke:#ff0000;stroke-width:1;stroke-miterlimit:4;stroke-dasharray:none;stroke-opacity:1"
     id="Setup32">
    <path
       style="stroke:#ff0000;stroke-width:1;stroke-miterlimit:4;stroke-dasharray:none;stroke-opacity:1"
       d="m 2066.7,-20.49 a 1.69,1.69 0 0 0 -1.69,1.69 1.69,1.69 0 0 0 1.69,1.69 h 4 a 1.69,1.69 0 0 0 1.69,-1.69 1.69,1.69 0 0 0 -1.69,-1.69 z m -7.56,-3.49 V -35 a 0.06,0.06 0 0 1 0.06,-0.06 h 19 a 0.06,0.06 0 0 1 0.06,0.06 v 11.14 h 2.74 a 0.06,0.06 0 0 1 0.06,0.06 v 10 a 0.06,0.06 0 0 1 -0.06,0.06 h -2.74 V -2.6 a 0.06,0.06 0 0 1 -0.06,0.06 h -4.44 V 0 a 0.06,0.06 0 0 1 -0.06,0.06 h -10 A 0.06,0.06 0 0 1 2063.64,0 v -2.54 h -4.44 a 0.06,0.06 0 0 1 -0.06,-0.06 v -11.14 h -2.74 a 0.06,0.06 0 0 1 -0.06,-0.06 v -10 a 0.06,0.06 0 0 1 0.06,-0.06 h 2.74 z"
       stroke-width="0.1"
       stroke="rgb(255,0,0)"
       fill="none"
       id="op_2D_Profile35-294-30" />
  </g>
  <g
     style="stroke:#ff0000;stroke-width:1;stroke-miterlimit:4;stroke-dasharray:none;stroke-opacity:1"
     id="Setup32-3"
     transform="translate(5.8245304,-3.1568432)">
    <path
       style="stroke:#ff0000;stroke-width:1;stroke-miterlimit:4;stroke-dasharray:none;stroke-opacity:1"
       d="m 2066.7,-20.49 a 1.69,1.69 0 0 0 -1.69,1.69 1.69,1.69 0 0 0 1.69,1.69 h 4 a 1.69,1.69 0 0 0 1.69,-1.69 1.69,1.69 0 0 0 -1.69,-1.69 z m -7.56,-3.49 V -35 a 0.06,0.06 0 0 1 0.06,-0.06 h 19 a 0.06,0.06 0 0 1 0.06,0.06 v 11.14 h 2.74 a 0.06,0.06 0 0 1 0.06,0.06 v 10 a 0.06,0.06 0 0 1 -0.06,0.06 h -2.74 V -2.6 a 0.06,0.06 0 0 1 -0.06,0.06 h -4.44 V 0 a 0.06,0.06 0 0 1 -0.06,0.06 h -10 A 0.06,0.06 0 0 1 2063.64,0 v -2.54 h -4.44 a 0.06,0.06 0 0 1 -0.06,-0.06 v -11.14 h -2.74 a 0.06,0.06 0 0 1 -0.06,-0.06 v -10 a 0.06,0.06 0 0 1 0.06,-0.06 h 2.74 z"
       stroke-width="0.1"
       stroke="rgb(255,0,0)"
       fill="none"
       id="op_2D_Profile35-294-30-6" />
  </g>
  <g
     style="stroke-width:0.99999999;stroke-miterlimit:4;stroke-dasharray:none;stroke:#ff0000;stroke-opacity:1"
     id="Setup33">
    <path
       style="stroke-width:0.99999999;stroke-miterlimit:4;stroke-dasharray:none;stroke:#ff0000;stroke-opacity:1"
       d=" M2101.61 -27.26 L2106.99 -27.26 L2106.99 -29.94 L2099.61 -29.94 L2099.61 -27.26 L2101.61 -27.26 z M2101.61 -17.89 L2101.3 -17.89A 1.69 1.69 0 0 0 2099.61 -16.2A 1.69 1.69 0 0 0 2101.3 -14.51 L2105.3 -14.51A 1.69 1.69 0 0 0 2106.99 -16.2A 1.69 1.69 0 0 0 2105.3 -17.89 L2101.61 -17.89 z M2093.74 -23.38 L2093.74 -32.4A 0.06 0.06 0 0 1 2093.8 -32.46 L2098.24 -32.46 L2098.24 -35A 0.06 0.06 0 0 1 2098.3 -35.06 L2108.3 -35.06A 0.06 0.06 0 0 1 2108.36 -35 L2108.36 -32.46 L2112.8 -32.46A 0.06 0.06 0 0 1 2112.86 -32.4 L2112.86 -21.26 L2115.6 -21.26A 0.06 0.06 0 0 1 2115.66 -21.2 L2115.66 -9.2A 0.06 0.06 0 0 1 2115.6 -9.14 L2112.86 -9.14 L2112.86 0A 0.06 0.06 0 0 1 2112.8 0.06 L2093.8 0.06A 0.06 0.06 0 0 1 2093.74 0 L2093.74 -11.14 L2091 -11.14A 0.06 0.06 0 0 1 2090.94 -11.2 L2090.94 -23.2A 0.06 0.06 0 0 1 2091 -23.26 L2093.74 -23.26 L2093.74 -23.38 z"
       stroke-width="0.1"
       stroke="rgb(255,0,0)"
       fill="none"
       id="op_2D_Profile36-296-31" />
  </g>
  <g
     style="stroke-width:0.99999999;stroke-miterlimit:4;stroke-dasharray:none;stroke:#ff0000;stroke-opacity:1"
     id="Setup34">
    <path
       style="stroke-width:0.99999999;stroke-miterlimit:4;stroke-dasharray:none;stroke:#ff0000;stroke-opacity:1"
       d=" M2143.34 -46.06 L2143.34 -47.74 L2133.46 -47.74 L2133.46 -45.06 L2143.34 -45.06 L2143.34 -46.06 z M2151.58 -45.06 L2161.34 -45.06 L2161.34 -47.74 L2151.46 -47.74 L2151.46 -45.06 L2151.58 -45.06 z M2150.09 -30A 2.69 2.69 0 0 0 2147.4 -32.69A 2.69 2.69 0 0 0 2144.71 -30A 2.69 2.69 0 0 0 2147.4 -27.31A 2.69 2.69 0 0 0 2150.09 -30 z M2151.46 -14.82 L2151.46 -12.26 L2161.34 -12.26 L2161.34 -14.94 L2151.46 -14.94 L2151.46 -14.82 z M2143.34 -14.82 L2143.34 -14.94 L2133.46 -14.94 L2133.46 -12.26 L2143.34 -12.26 L2143.34 -14.82 z M2143.34 0.06 L2128.4 0.06A 0.06 0.06 0 0 1 2128.34 0 L2128.34 -4.94 L2125.6 -4.94A 0.06 0.06 0 0 1 2125.54 -5 L2125.54 -15A 0.06 0.06 0 0 1 2125.6 -15.06 L2128.34 -15.06 L2128.34 -44.94 L2125.6 -44.94A 0.06 0.06 0 0 1 2125.54 -45 L2125.54 -55A 0.06 0.06 0 0 1 2125.6 -55.06 L2128.34 -55.06 L2128.34 -60A 0.06 0.06 0 0 1 2128.4 -60.06 L2166.4 -60.06A 0.06 0.06 0 0 1 2166.46 -60 L2166.46 0A 0.06 0.06 0 0 1 2166.4 0.06 L2143.34 0.06 z"
       stroke-width="0.1"
       stroke="rgb(255,0,0)"
       fill="none"
       id="op_2D_Profile37-299-32" />
  </g>
  <g
     style="stroke-width:0.99999999;stroke-miterlimit:4;stroke-dasharray:none;stroke:#ff0000;stroke-opacity:1"
     id="Setup36">
    <path
       style="stroke-width:0.99999999;stroke-miterlimit:4;stroke-dasharray:none;stroke:#ff0000;stroke-opacity:1"
       d=" M2199.46 -39.12 L2199.46 -36.56 L2209.34 -36.56 L2209.34 -39.24 L2199.46 -39.24 L2199.46 -39.12 z M2191.34 -36.68 L2191.34 -39.24 L2181.46 -39.24 L2181.46 -36.56 L2191.34 -36.56 L2191.34 -36.68 z M2196.377 -18.994A 2.69 2.69 0 0 0 2197.906 -22.477A 2.69 2.69 0 0 0 2194.423 -24.006A 2.69 2.69 0 0 0 2192.894 -20.523A 2.69 2.69 0 0 0 2196.377 -18.994 z M2199.46 -6.32 L2199.46 -3.76 L2209.34 -3.76 L2209.34 -6.44 L2199.46 -6.44 L2199.46 -6.32 z M2191.34 -6.32 L2191.34 -6.44 L2181.46 -6.44 L2181.46 -3.76 L2191.34 -3.76 L2191.34 -6.32 z M2191.34 0.06 L2176.4 0.06A 0.06 0.06 0 0 1 2176.34 0 L2176.34 -43A 0.06 0.06 0 0 1 2176.4 -43.06 L2214.4 -43.06A 0.06 0.06 0 0 1 2214.46 -43 L2214.46 -26.56 L2217.2 -26.56A 0.06 0.06 0 0 1 2217.26 -26.5 L2217.26 -16.5A 0.06 0.06 0 0 1 2217.2 -16.44 L2214.46 -16.44 L2214.46 0A 0.06 0.06 0 0 1 2214.4 0.06 L2191.34 0.06 z"
       stroke-width="0.1"
       stroke="rgb(255,0,0)"
       fill="none"
       id="op_2D_Profile38-301-33" />
  </g>
  <g
     style="stroke-width:0.99999999;stroke-miterlimit:4;stroke-dasharray:none;stroke:#ff0000;stroke-opacity:1"
     id="Setup38">
    <path
       style="stroke-width:0.99999999;stroke-miterlimit:4;stroke-dasharray:none;stroke:#ff0000;stroke-opacity:1"
       d=" M2227.14 -33A 0.06 0.06 0 0 1 2227.2 -33.06 L2229.94 -33.06 L2229.94 -38A 0.06 0.06 0 0 1 2230 -38.06 L2233.7 -38.06A 0.06 0.06 0 0 1 2233.76 -38 L2233.76 -33.06 L2236.5 -33.06A 0.06 0.06 0 0 1 2236.56 -33 L2236.56 -23A 0.06 0.06 0 0 1 2236.5 -22.94 L2233.76 -22.94 L2233.76 -15.06 L2236.5 -15.06A 0.06 0.06 0 0 1 2236.56 -15 L2236.56 -5A 0.06 0.06 0 0 1 2236.5 -4.94 L2233.76 -4.94 L2233.76 0A 0.06 0.06 0 0 1 2233.7 0.06 L2230 0.06A 0.06 0.06 0 0 1 2229.94 0 L2229.94 -4.94 L2227.2 -4.94A 0.06 0.06 0 0 1 2227.14 -5 L2227.14 -15A 0.06 0.06 0 0 1 2227.2 -15.06 L2229.94 -15.06 L2229.94 -22.94 L2227.2 -22.94A 0.06 0.06 0 0 1 2227.14 -23 L2227.14 -33 z"
       stroke-width="0.1"
       stroke="rgb(255,0,0)"
       fill="none"
       id="op_2D_Profile40-305-34" />
  </g>
  <g
     style="stroke-width:0.99999999;stroke-miterlimit:4;stroke-dasharray:none;stroke:#ff0000;stroke-opacity:1"
     id="Setup39">
    <path
       style="stroke-width:0.99999999;stroke-miterlimit:4;stroke-dasharray:none;stroke:#ff0000;stroke-opacity:1"
       d=" M2249.24 -38A 0.06 0.06 0 0 1 2249.3 -38.06 L2253 -38.06A 0.06 0.06 0 0 1 2253.06 -38 L2253.06 -33.06 L2255.8 -33.06A 0.06 0.06 0 0 1 2255.86 -33 L2255.86 -23A 0.06 0.06 0 0 1 2255.8 -22.94 L2253.06 -22.94 L2253.06 -15.06 L2255.8 -15.06A 0.06 0.06 0 0 1 2255.86 -15 L2255.86 -5A 0.06 0.06 0 0 1 2255.8 -4.94 L2253.06 -4.94 L2253.06 0A 0.06 0.06 0 0 1 2253 0.06 L2249.3 0.06A 0.06 0.06 0 0 1 2249.24 0 L2249.24 -4.94 L2246.5 -4.94A 0.06 0.06 0 0 1 2246.44 -5 L2246.44 -15A 0.06 0.06 0 0 1 2246.5 -15.06 L2249.24 -15.06 L2249.24 -22.94 L2246.5 -22.94A 0.06 0.06 0 0 1 2246.44 -23 L2246.44 -33A 0.06 0.06 0 0 1 2246.5 -33.06 L2249.24 -33.06 L2249.24 -38 z"
       stroke-width="0.1"
       stroke="rgb(255,0,0)"
       fill="none"
       id="op_2D_Profile41-307-35" />
  </g>
  <g
     style="stroke-width:0.99999999;stroke-miterlimit:4;stroke-dasharray:none;stroke:#ff0000;stroke-opacity:1"
     id="Setup40">
    <path
       style="stroke-width:0.99999999;stroke-miterlimit:4;stroke-dasharray:none;stroke:#ff0000;stroke-opacity:1"
       d=" M2278 -13.94 L2273.525 -13.94 L2271.25 -10 L2273.525 -6.06 L2278.075 -6.06 L2280.35 -10 L2278.075 -13.94 L2278 -13.94 z M2280.704 -18.784A 10.06 10.06 0 0 1 2284.584 -5.096A 10.06 10.06 0 0 1 2270.896 -1.216A 10.06 10.06 0 0 1 2265.74 -10A 10.06 10.06 0 0 1 2268.686 -17.114A 10.06 10.06 0 0 1 2275.8 -20.06A 10.06 10.06 0 0 1 2280.704 -18.784 z"
       stroke-width="0.1"
       stroke="rgb(255,0,0)"
       fill="none"
       id="op_2D_Profile42-309-36" />
  </g>
  <g
     style="stroke-width:0.99999999;stroke-miterlimit:4;stroke-dasharray:none;stroke:#ff0000;stroke-opacity:1"
     id="Setup41">
    <path
       style="stroke-width:0.99999999;stroke-miterlimit:4;stroke-dasharray:none;stroke:#ff0000;stroke-opacity:1"
       d=" M2313.04 -5.18 L2313.04 -7.74 L2303.16 -7.74 L2303.16 -5.06 L2313.04 -5.06 L2313.04 -5.18 z M2317.66 -5.18 L2317.66 0A 0.06 0.06 0 0 1 2317.6 0.06 L2298.6 0.06A 0.06 0.06 0 0 1 2298.54 0 L2298.54 -12.74 L2295.8 -12.74A 0.06 0.06 0 0 1 2295.74 -12.8 L2295.74 -27.8A 0.06 0.06 0 0 1 2295.8 -27.86 L2298.54 -27.86 L2298.54 -62.8A 0.06 0.06 0 0 1 2298.6 -62.86 L2320.4 -62.86A 0.06 0.06 0 0 1 2320.46 -62.8 L2320.46 -52.8A 0.06 0.06 0 0 1 2320.4 -52.74 L2317.66 -52.74 L2317.66 -27.86 L2320.4 -27.86A 0.06 0.06 0 0 1 2320.46 -27.8 L2320.46 -12.8A 0.06 0.06 0 0 1 2320.4 -12.74 L2317.66 -12.74 L2317.66 -5.18 z"
       stroke-width="0.1"
       stroke="rgb(255,0,0)"
       fill="none"
       id="op_2D_Profile43-311-37" />
  </g>
  <g
     style="stroke-width:0.99999999;stroke-miterlimit:4;stroke-dasharray:none;stroke:#ff0000;stroke-opacity:1"
     id="Setup42">
    <path
       style="stroke-width:0.99999999;stroke-miterlimit:4;stroke-dasharray:none;stroke:#ff0000;stroke-opacity:1"
       d=" M2335.46 -58.063 L2335.46 -43.303 L2338.14 -43.303 L2338.14 -58.183 L2335.46 -58.183 L2335.46 -58.063 z M2330.34 -58.063 L2330.34 -63.243A 0.06 0.06 0 0 1 2330.4 -63.303 L2335.34 -63.303 L2335.34 -65.983 L2330.4 -65.983A 0.06 0.06 0 0 1 2330.34 -66.043 L2330.34 -102.487A 0.06 0.06 0 0 1 2330.373 -102.54 L2334.373 -104.54A 0.06 0.06 0 0 1 2334.4 -104.547 L2343.4 -104.547A 0.06 0.06 0 0 1 2343.46 -104.487 L2343.46 -101.803 L2346.2 -101.803A 0.06 0.06 0 0 1 2346.26 -101.743 L2346.26 -88.943A 0.06 0.06 0 0 1 2346.2 -88.883 L2340.66 -88.883 L2340.66 -11.803 L2346.2 -11.803A 0.06 0.06 0 0 1 2346.26 -11.743 L2346.26 -1.743A 0.06 0.06 0 0 1 2346.2 -1.683 L2343.46 -1.683 L2343.46 0A 0.06 0.06 0 0 1 2343.4 0.06 L2338.4 0.06 L2338.394 0.06 L2338.387 0.059 L2338.381 0.057 L2335.381 -0.943A 0.06 0.06 0 0 1 2335.34 -1 L2335.34 -35.243A 1.94 1.94 0 0 0 2333.4 -37.183 L2332.4 -37.183A 2.06 2.06 0 0 1 2330.34 -39.243 L2330.34 -58.063 z"
       stroke-width="0.1"
       stroke="rgb(255,0,0)"
       fill="none"
       id="op_2D_Profile44-313-38" />
  </g>
  <g
     style="stroke-width:0.99999999;stroke-miterlimit:4;stroke-dasharray:none;stroke:#ff0000;stroke-opacity:1"
     id="Setup43">
    <path
       style="stroke-width:0.99999999;stroke-miterlimit:4;stroke-dasharray:none;stroke:#ff0000;stroke-opacity:1"
       d=" M2366.94 -43.423 L2366.94 -58.183 L2364.26 -58.183 L2364.26 -43.303 L2366.94 -43.303 L2366.94 -43.423 z M2366.94 -18.063 L2366.94 -18.183 L2364.26 -18.183 L2364.26 -8.303 L2366.94 -8.303 L2366.94 -18.063 z M2372.06 -18.063 L2372.06 -2A 0.06 0.06 0 0 1 2372.027 -1.946 L2368.027 0.054A 0.06 0.06 0 0 1 2368 0.06 L2359 0.06A 0.06 0.06 0 0 1 2358.94 0 L2358.94 -1.683 L2356.2 -1.683A 0.06 0.06 0 0 1 2356.14 -1.743 L2356.14 -11.743A 0.06 0.06 0 0 1 2356.2 -11.803 L2361.74 -11.803 L2361.74 -88.883 L2356.2 -88.883A 0.06 0.06 0 0 1 2356.14 -88.943 L2356.14 -101.743A 0.06 0.06 0 0 1 2356.2 -101.803 L2358.94 -101.803 L2358.94 -104.487A 0.06 0.06 0 0 1 2359 -104.547 L2368 -104.547A 0.06 0.06 0 0 1 2368.027 -104.54 L2372.027 -102.54A 0.06 0.06 0 0 1 2372.06 -102.487 L2372.06 -66.043A 0.06 0.06 0 0 1 2372 -65.983 L2367.06 -65.983 L2367.06 -63.303 L2372 -63.303A 0.06 0.06 0 0 1 2372.06 -63.243 L2372.06 -18.063 z"
       stroke-width="0.1"
       stroke="rgb(255,0,0)"
       fill="none"
       id="op_2D_Profile46-316-39" />
  </g>
  <g
     style="stroke-width:0.99999999;stroke-miterlimit:4;stroke-dasharray:none;stroke:#ff0000;stroke-opacity:1"
     id="Setup44">
    <path
       style="stroke-width:0.99999999;stroke-miterlimit:4;stroke-dasharray:none;stroke:#ff0000;stroke-opacity:1"
       d=" M2394.125 -138.553A 2.19 2.19 0 0 0 2396.315 -140.743A 2.19 2.19 0 0 0 2394.125 -142.933A 2.19 2.19 0 0 0 2391.935 -140.743A 2.19 2.19 0 0 0 2394.125 -138.553 z M2394.125 -16.933A 2.19 2.19 0 0 0 2391.935 -14.743A 2.19 2.19 0 0 0 2394.125 -12.553A 2.19 2.19 0 0 0 2396.315 -14.743A 2.19 2.19 0 0 0 2394.125 -16.933 z M2398.792 -11.081 L2384.837 0.047A 0.06 0.06 0 0 1 2384.753 0.037A 0.06 0.06 0 0 1 2384.74 0 L2384.74 -37.683 L2382 -37.683A 0.06 0.06 0 0 1 2381.94 -37.743 L2381.94 -114.943A 0.06 0.06 0 0 1 2382 -115.003 L2384.74 -115.003 L2384.74 -155.487A 0.06 0.06 0 0 1 2384.8 -155.547A 0.06 0.06 0 0 1 2384.837 -155.534 L2403.837 -140.382A 0.06 0.06 0 0 1 2403.86 -140.335 L2403.86 -115.003 L2406.6 -115.003A 0.06 0.06 0 0 1 2406.66 -114.943 L2406.66 -37.743A 0.06 0.06 0 0 1 2406.6 -37.683 L2403.86 -37.683 L2403.86 -15.152A 0.06 0.06 0 0 1 2403.837 -15.105 L2398.792 -11.081 z"
       stroke-width="0.1"
       stroke="rgb(255,0,0)"
       fill="none"
       id="op_2D_Profile47-318-40" />
  </g>
  <g
     style="stroke-width:0.99999999;stroke-miterlimit:4;stroke-dasharray:none;stroke:#ff0000;stroke-opacity:1"
     id="Setup45">
    <path
       style="stroke-width:0.99999999;stroke-miterlimit:4;stroke-dasharray:none;stroke:#ff0000;stroke-opacity:1"
       d=" M2428.775 -19.666A 2.69 2.69 0 0 0 2426.085 -16.976A 2.69 2.69 0 0 0 2428.775 -14.286A 2.69 2.69 0 0 0 2431.465 -16.976A 2.69 2.69 0 0 0 2428.775 -19.666 z M2428.775 -23.193 L2433.84 -23.193 L2433.84 -25.873 L2423.96 -25.873 L2423.96 -23.193 L2428.775 -23.193 z M2428.775 -30.993 L2438.4 -30.993A 0.06 0.06 0 0 1 2438.46 -30.933 L2438.46 -17.385A 0.06 0.06 0 0 1 2438.437 -17.338 L2416.637 0.047A 0.06 0.06 0 0 1 2416.553 0.037A 0.06 0.06 0 0 1 2416.54 0 L2416.54 -7.233A 0.06 0.06 0 0 1 2416.6 -7.293 L2419.34 -7.293 L2419.34 -30.933A 0.06 0.06 0 0 1 2419.4 -30.993 L2428.775 -30.993 z"
       stroke-width="0.1"
       stroke="rgb(255,0,0)"
       fill="none"
       id="op_2D_Profile48-320-41" />
  </g>
  <g
     style="stroke-width:0.99999999;stroke-miterlimit:4;stroke-dasharray:none;stroke:#ff0000;stroke-opacity:1"
     id="Setup46">
    <path
       style="stroke-width:0.99999999;stroke-miterlimit:4;stroke-dasharray:none;stroke:#ff0000;stroke-opacity:1"
       d=" M2460.525 -11.767A 2.19 2.19 0 0 0 2462.715 -13.957A 2.19 2.19 0 0 0 2460.525 -16.147A 2.19 2.19 0 0 0 2458.335 -13.957A 2.19 2.19 0 0 0 2460.525 -11.767 z M2460.525 -7.74 L2455.76 -7.74 L2455.76 -5.06 L2465.64 -5.06 L2465.64 -7.74 L2460.525 -7.74 z M2460.525 0.06 L2451.2 0.06A 0.06 0.06 0 0 1 2451.14 0 L2451.14 -23.64 L2448.4 -23.64A 0.06 0.06 0 0 1 2448.34 -23.7 L2448.34 -30.933A 0.06 0.06 0 0 1 2448.4 -30.993A 0.06 0.06 0 0 1 2448.437 -30.98 L2470.237 -13.595A 0.06 0.06 0 0 1 2470.26 -13.548 L2470.26 0A 0.06 0.06 0 0 1 2470.2 0.06 L2460.525 0.06 z"
       stroke-width="0.1"
       stroke="rgb(255,0,0)"
       fill="none"
       id="op_2D_Profile49-322-42" />
  </g>
  <g
     style="stroke-width:0.99999999;stroke-miterlimit:4;stroke-dasharray:none;stroke:#ff0000;stroke-opacity:1"
     id="Setup47">
    <path
       style="stroke-width:0.99999999;stroke-miterlimit:4;stroke-dasharray:none;stroke:#ff0000;stroke-opacity:1"
       d=" M2507.01 -40.8 L2507.01 -38.06 L2523.7 -38.06A 0.06 0.06 0 0 1 2523.76 -38 L2523.76 0A 0.06 0.06 0 0 1 2523.7 0.06 L2480.2 0.06A 0.06 0.06 0 0 1 2480.14 0 L2480.14 -38A 0.06 0.06 0 0 1 2480.2 -38.06 L2496.89 -38.06 L2496.89 -40.8A 0.06 0.06 0 0 1 2496.95 -40.86 L2506.95 -40.86A 0.06 0.06 0 0 1 2507.01 -40.8 z"
       stroke-width="0.1"
       stroke="rgb(255,0,0)"
       fill="none"
       id="op_2D_Profile50-324-43" />
  </g>
  <g
     style="stroke-width:0.99999999;stroke-miterlimit:4;stroke-dasharray:none;stroke:#ff0000;stroke-opacity:1"
     id="Setup48">
    <path
       style="stroke-width:0.99999999;stroke-miterlimit:4;stroke-dasharray:none;stroke:#ff0000;stroke-opacity:1"
       d=" M2560.51 -40.8 L2560.51 -38.06 L2577.2 -38.06A 0.06 0.06 0 0 1 2577.26 -38 L2577.26 0A 0.06 0.06 0 0 1 2577.2 0.06 L2533.7 0.06A 0.06 0.06 0 0 1 2533.64 0 L2533.64 -38A 0.06 0.06 0 0 1 2533.7 -38.06 L2550.39 -38.06 L2550.39 -40.8A 0.06 0.06 0 0 1 2550.45 -40.86 L2560.45 -40.86A 0.06 0.06 0 0 1 2560.51 -40.8 z"
       stroke-width="0.1"
       stroke="rgb(255,0,0)"
       fill="none"
       id="op_2D_Profile51-326-44" />
  </g>
  <g
     style="stroke-width:0.99999999;stroke-miterlimit:4;stroke-dasharray:none;stroke:#ff0000;stroke-opacity:1"
     id="Setup49">
    <path
       style="stroke-width:0.99999999;stroke-miterlimit:4;stroke-dasharray:none;stroke:#ff0000;stroke-opacity:1"
       d=" M2614.01 -40.8 L2614.01 -38.06 L2630.7 -38.06A 0.06 0.06 0 0 1 2630.76 -38 L2630.76 0A 0.06 0.06 0 0 1 2630.7 0.06 L2587.2 0.06A 0.06 0.06 0 0 1 2587.14 0 L2587.14 -38A 0.06 0.06 0 0 1 2587.2 -38.06 L2603.89 -38.06 L2603.89 -40.8A 0.06 0.06 0 0 1 2603.95 -40.86 L2613.95 -40.86A 0.06 0.06 0 0 1 2614.01 -40.8 z"
       stroke-width="0.1"
       stroke="rgb(255,0,0)"
       fill="none"
       id="op_2D_Profile52-328-45" />
  </g>
  <g
     style="stroke-width:0.99999999;stroke-miterlimit:4;stroke-dasharray:none;stroke:#ff0000;stroke-opacity:1"
     id="Setup50">
    <path
       style="stroke-width:0.99999999;stroke-miterlimit:4;stroke-dasharray:none;stroke:#ff0000;stroke-opacity:1"
       d=" M2657.39 0 L2657.39 -2.74 L2640.7 -2.74A 0.06 0.06 0 0 1 2640.64 -2.8 L2640.64 -40.8A 0.06 0.06 0 0 1 2640.7 -40.86 L2684.2 -40.86A 0.06 0.06 0 0 1 2684.26 -40.8 L2684.26 -2.8A 0.06 0.06 0 0 1 2684.2 -2.74 L2667.51 -2.74 L2667.51 0A 0.06 0.06 0 0 1 2667.45 0.06 L2657.45 0.06A 0.06 0.06 0 0 1 2657.39 0 z"
       stroke-width="0.1"
       stroke="rgb(255,0,0)"
       fill="none"
       id="op_2D_Profile53-330-46" />
  </g>
  <g
     style="stroke-width:0.99999999;stroke-miterlimit:4;stroke-dasharray:none;stroke:#ff0000;stroke-opacity:1"
     id="Setup51">
    <path
       style="stroke-width:0.99999999;stroke-miterlimit:4;stroke-dasharray:none;stroke:#ff0000;stroke-opacity:1"
       d=" M2710.89 0 L2710.89 -2.74 L2694.2 -2.74A 0.06 0.06 0 0 1 2694.14 -2.8 L2694.14 -40.8A 0.06 0.06 0 0 1 2694.2 -40.86 L2737.7 -40.86A 0.06 0.06 0 0 1 2737.76 -40.8 L2737.76 -2.8A 0.06 0.06 0 0 1 2737.7 -2.74 L2721.01 -2.74 L2721.01 0A 0.06 0.06 0 0 1 2720.95 0.06 L2710.95 0.06A 0.06 0.06 0 0 1 2710.89 0 z"
       stroke-width="0.1"
       stroke="rgb(255,0,0)"
       fill="none"
       id="op_2D_Profile54-333-47" />
  </g>
  <g
     style="stroke-width:0.99999999;stroke-miterlimit:4;stroke-dasharray:none;stroke:#ff0000;stroke-opacity:1"
     id="Setup52">
    <path
       style="stroke-width:0.99999999;stroke-miterlimit:4;stroke-dasharray:none;stroke:#ff0000;stroke-opacity:1"
       d=" M2764.39 0 L2764.39 -2.74 L2747.7 -2.74A 0.06 0.06 0 0 1 2747.64 -2.8 L2747.64 -40.8A 0.06 0.06 0 0 1 2747.7 -40.86 L2791.2 -40.86A 0.06 0.06 0 0 1 2791.26 -40.8 L2791.26 -2.8A 0.06 0.06 0 0 1 2791.2 -2.74 L2774.51 -2.74 L2774.51 0A 0.06 0.06 0 0 1 2774.45 0.06 L2764.45 0.06A 0.06 0.06 0 0 1 2764.39 0 z"
       stroke-width="0.1"
       stroke="rgb(255,0,0)"
       fill="none"
       id="op_2D_Profile55-334-48" />
  </g>
  <g
     style="stroke-width:0.99999999;stroke-miterlimit:4;stroke-dasharray:none;stroke:#ff0000;stroke-opacity:1"
     id="Setup53">
    <path
       style="stroke-width:0.99999999;stroke-miterlimit:4;stroke-dasharray:none;stroke:#ff0000;stroke-opacity:1"
       d=" M2816.14 -9A 4.94 4.94 0 0 0 2811.2 -13.94A 4.94 4.94 0 0 0 2807.26 -11.98 L2807.26 -6.02A 4.94 4.94 0 0 0 2814.18 -5.06A 4.94 4.94 0 0 0 2816.14 -9 z M2821.26 -9 L2821.26 0A 0.06 0.06 0 0 1 2821.2 0.06 L2801.2 0.06A 0.06 0.06 0 0 1 2801.14 0 L2801.14 -18A 0.06 0.06 0 0 1 2801.2 -18.06 L2821.2 -18.06A 0.06 0.06 0 0 1 2821.26 -18 L2821.26 -9 z"
       stroke-width="0.1"
       stroke="rgb(255,0,0)"
       fill="none"
       id="op_2D_Profile57-336-49" />
  </g>
  <g
     style="stroke-width:0.99999999;stroke-miterlimit:4;stroke-dasharray:none;stroke:#ff0000;stroke-opacity:1"
     id="Setup54">
    <path
       style="stroke-width:0.99999999;stroke-miterlimit:4;stroke-dasharray:none;stroke:#ff0000;stroke-opacity:1"
       d=" M2903.54 -36.58 L2903.54 -38A 0.06 0.06 0 0 1 2903.6 -38.06 L2910.54 -38.06 L2910.54 -40.8A 0.06 0.06 0 0 1 2910.6 -40.86 L2925.6 -40.86A 0.06 0.06 0 0 1 2925.66 -40.8 L2925.66 -38.06 L2937.2 -38.06A 0.06 0.06 0 0 1 2937.26 -38 L2937.26 -7.56 L2940 -7.56A 0.06 0.06 0 0 1 2940.06 -7.5 L2940.06 0A 0.06 0.06 0 0 1 2940 0.06 L2928.4 0.06A 0.06 0.06 0 0 1 2928.34 0 L2928.34 -9.94 L2925.66 -9.94 L2925.66 0A 0.06 0.06 0 0 1 2925.6 0.06 L2845.6 0.06A 0.06 0.06 0 0 1 2845.54 0 L2845.54 -9.94 L2842.86 -9.94 L2842.86 0A 0.06 0.06 0 0 1 2842.8 0.06 L2831.2 0.06A 0.06 0.06 0 0 1 2831.14 0 L2831.14 -7.5A 0.06 0.06 0 0 1 2831.2 -7.56 L2833.94 -7.56 L2833.94 -38A 0.06 0.06 0 0 1 2834 -38.06 L2845.54 -38.06 L2845.54 -40.8A 0.06 0.06 0 0 1 2845.6 -40.86 L2860.6 -40.86A 0.06 0.06 0 0 1 2860.66 -40.8 L2860.66 -38.06 L2867.6 -38.06A 0.06 0.06 0 0 1 2867.66 -38 L2867.66 -36.46 L2903.54 -36.46 L2903.54 -36.58 z"
       stroke-width="0.1"
       stroke="rgb(255,0,0)"
       fill="none"
       id="op_2D_Profile58-339-50" />
  </g>
  <g
     style="stroke-width:0.99999999;stroke-miterlimit:4;stroke-dasharray:none;stroke:#ff0000;stroke-opacity:1"
     id="Setup56">
    <path
       style="stroke-width:0.99999999;stroke-miterlimit:4;stroke-dasharray:none;stroke:#ff0000;stroke-opacity:1"
       d=" M2990.86 0A 0.06 0.06 0 0 1 2990.8 0.06 L2950 0.06A 0.06 0.06 0 0 1 2949.94 0 L2949.94 -7.5A 0.06 0.06 0 0 1 2950 -7.56 L2952.74 -7.56 L2952.74 -25.2A 0.06 0.06 0 0 1 2952.8 -25.26 L2980.74 -25.26 L2980.74 -28A 0.06 0.06 0 0 1 2980.8 -28.06 L2990.8 -28.06A 0.06 0.06 0 0 1 2990.86 -28 L2990.86 0 z"
       stroke-width="0.1"
       stroke="rgb(255,0,0)"
       fill="none"
       id="op_2D_Profile59-341-51" />
  </g>
  <g
     style="stroke-width:0.99999999;stroke-miterlimit:4;stroke-dasharray:none;stroke:#ff0000;stroke-opacity:1"
     id="Setup57">
    <path
       style="stroke-width:0.99999999;stroke-miterlimit:4;stroke-dasharray:none;stroke:#ff0000;stroke-opacity:1"
       d=" M3000.74 -28A 0.06 0.06 0 0 1 3000.8 -28.06 L3010.8 -28.06A 0.06 0.06 0 0 1 3010.86 -28 L3010.86 -25.26 L3038.8 -25.26A 0.06 0.06 0 0 1 3038.86 -25.2 L3038.86 -7.56 L3041.6 -7.56A 0.06 0.06 0 0 1 3041.66 -7.5 L3041.66 0A 0.06 0.06 0 0 1 3041.6 0.06 L3000.8 0.06A 0.06 0.06 0 0 1 3000.74 0 L3000.74 -28 z"
       stroke-width="0.1"
       stroke="rgb(255,0,0)"
       fill="none"
       id="op_2D_Profile60-343-52" />
  </g>
  <g
     style="stroke-width:0.99999999;stroke-miterlimit:4;stroke-dasharray:none;stroke:#ff0000;stroke-opacity:1"
     id="Setup58">
    <path
       style="stroke-width:0.99999999;stroke-miterlimit:4;stroke-dasharray:none;stroke:#ff0000;stroke-opacity:1"
       d=" M3089.66 0A 0.06 0.06 0 0 1 3089.6 0.06 L3051.6 0.06A 0.06 0.06 0 0 1 3051.54 0 L3051.54 -10A 0.06 0.06 0 0 1 3051.6 -10.06 L3092.4 -10.06A 0.06 0.06 0 0 1 3092.46 -10 L3092.46 -5A 0.06 0.06 0 0 1 3092.4 -4.94 L3089.66 -4.94 L3089.66 0 z"
       stroke-width="0.1"
       stroke="rgb(255,0,0)"
       fill="none"
       id="op_2D_Profile61-345-53" />
  </g>
  <g
     style="stroke-width:0.99999999;stroke-miterlimit:4;stroke-dasharray:none;stroke:#ff0000;stroke-opacity:1"
     id="Setup59">
    <path
       style="stroke-width:0.99999999;stroke-miterlimit:4;stroke-dasharray:none;stroke:#ff0000;stroke-opacity:1"
       d=" M3134.4 -6.06A 0.06 0.06 0 0 1 3134.46 -6 L3134.46 0A 0.06 0.06 0 0 1 3134.4 0.06 L3102.4 0.06A 0.06 0.06 0 0 1 3102.34 0 L3102.34 -6A 0.06 0.06 0 0 1 3102.4 -6.06 L3112.34 -6.06 L3112.34 -21A 0.06 0.06 0 0 1 3112.4 -21.06 L3124.4 -21.06A 0.06 0.06 0 0 1 3124.46 -21 L3124.46 -6.06 L3134.4 -6.06 z"
       stroke-width="0.1"
       stroke="rgb(255,0,0)"
       fill="none"
       id="op_2D_Profile62-347-54" />
  </g>
  <g
     style="stroke-width:0.99999999;stroke-miterlimit:4;stroke-dasharray:none;stroke:#ff0000;stroke-opacity:1"
     id="Setup60">
    <path
       style="stroke-width:0.99999999;stroke-miterlimit:4;stroke-dasharray:none;stroke:#ff0000;stroke-opacity:1"
       d=" M3176.4 -6.06A 0.06 0.06 0 0 1 3176.46 -6 L3176.46 0A 0.06 0.06 0 0 1 3176.4 0.06 L3144.4 0.06A 0.06 0.06 0 0 1 3144.34 0 L3144.34 -6A 0.06 0.06 0 0 1 3144.4 -6.06 L3154.34 -6.06 L3154.34 -21A 0.06 0.06 0 0 1 3154.4 -21.06 L3166.4 -21.06A 0.06 0.06 0 0 1 3166.46 -21 L3166.46 -6.06 L3176.4 -6.06 z"
       stroke-width="0.1"
       stroke="rgb(255,0,0)"
       fill="none"
       id="op_2D_Profile63-349-55" />
  </g>
  <g
     style="stroke-width:0.99999999;stroke-miterlimit:4;stroke-dasharray:none;stroke:#ff0000;stroke-opacity:1"
     id="Setup61">
    <path
       style="stroke-width:0.99999999;stroke-miterlimit:4;stroke-dasharray:none;stroke:#ff0000;stroke-opacity:1"
       d=" M3218.4 -6.06A 0.06 0.06 0 0 1 3218.46 -6 L3218.46 0A 0.06 0.06 0 0 1 3218.4 0.06 L3186.4 0.06A 0.06 0.06 0 0 1 3186.34 0 L3186.34 -6A 0.06 0.06 0 0 1 3186.4 -6.06 L3196.34 -6.06 L3196.34 -21A 0.06 0.06 0 0 1 3196.4 -21.06 L3208.4 -21.06A 0.06 0.06 0 0 1 3208.46 -21 L3208.46 -6.06 L3218.4 -6.06 z"
       stroke-width="0.1"
       stroke="rgb(255,0,0)"
       fill="none"
       id="op_2D_Profile64-351-56" />
  </g>
  <g
     style="stroke-width:0.99999999;stroke-miterlimit:4;stroke-dasharray:none;stroke:#ff0000;stroke-opacity:1"
     id="Setup62">
    <path
       style="stroke-width:0.99999999;stroke-miterlimit:4;stroke-dasharray:none;stroke:#ff0000;stroke-opacity:1"
       d=" M3260.4 -6.06A 0.06 0.06 0 0 1 3260.46 -6 L3260.46 0A 0.06 0.06 0 0 1 3260.4 0.06 L3228.4 0.06A 0.06 0.06 0 0 1 3228.34 0 L3228.34 -6A 0.06 0.06 0 0 1 3228.4 -6.06 L3238.34 -6.06 L3238.34 -21A 0.06 0.06 0 0 1 3238.4 -21.06 L3250.4 -21.06A 0.06 0.06 0 0 1 3250.46 -21 L3250.46 -6.06 L3260.4 -6.06 z"
       stroke-width="0.1"
       stroke="rgb(255,0,0)"
       fill="none"
       id="op_2D_Profile65-353-57" />
  </g>
  <g
     style="stroke-width:0.99999999;stroke-miterlimit:4;stroke-dasharray:none;stroke:#ff0000;stroke-opacity:1"
     id="Setup63">
    <path
       style="stroke-width:0.99999999;stroke-miterlimit:4;stroke-dasharray:none;stroke:#ff0000;stroke-opacity:1"
       d=" M3272.7 -28.71A 0.44 0.44 0 0 0 3273.14 -29.15 L3273.14 -30.15A 0.44 0.44 0 0 0 3272.7 -30.59A 0.44 0.44 0 0 0 3272.26 -30.15 L3272.26 -29.15A 0.44 0.44 0 0 0 3272.7 -28.71 z M3273.14 -10.9A 0.44 0.44 0 0 0 3272.7 -11.34A 0.44 0.44 0 0 0 3272.26 -10.9 L3272.26 -9.9A 0.44 0.44 0 0 0 3272.7 -9.46A 0.44 0.44 0 0 0 3273.14 -9.9 L3273.14 -10.9 z M3329.4 -9.94 L3289.4 -9.94A 2.44 2.44 0 0 0 3286.96 -7.5A 2.44 2.44 0 0 0 3289.4 -5.06 L3329.4 -5.06A 2.44 2.44 0 0 0 3331.84 -7.5A 2.44 2.44 0 0 0 3329.4 -9.94 z M3345.66 -10.9 L3345.66 -9.9A 0.44 0.44 0 0 0 3346.1 -9.46A 0.44 0.44 0 0 0 3346.54 -9.9 L3346.54 -10.9A 0.44 0.44 0 0 0 3346.1 -11.34A 0.44 0.44 0 0 0 3345.66 -10.9 z M3346.089 -28.71A 0.44 0.44 0 0 0 3346.407 -28.835A 0.44 0.44 0 0 0 3346.54 -29.15 L3346.54 -30.15A 0.44 0.44 0 0 0 3346.1 -30.59A 0.44 0.44 0 0 0 3345.66 -30.15 L3345.66 -29.15A 0.44 0.44 0 0 0 3346.089 -28.71 z M3348.46 -28.71 L3348.46 -1A 1.06 1.06 0 0 1 3347.4 0.06 L3271.4 0.06A 1.06 1.06 0 0 1 3270.34 -1 L3270.34 -39A 1.06 1.06 0 0 1 3271.4 -40.06 L3297.1 -40.06A 0.06 0.06 0 0 1 3297.16 -40 L3297.16 -24.26 L3301.64 -24.26 L3301.64 -40A 0.06 0.06 0 0 1 3301.7 -40.06 L3304.1 -40.06A 0.06 0.06 0 0 1 3304.16 -40 L3304.16 -24.26 L3308.64 -24.26 L3308.64 -40A 0.06 0.06 0 0 1 3308.7 -40.06 L3310.1 -40.06A 0.06 0.06 0 0 1 3310.16 -40 L3310.16 -24.26 L3314.64 -24.26 L3314.64 -40A 0.06 0.06 0 0 1 3314.7 -40.06 L3317.1 -40.06A 0.06 0.06 0 0 1 3317.16 -40 L3317.16 -24.26 L3321.64 -24.26 L3321.64 -40A 0.06 0.06 0 0 1 3321.7 -40.06 L3347.4 -40.06A 1.06 1.06 0 0 1 3348.46 -39 L3348.46 -28.71 z"
       stroke-width="0.1"
       stroke="rgb(255,0,0)"
       fill="none"
       id="op_2D_Profile66-355-58" />
  </g>
  <g
     style="stroke-width:0.99999999;stroke-miterlimit:4;stroke-dasharray:none;stroke:#ff0000;stroke-opacity:1"
     id="Setup64">
    <path
       style="stroke-width:0.99999999;stroke-miterlimit:4;stroke-dasharray:none;stroke:#ff0000;stroke-opacity:1"
       d=" M3387.488 -28.41 L3393.057 -28.41A 4.44 4.44 0 0 0 3393.69 -34.657A 4.44 4.44 0 0 0 3393.057 -35.29 L3387.443 -35.29A 4.44 4.44 0 0 0 3386.81 -29.043A 4.44 4.44 0 0 0 3387.443 -28.41 L3387.488 -28.41 z M3370.271 -6.969A 31.91 31.91 0 0 1 3365.369 -51.829A 31.91 31.91 0 0 1 3410.229 -56.731A 31.91 31.91 0 0 1 3415.131 -11.871A 31.91 31.91 0 0 1 3370.271 -6.969 z"
       stroke-width="0.1"
       stroke="rgb(255,0,0)"
       fill="none"
       id="op_2D_Profile67-358-59" />
  </g>
  <g
     style="stroke-width:0.99999999;stroke-miterlimit:4;stroke-dasharray:none;stroke:#ff0000;stroke-opacity:1"
     id="Setup66">
    <path
       style="stroke-width:0.99999999;stroke-miterlimit:4;stroke-dasharray:none;stroke:#ff0000;stroke-opacity:1"
       d=" M3483.395 -20.666A 0.94 0.94 0 0 0 3483.76 -19.388A 0.94 0.94 0 0 0 3485.038 -19.754A 0.94 0.94 0 0 0 3484.673 -21.032A 0.94 0.94 0 0 0 3483.395 -20.666 z M3468.39 -31.915A 4.44 4.44 0 0 0 3466.757 -35.29 L3461.143 -35.29A 4.44 4.44 0 0 0 3460.51 -29.043A 4.44 4.44 0 0 0 3461.143 -28.41 L3466.757 -28.41A 4.44 4.44 0 0 0 3468.39 -31.915 z M3483.224 -43.581A 0.94 0.94 0 0 0 3484.164 -42.642A 0.94 0.94 0 0 0 3485.104 -43.581A 0.94 0.94 0 0 0 3484.164 -44.521A 0.94 0.94 0 0 0 3483.224 -43.581 z M3463.897 -54.281A 0.94 0.94 0 0 0 3464.837 -55.221A 0.94 0.94 0 0 0 3463.897 -56.161A 0.94 0.94 0 0 0 3462.957 -55.221A 0.94 0.94 0 0 0 3463.897 -54.281 z M3444.505 -43.034A 0.94 0.94 0 0 0 3444.14 -44.312A 0.94 0.94 0 0 0 3442.862 -43.946A 0.94 0.94 0 0 0 3443.227 -42.668A 0.94 0.94 0 0 0 3444.505 -43.034 z M3444.676 -20.119A 0.94 0.94 0 0 0 3443.736 -21.058A 0.94 0.94 0 0 0 3442.796 -20.119A 0.94 0.94 0 0 0 3443.736 -19.179A 0.94 0.94 0 0 0 3444.676 -20.119 z M3463.198 -8.964A 0.94 0.94 0 0 0 3463.518 -7.673A 0.94 0.94 0 0 0 3464.808 -7.994A 0.94 0.94 0 0 0 3464.488 -9.284A 0.94 0.94 0 0 0 3463.198 -8.964 z M3462.902 0.043A 31.91 31.91 0 0 1 3432.057 -32.898A 31.91 31.91 0 0 1 3464.998 -63.743A 31.91 31.91 0 0 1 3495.843 -30.802A 31.91 31.91 0 0 1 3462.902 0.043 z"
       stroke-width="0.1"
       stroke="rgb(255,0,0)"
       fill="none"
       id="op_2D_Profile68-360-60" />
  </g>
  <g
     style="stroke-width:0.99999999;stroke-miterlimit:4;stroke-dasharray:none;stroke:#ff0000;stroke-opacity:1"
     id="Setup67">
    <path
       style="stroke-width:0.99999999;stroke-miterlimit:4;stroke-dasharray:none;stroke:#ff0000;stroke-opacity:1"
       d=" M3534.888 -28.41 L3540.457 -28.41A 4.44 4.44 0 0 0 3541.09 -34.657A 4.44 4.44 0 0 0 3540.457 -35.29 L3534.843 -35.29A 4.44 4.44 0 0 0 3534.21 -29.043A 4.44 4.44 0 0 0 3534.843 -28.41 L3534.888 -28.41 z M3517.671 -6.969A 31.91 31.91 0 0 1 3512.769 -51.829A 31.91 31.91 0 0 1 3557.629 -56.731A 31.91 31.91 0 0 1 3562.531 -11.871A 31.91 31.91 0 0 1 3517.671 -6.969 z"
       stroke-width="0.1"
       stroke="rgb(255,0,0)"
       fill="none"
       id="op_2D_Profile75-374-61" />
  </g>
  <g
     style="stroke-width:0.99999999;stroke-miterlimit:4;stroke-dasharray:none;stroke:#ff0000;stroke-opacity:1"
     id="Setup68">
    <path
       style="stroke-width:0.99999999;stroke-miterlimit:4;stroke-dasharray:none;stroke:#ff0000;stroke-opacity:1"
       d=" M3591.905 -43.034A 0.94 0.94 0 0 0 3591.54 -44.312A 0.94 0.94 0 0 0 3590.262 -43.946A 0.94 0.94 0 0 0 3590.627 -42.668A 0.94 0.94 0 0 0 3591.905 -43.034 z M3606.91 -31.785A 4.44 4.44 0 0 0 3608.543 -28.41 L3614.157 -28.41A 4.44 4.44 0 0 0 3614.79 -34.657A 4.44 4.44 0 0 0 3614.157 -35.29 L3608.543 -35.29A 4.44 4.44 0 0 0 3606.91 -31.785 z M3592.076 -20.119A 0.94 0.94 0 0 0 3591.136 -21.058A 0.94 0.94 0 0 0 3590.196 -20.119A 0.94 0.94 0 0 0 3591.136 -19.179A 0.94 0.94 0 0 0 3592.076 -20.119 z M3611.403 -9.419A 0.94 0.94 0 0 0 3610.463 -8.479A 0.94 0.94 0 0 0 3611.403 -7.539A 0.94 0.94 0 0 0 3612.343 -8.479A 0.94 0.94 0 0 0 3611.403 -9.419 z M3630.795 -20.666A 0.94 0.94 0 0 0 3631.16 -19.388A 0.94 0.94 0 0 0 3632.438 -19.754A 0.94 0.94 0 0 0 3632.073 -21.032A 0.94 0.94 0 0 0 3630.795 -20.666 z M3630.624 -43.581A 0.94 0.94 0 0 0 3631.564 -42.642A 0.94 0.94 0 0 0 3632.504 -43.582A 0.94 0.94 0 0 0 3631.564 -44.521A 0.94 0.94 0 0 0 3630.624 -43.581 z M3612.102 -54.736A 0.94 0.94 0 0 0 3611.782 -56.027A 0.94 0.94 0 0 0 3610.492 -55.706A 0.94 0.94 0 0 0 3610.812 -54.416A 0.94 0.94 0 0 0 3612.102 -54.736 z M3612.398 -63.743A 31.91 31.91 0 0 1 3643.243 -30.802A 31.91 31.91 0 0 1 3610.302 0.043A 31.91 31.91 0 0 1 3579.457 -32.898A 31.91 31.91 0 0 1 3612.398 -63.743 z"
       stroke-width="0.1"
       stroke="rgb(255,0,0)"
       fill="none"
       id="op_2D_Profile69-363-62" />
  </g>
  <g
     style="stroke-width:0.99999999;stroke-miterlimit:4;stroke-dasharray:none;stroke:#ff0000;stroke-opacity:1"
     id="Setup69">
    <path
       style="stroke-width:0.99999999;stroke-miterlimit:4;stroke-dasharray:none;stroke:#ff0000;stroke-opacity:1"
       d=" M3676.067 -3.938A 0.94 0.94 0 0 0 3676.432 -2.66A 0.94 0.94 0 0 0 3676.889 -2.541 L3684.511 -2.541A 0.94 0.94 0 0 0 3685.451 -3.481A 0.94 0.94 0 0 0 3684.511 -4.421 L3676.889 -4.421A 0.94 0.94 0 0 0 3676.067 -3.938 z M3676.016 -11.743A 8.44 8.44 0 0 0 3667.837 -20.436A 8.44 8.44 0 0 0 3659.144 -12.257A 8.44 8.44 0 0 0 3667.323 -3.564A 8.44 8.44 0 0 0 3676.016 -11.743 z M3683.9 -16.496A 2.84 2.84 0 0 0 3686.74 -19.336 L3686.74 -19.436A 2.84 2.84 0 0 0 3683.9 -22.276 L3677.5 -22.276A 2.84 2.84 0 0 0 3674.66 -19.436 L3674.66 -19.336A 2.84 2.84 0 0 0 3677.5 -16.496 L3683.9 -16.496 z M3686.001 -15.177A 8.44 8.44 0 0 0 3690.643 -4.181A 8.44 8.44 0 0 0 3701.639 -8.823A 8.44 8.44 0 0 0 3696.997 -19.819A 8.44 8.44 0 0 0 3686.001 -15.177 z M3702.125 -3.99A 0.69 0.69 0 0 0 3701.435 -3.3A 0.69 0.69 0 0 0 3702.125 -2.61A 0.69 0.69 0 0 0 3702.815 -3.3A 0.69 0.69 0 0 0 3702.125 -3.99 z M3702.041 -20.015A 0.69 0.69 0 0 0 3702.81 -20.616A 0.69 0.69 0 0 0 3702.209 -21.385A 0.69 0.69 0 0 0 3701.44 -20.784A 0.69 0.69 0 0 0 3702.041 -20.015 z M3659.96 -20.616A 0.69 0.69 0 0 0 3659.359 -21.385A 0.69 0.69 0 0 0 3658.59 -20.784A 0.69 0.69 0 0 0 3659.191 -20.015A 0.69 0.69 0 0 0 3659.96 -20.616 z M3659.302 -3.989A 0.69 0.69 0 0 0 3658.586 -3.327A 0.69 0.69 0 0 0 3659.248 -2.611A 0.69 0.69 0 0 0 3659.964 -3.273A 0.69 0.69 0 0 0 3659.302 -3.989 z M3659.302 0.06 L3659.2 0.06A 6.06 6.06 0 0 1 3653.14 -6 L3653.14 -24A 0.06 0.06 0 0 1 3653.2 -24.06 L3656.14 -24.06 L3656.14 -44A 0.06 0.06 0 0 1 3656.2 -44.06 L3664.867 -44.06A 0.06 0.06 0 0 1 3664.927 -44 L3664.927 -41.06 L3674.807 -41.06 L3674.807 -44A 0.06 0.06 0 0 1 3674.867 -44.06 L3686.533 -44.06A 0.06 0.06 0 0 1 3686.593 -44 L3686.593 -41.06 L3696.473 -41.06 L3696.473 -44A 0.06 0.06 0 0 1 3696.533 -44.06 L3705.2 -44.06A 0.06 0.06 0 0 1 3705.26 -44 L3705.26 -24.06 L3708.2 -24.06A 0.06 0.06 0 0 1 3708.26 -24 L3708.26 -6A 6.06 6.06 0 0 1 3702.2 0.06 L3659.302 0.06 z"
       stroke-width="0.1"
       stroke="rgb(255,0,0)"
       fill="none"
       id="op_2D_Profile70-365-63" />
  </g>
  <g
     style="stroke-width:0.99999999;stroke-miterlimit:4;stroke-dasharray:none;stroke:#ff0000;stroke-opacity:1"
     id="Setup70">
    <path
       style="stroke-width:0.99999999;stroke-miterlimit:4;stroke-dasharray:none;stroke:#ff0000;stroke-opacity:1"
       d=" M3745.473 -14.613 L3739.927 -14.613 L3739.927 -11.733 L3751.473 -11.733 L3751.473 -14.613 L3745.473 -14.613 z M3745.66 -21.234A 1.44 1.44 0 0 0 3747.139 -22.633A 1.44 1.44 0 0 0 3745.74 -24.113A 1.44 1.44 0 0 0 3744.261 -22.714A 1.44 1.44 0 0 0 3745.66 -21.234 z M3745.643 -38.406A 60.06 60.06 0 0 1 3773.228 -31.727A 0.06 0.06 0 0 1 3773.253 -31.646A 0.06 0.06 0 0 1 3773.2 -31.613 L3770.26 -31.613 L3770.26 -26.733 L3773.2 -26.733A 0.06 0.06 0 0 1 3773.26 -26.673 L3773.26 -16.673A 0.06 0.06 0 0 1 3773.2 -16.613 L3770.26 -16.613 L3770.26 -14.673A 0.06 0.06 0 0 1 3770.2 -14.613 L3761.593 -14.613 L3761.593 -11.733 L3773.2 -11.733A 0.06 0.06 0 0 1 3773.26 -11.673 L3773.26 -6.673A 0.06 0.06 0 0 1 3773.228 -6.62A 60.06 60.06 0 0 1 3718.172 -6.62A 0.06 0.06 0 0 1 3718.14 -6.673 L3718.14 -11.673A 0.06 0.06 0 0 1 3718.2 -11.733 L3729.807 -11.733 L3729.807 -14.613 L3721.2 -14.613A 0.06 0.06 0 0 1 3721.14 -14.673 L3721.14 -16.613 L3718.2 -16.613A 0.06 0.06 0 0 1 3718.14 -16.673 L3718.14 -26.673A 0.06 0.06 0 0 1 3718.2 -26.733 L3721.14 -26.733 L3721.14 -31.613 L3718.2 -31.613A 0.06 0.06 0 0 1 3718.14 -31.673A 0.06 0.06 0 0 1 3718.172 -31.727A 60.06 60.06 0 0 1 3745.643 -38.406 z"
       stroke-width="0.1"
       stroke="rgb(255,0,0)"
       fill="none"
       id="op_2D_Profile71-367-64" />
  </g>
  <g
     style="stroke-width:0.99999999;stroke-miterlimit:4;stroke-dasharray:none;stroke:#ff0000;stroke-opacity:1"
     id="Setup71">
    <path
       style="stroke-width:0.99999999;stroke-miterlimit:4;stroke-dasharray:none;stroke:#ff0000;stroke-opacity:1"
       d=" M3784.191 -0.412A 2.06 2.06 0 0 1 3783.485 -1.588A 17.06 17.06 0 0 1 3783.14 -5 L3783.14 -8A 17.06 17.06 0 0 1 3800.2 -25.06 L3803.2 -25.06A 0.06 0.06 0 0 1 3803.26 -25 L3803.26 -20A 0.06 0.06 0 0 1 3803.2 -19.94 L3800.26 -19.94 L3800.26 -10.06 L3803.2 -10.06A 0.06 0.06 0 0 1 3803.26 -10 L3803.26 -5A 0.06 0.06 0 0 1 3803.2 -4.94 L3800.26 -4.94 L3800.26 0A 0.06 0.06 0 0 1 3800.2 0.06 L3785.503 0.06A 2.06 2.06 0 0 1 3784.191 -0.412 z"
       stroke-width="0.1"
       stroke="rgb(255,0,0)"
       fill="none"
       id="op_2D_Profile72-369-65" />
  </g>
  <g
     style="stroke-width:0.99999999;stroke-miterlimit:4;stroke-dasharray:none;stroke:#ff0000;stroke-opacity:1"
     id="Setup72">
    <path
       style="stroke-width:0.99999999;stroke-miterlimit:4;stroke-dasharray:none;stroke:#ff0000;stroke-opacity:1"
       d=" M3816.2 0.06A 0.06 0.06 0 0 1 3816.14 0 L3816.14 -4.94 L3813.2 -4.94A 0.06 0.06 0 0 1 3813.14 -5 L3813.14 -10A 0.06 0.06 0 0 1 3813.2 -10.06 L3816.14 -10.06 L3816.14 -19.94 L3813.2 -19.94A 0.06 0.06 0 0 1 3813.14 -20 L3813.14 -25A 0.06 0.06 0 0 1 3813.2 -25.06 L3816.2 -25.06A 17.06 17.06 0 0 1 3833.26 -8 L3833.26 -5A 17.06 17.06 0 0 1 3832.915 -1.588A 2.06 2.06 0 0 1 3830.897 0.06 L3816.2 0.06 z"
       stroke-width="0.1"
       stroke="rgb(255,0,0)"
       fill="none"
       id="op_2D_Profile73-371-66" />
  </g>
  <g
     style="stroke-width:0.99999999;stroke-miterlimit:4;stroke-dasharray:none;stroke:#ff0000;stroke-opacity:1"
     id="Setup73">
    <path
       style="stroke-width:0.99999999;stroke-miterlimit:4;stroke-dasharray:none;stroke:#ff0000;stroke-opacity:1"
       d=" M3900.437 -32 L3900.437 -33.94 L3882.557 -33.94 L3882.557 -32A 1.06 1.06 0 0 1 3881.497 -30.94 L3855.497 -30.94A 4.94 4.94 0 0 0 3850.557 -26A 4.94 4.94 0 0 0 3852.531 -22.05A 76.602 76.602 0 0 0 3930.464 -22.05A 4.94 4.94 0 0 0 3931.447 -28.967A 4.94 4.94 0 0 0 3927.497 -30.94 L3901.497 -30.94A 1.06 1.06 0 0 1 3900.437 -32 z M3900.438 -39.058 L3931.432 -39.054A 8.333 8.333 0 0 1 3939.721 -31.561A 25.521 25.521 0 0 1 3923.944 -5.347 L3923.941 -5.346A 100.06 100.06 0 0 1 3859.121 -5.323 L3859.118 -5.324A 25.521 25.521 0 0 1 3843.271 -31.572A 8.333 8.333 0 0 1 3851.562 -39.064 L3900.438 -39.058 z"
       stroke-width="0.1"
       stroke="rgb(255,0,0)"
       fill="none"
       id="op_2D_Profile74-373-67" />
  </g>
</svg>
